<svg width="33" height="33" viewBox="0 0 33 33" fill="none" xmlns="http://www.w3.org/2000/svg">
    <path d="M6.81165 28.7124C7.91621 28.7124 8.81165 27.817 8.81165 26.7124C8.81165 25.6078 7.91621 24.7124 6.81165 24.7124C5.70708 24.7124 4.81165 25.6078 4.81165 26.7124C4.81165 27.817 5.70708 28.7124 6.81165 28.7124Z" fill="black"/>
    <path d="M28.8116 18.7124H25.8116V16.7124C25.8111 16.1821 25.6002 15.6737 25.2253 15.2988C24.8503 14.9238 24.3419 14.7129 23.8116 14.7124H19.8116C19.2814 14.7129 18.773 14.9238 18.398 15.2988C18.0231 15.6737 17.8122 16.1821 17.8116 16.7124V18.7124H14.8116C14.2814 18.7129 13.773 18.9238 13.398 19.2988C13.0231 19.6737 12.8122 20.1821 12.8116 20.7124V28.7124C12.8122 29.2427 13.0231 29.7511 13.398 30.126C13.773 30.501 14.2814 30.7119 14.8116 30.7124H28.8116C29.3419 30.7119 29.8503 30.501 30.2253 30.126C30.6002 29.7511 30.8111 29.2427 30.8116 28.7124V20.7124C30.8111 20.1821 30.6002 19.6737 30.2253 19.2988C29.8503 18.9238 29.3419 18.7129 28.8116 18.7124ZM19.8116 16.7124H23.8116V18.7124H19.8116V16.7124ZM28.8116 28.7124H14.8116V20.7124H28.8116V28.7124Z" fill="black"/>
    <path d="M10.8116 6.7124H14.8116V12.7124H16.8116V6.7124H20.8116V12.7124H22.8116V6.7124H26.8116V12.7124H28.8116V6.7174C28.8116 6.18564 28.6004 5.67566 28.2244 5.29965C27.8484 4.92364 27.3384 4.7124 26.8066 4.7124H4.81665C4.28489 4.7124 3.77491 4.92364 3.3989 5.29965C3.02289 5.67566 2.81165 6.18564 2.81165 6.7174V20.7074C2.81165 21.2392 3.02289 21.7491 3.3989 22.1252C3.77491 22.5012 4.28489 22.7124 4.81665 22.7124H10.8116V6.7124ZM8.81165 20.7124H4.81165V6.7124H8.81165V20.7124Z" fill="black"/>
    </svg>
    