<svg width="76" height="77" viewBox="0 0 76 77" fill="none" xmlns="http://www.w3.org/2000/svg">
<g filter="url(#filter0_d_633_949)">
<rect x="12" y="11.5" width="52" height="52" rx="26" fill="white" shape-rendering="crispEdges"/>
<rect x="12.5" y="12" width="51" height="51" rx="25.5" stroke="#F5F5F5" shape-rendering="crispEdges"/>
<path d="M40.9531 45C41.375 45 41.7031 45.375 41.7031 45.75V46.8281C41.7031 47.0625 41.6094 47.4375 41.4688 47.625L40.6719 48.8438C40.4375 49.2188 39.875 49.5 39.4062 49.5H36.5469C36.0781 49.5 35.5156 49.2188 35.2812 48.8438L34.4844 47.625C34.2969 47.3906 34.25 47.1094 34.25 46.8281V45.75C34.25 45.3281 34.5781 45 35 45H40.9531ZM40.2031 46.8281C40.2031 46.8281 40.2031 46.7812 40.25 46.7812V46.5H35.75V46.8281L36.5469 48C36.5469 48 36.5938 48 36.5938 48.0469L39.4062 48C39.4062 48 39.4531 48 39.4531 47.9531L40.2031 46.8281ZM43.7656 27.9375C45.3594 29.4844 46.25 31.5938 46.25 33.8438C46.25 35.8594 45.5 37.7812 44.1875 39.3281C43.5781 40.0312 42.5 41.625 42.125 42.9375C42.0781 43.3125 41.75 43.5469 41.375 43.5469C41.375 43.5469 41.3281 43.5469 41.2812 43.5469C40.8594 43.5 40.5781 43.0781 40.625 42.7031L40.6719 42.5156C41.1406 40.875 42.3594 39.0938 43.0625 38.3438C44.1406 37.0781 44.75 35.4844 44.75 33.8438C44.75 32.0156 44 30.2812 42.7344 29.0156C41.4688 27.7031 39.7812 27.0469 38 27.0469H37.9531C34.2031 27.0469 31.25 30.0469 31.25 33.8438C31.25 35.4844 31.8125 37.0781 32.8906 38.3438C33.5938 39.0938 34.8125 40.875 35.2812 42.5156L35.3281 42.7031C35.3281 43.0781 35.0469 43.4531 34.625 43.5C34.25 43.5469 33.875 43.2656 33.8281 42.8906C33.4531 41.625 32.375 40.0312 31.7656 39.2812C30.4531 37.7812 29.75 35.8594 29.75 33.8438C29.75 29.25 33.4062 25.5469 37.9531 25.5469C40.1094 25.4531 42.2188 26.3906 43.7656 27.9375ZM38.75 29.2969C38.75 29.6719 38.375 30.0469 38 30.0469C35.8906 30.0469 34.25 31.6875 34.25 33.75C34.25 34.1719 33.875 34.5 33.5 34.5C33.0781 34.5 32.75 34.1719 32.75 33.75C32.75 30.8906 35.0938 28.5469 38 28.5469C38.375 28.5469 38.75 28.875 38.75 29.2969Z" fill="black"/>
</g>
<defs>
<filter id="filter0_d_633_949" x="0" y="0.5" width="76" height="76" filterUnits="userSpaceOnUse" color-interpolation-filters="sRGB">
<feFlood flood-opacity="0" result="BackgroundImageFix"/>
<feColorMatrix in="SourceAlpha" type="matrix" values="0 0 0 0 0 0 0 0 0 0 0 0 0 0 0 0 0 0 127 0" result="hardAlpha"/>
<feOffset dy="1"/>
<feGaussianBlur stdDeviation="6"/>
<feComposite in2="hardAlpha" operator="out"/>
<feColorMatrix type="matrix" values="0 0 0 0 0 0 0 0 0 0 0 0 0 0 0 0 0 0 0.12 0"/>
<feBlend mode="normal" in2="BackgroundImageFix" result="effect1_dropShadow_633_949"/>
<feBlend mode="normal" in="SourceGraphic" in2="effect1_dropShadow_633_949" result="shape"/>
</filter>
</defs>
</svg>
