<svg width="76" height="76" viewBox="0 0 76 76" fill="none" xmlns="http://www.w3.org/2000/svg">
    <g filter="url(#filter0_d_2665_382)">
        <rect x="12" y="11" width="52" height="52" rx="26" fill="white" shape-rendering="crispEdges" />
        <rect x="12.5" y="11.5" width="51" height="51" rx="25.5" stroke="#F5F5F5"
            shape-rendering="crispEdges" />
        <path
            d="M44 25C45.6406 25 47 26.3594 47 28V46C47 47.6875 45.6406 49 44 49H32C30.3125 49 29 47.6875 29 46V28C29 26.3594 30.3125 25 32 25H44ZM45.5 46V32.5H30.5V46C30.5 46.8438 31.1562 47.5 32 47.5H44C44.7969 47.5 45.5 46.8438 45.5 46ZM45.5 31V28C45.5 27.2031 44.7969 26.5 44 26.5H32C31.1562 26.5 30.5 27.2031 30.5 28V31H45.5ZM32.75 45.25C32.3281 45.25 32 44.9219 32 44.5C32 44.125 32.3281 43.75 32.75 43.75H38.75C39.125 43.75 39.5 44.125 39.5 44.5C39.5 44.9219 39.125 45.25 38.75 45.25H32.75ZM42.5 45.625C41.8438 45.625 41.375 45.1562 41.375 44.5C41.375 43.8906 41.8438 43.375 42.5 43.375C43.1094 43.375 43.625 43.8906 43.625 44.5C43.625 45.1562 43.1094 45.625 42.5 45.625ZM42.5 41.125C41.8438 41.125 41.375 40.6562 41.375 40C41.375 39.3906 41.8438 38.875 42.5 38.875C43.1094 38.875 43.625 39.3906 43.625 40C43.625 40.6562 43.1094 41.125 42.5 41.125ZM42.5 36.625C41.8438 36.625 41.375 36.1562 41.375 35.5C41.375 34.8906 41.8438 34.375 42.5 34.375C43.1094 34.375 43.625 34.8906 43.625 35.5C43.625 36.1562 43.1094 36.625 42.5 36.625ZM38 41.125C37.3438 41.125 36.875 40.6562 36.875 40C36.875 39.3906 37.3438 38.875 38 38.875C38.6094 38.875 39.125 39.3906 39.125 40C39.125 40.6562 38.6094 41.125 38 41.125ZM38 36.625C37.3438 36.625 36.875 36.1562 36.875 35.5C36.875 34.8906 37.3438 34.375 38 34.375C38.6094 34.375 39.125 34.8906 39.125 35.5C39.125 36.1562 38.6094 36.625 38 36.625ZM33.5 41.125C32.8438 41.125 32.375 40.6562 32.375 40C32.375 39.3906 32.8438 38.875 33.5 38.875C34.1094 38.875 34.625 39.3906 34.625 40C34.625 40.6562 34.1094 41.125 33.5 41.125ZM33.5 36.625C32.8438 36.625 32.375 36.1562 32.375 35.5C32.375 34.8906 32.8438 34.375 33.5 34.375C34.1094 34.375 34.625 34.8906 34.625 35.5C34.625 36.1562 34.1094 36.625 33.5 36.625Z"
            fill="black" />
    </g>
    <defs>
        <filter id="filter0_d_2665_382" x="0" y="0" width="76" height="76"
            filterUnits="userSpaceOnUse" color-interpolation-filters="sRGB">
            <feFlood flood-opacity="0" result="BackgroundImageFix" />
            <feColorMatrix in="SourceAlpha" type="matrix"
                values="0 0 0 0 0 0 0 0 0 0 0 0 0 0 0 0 0 0 127 0" result="hardAlpha" />
            <feOffset dy="1" />
            <feGaussianBlur stdDeviation="6" />
            <feComposite in2="hardAlpha" operator="out" />
            <feColorMatrix type="matrix" values="0 0 0 0 0 0 0 0 0 0 0 0 0 0 0 0 0 0 0.12 0" />
            <feBlend mode="normal" in2="BackgroundImageFix" result="effect1_dropShadow_2665_382" />
            <feBlend mode="normal" in="SourceGraphic" in2="effect1_dropShadow_2665_382"
                result="shape" />
        </filter>
    </defs>
</svg>
    