<svg width="33" height="33" viewBox="0 0 33 33" fill="none" xmlns="http://www.w3.org/2000/svg">
    <path d="M14.8116 17.3024L12.2216 14.7124L10.8116 16.1224L14.8116 20.1224L22.8116 12.1224L21.4016 10.7124L14.8116 17.3024Z" fill="black"/>
    <path d="M16.8117 30.7124L10.6357 27.4194C8.87498 26.4827 7.40262 25.0843 6.37657 23.3741C5.35053 21.664 4.80953 19.7067 4.81165 17.7124V4.7124C4.81218 4.18213 5.02307 3.67373 5.39802 3.29877C5.77298 2.92382 6.28138 2.71293 6.81165 2.7124H26.8117C27.3419 2.71293 27.8503 2.92382 28.2253 3.29877C28.6002 3.67373 28.8111 4.18213 28.8117 4.7124V17.7124C28.8138 19.7067 28.2728 21.664 27.2467 23.3741C26.2207 25.0843 24.7483 26.4827 22.9877 27.4194L16.8117 30.7124ZM6.81165 4.7124V17.7124C6.80999 19.3442 7.25275 20.9457 8.09242 22.3449C8.93208 23.7441 10.1369 24.8882 11.5777 25.6544L16.8117 28.4454L22.0457 25.6554C23.4865 24.8891 24.6915 23.7448 25.5311 22.3454C26.3708 20.946 26.8135 19.3444 26.8117 17.7124V4.7124H6.81165Z" fill="black"/>
    </svg>
    