<svg width="76" height="76" viewBox="0 0 76 76" fill="none" xmlns="http://www.w3.org/2000/svg">
<g filter="url(#filter0_d_633_956)">
<rect x="12" y="11" width="52" height="52" rx="26" fill="white"/>
<rect x="12.5" y="11.5" width="51" height="51" rx="25.5" stroke="#F5F5F5"/>
<path d="M37.0156 40.5625C36.7344 40.8438 36.2188 40.8438 35.9375 40.5625L33.3125 37.9375C33.0312 37.6562 33.0312 37.1406 33.3125 36.8594C33.5938 36.5781 34.1094 36.5781 34.3906 36.8594L36.5 38.9688L41.1875 34.2344C41.4688 33.9531 41.9844 33.9531 42.2656 34.2344C42.5469 34.5156 42.5469 35.0312 42.2656 35.3125L37.0156 40.5625ZM42.0781 27.1562C43.625 26.875 45.2656 27.3438 46.4844 28.5156C47.6562 29.7344 48.125 31.375 47.8438 32.9219C49.1094 33.8125 50 35.3125 50 37C50 38.7344 49.1094 40.1875 47.8438 41.125C48.125 42.6719 47.6562 44.3125 46.4844 45.4844C45.2656 46.7031 43.625 47.1719 42.0781 46.8906C41.1875 48.1562 39.6875 49 38 49C36.2656 49 34.7656 48.1562 33.875 46.8906C32.3281 47.1719 30.6875 46.7031 29.4688 45.4844C28.2969 44.3125 27.8281 42.6719 28.1094 41.125C26.8438 40.1875 26 38.7344 26 37C26 35.3125 26.8438 33.8125 28.1094 32.9219C27.8281 31.375 28.2969 29.7344 29.4688 28.5156C30.6875 27.3438 32.3281 26.875 33.875 27.1562C34.7656 25.8906 36.2656 25 37.9531 25C39.6875 25 41.1875 25.8906 42.0781 27.1562ZM34.625 28.9375L34.0156 28.75C32.8438 28.375 31.4844 28.6562 30.5469 29.5938C29.6094 30.5312 29.3281 31.8906 29.7031 33.0625L29.8906 33.6719L29.3281 33.9531C28.2031 34.5156 27.5 35.6875 27.5 37C27.5 38.3594 28.2031 39.4844 29.3281 40.0938L29.8906 40.375L29.7031 40.9844C29.3281 42.1562 29.6094 43.5156 30.5469 44.4531C31.4844 45.3906 32.8438 45.6719 34.0156 45.2969L34.625 45.1094L34.9062 45.6719C35.5156 46.7969 36.6406 47.5 38 47.5C39.3125 47.5 40.4375 46.7969 41.0469 45.6719L41.3281 45.1094L41.9375 45.2969C43.1094 45.6719 44.4688 45.3906 45.4062 44.4531C46.3438 43.5156 46.625 42.1562 46.25 40.9844L46.0625 40.375L46.625 40.0938C47.75 39.4844 48.5 38.3594 48.5 37C48.5 35.6875 47.75 34.5156 46.625 33.9531L46.0625 33.6719L46.25 33.0625C46.625 31.8906 46.3438 30.5312 45.4062 29.5938C44.4688 28.6562 43.1094 28.375 41.9375 28.75L41.3281 28.9375L41.0469 28.375C40.4375 27.25 39.3125 26.5 38 26.5C36.6406 26.5 35.5156 27.25 34.9062 28.375L34.625 28.9375Z" fill="black"/>
</g>
<defs>
<filter id="filter0_d_633_956" x="0" y="0" width="76" height="76" filterUnits="userSpaceOnUse" color-interpolation-filters="sRGB">
<feFlood flood-opacity="0" result="BackgroundImageFix"/>
<feColorMatrix in="SourceAlpha" type="matrix" values="0 0 0 0 0 0 0 0 0 0 0 0 0 0 0 0 0 0 127 0" result="hardAlpha"/>
<feOffset dy="1"/>
<feGaussianBlur stdDeviation="6"/>
<feComposite in2="hardAlpha" operator="out"/>
<feColorMatrix type="matrix" values="0 0 0 0 0 0 0 0 0 0 0 0 0 0 0 0 0 0 0.12 0"/>
<feBlend mode="normal" in2="BackgroundImageFix" result="effect1_dropShadow_633_956"/>
<feBlend mode="normal" in="SourceGraphic" in2="effect1_dropShadow_633_956" result="shape"/>
</filter>
</defs>
</svg>
