<svg width="19" height="19" viewBox="0 0 19 19" fill="none" xmlns="http://www.w3.org/2000/svg">
    <path fill-rule="evenodd" clip-rule="evenodd"
        d="M5.56958 2.053C5.51502 2.10743 5.47172 2.17209 5.44219 2.24327C5.41265 2.31446 5.39744 2.39077 5.39744 2.46784C5.39744 2.54492 5.41265 2.62123 5.44219 2.69242C5.47172 2.7636 5.51502 2.82826 5.56958 2.88269L12.1872 9.49909L5.56958 16.1155C5.45956 16.2255 5.39775 16.3747 5.39775 16.5303C5.39775 16.6859 5.45956 16.8352 5.56958 16.9452C5.67961 17.0552 5.82883 17.117 5.98443 17.117C6.14002 17.117 6.28925 17.0552 6.39927 16.9452L13.4305 9.91394C13.4851 9.85951 13.5284 9.79485 13.5579 9.72366C13.5875 9.65248 13.6027 9.57617 13.6027 9.49909C13.6027 9.42202 13.5875 9.34571 13.5579 9.27452C13.5284 9.20334 13.4851 9.13868 13.4305 9.08425L6.39927 2.053C6.34484 1.99843 6.28018 1.95514 6.209 1.9256C6.13781 1.89606 6.0615 1.88086 5.98443 1.88086C5.90736 1.88086 5.83104 1.89606 5.75986 1.9256C5.68867 1.95514 5.62401 1.99843 5.56958 2.053Z"
        fill="black" />
</svg>
    