<svg width="19" height="19" viewBox="0 0 19 19" fill="none" xmlns="http://www.w3.org/2000/svg">
    <path fill-rule="evenodd" clip-rule="evenodd"
        d="M13.4305 2.05398C13.485 2.10841 13.5283 2.17306 13.5579 2.24425C13.5874 2.31544 13.6026 2.39175 13.6026 2.46882C13.6026 2.54589 13.5874 2.62221 13.5579 2.69339C13.5283 2.76458 13.485 2.82924 13.4305 2.88366L6.8129 9.50007L13.4305 16.1165C13.5405 16.2265 13.6023 16.3757 13.6023 16.5313C13.6023 16.6869 13.5405 16.8361 13.4305 16.9462C13.3205 17.0562 13.1712 17.118 13.0156 17.118C12.86 17.118 12.7108 17.0562 12.6008 16.9462L5.56954 9.91491C5.51497 9.86049 5.47168 9.79583 5.44214 9.72464C5.4126 9.65346 5.3974 9.57714 5.3974 9.50007C5.3974 9.423 5.4126 9.34669 5.44214 9.2755C5.47168 9.20431 5.51497 9.13966 5.56954 9.08523L12.6008 2.05398C12.6552 1.99941 12.7199 1.95612 12.7911 1.92658C12.8623 1.89704 12.9386 1.88184 13.0156 1.88184C13.0927 1.88184 13.169 1.89704 13.2402 1.92658C13.3114 1.95612 13.376 1.99941 13.4305 2.05398Z"
        fill="black" />
</svg>
    