<svg width="104" height="56" viewBox="0 0 104 56" fill="none" xmlns="http://www.w3.org/2000/svg">
<path d="M24 14.9691C28.9259 5.78209 38.5054 0.0488281 48.9297 0.0488281H55.0703C65.4946 0.0488281 75.0741 5.78208 80 14.9691L80.4393 15.7884C85.0947 24.4709 94.1482 29.8893 104 29.8893V55.9997H0L0 29.8893C9.85184 29.8893 18.9053 24.4709 23.5607 15.7884L24 14.9691Z" fill="white"/>
<mask id="mask0_2540_3218" style="mask-type:alpha" maskUnits="userSpaceOnUse" x="40" y="16" width="24" height="24">
<rect x="40" y="16.8345" width="24" height="22.3804" fill="#D9D9D9"/>
</mask>
<g mask="url(#mask0_2540_3218)">
<path d="M51 20.5645V31.9178L45.4 26.6957L44 28.0246L52 35.4847L60 28.0246L58.6 26.6957L53 31.9178V20.5645H51Z" fill="#4A4A4A"/>
</g>
</svg>
