<svg width="32" height="33" viewBox="0 0 32 33" fill="none" xmlns="http://www.w3.org/2000/svg">
    <path d="M20 30.4841H17C16.4697 30.4836 15.9613 30.2727 15.5864 29.8978C15.2114 29.5228 15.0005 29.0144 15 28.4841V23.4841H17V28.4841H20V23.4841H22V19.4841C21.9997 19.219 21.8943 18.9648 21.7068 18.7773C21.5193 18.5898 21.2651 18.4844 21 18.4841H12.28L10.28 12.4841H4C3.73486 12.4844 3.48066 12.5898 3.29319 12.7773C3.10571 12.9648 3.00026 13.219 3 13.4841V19.4841H5V28.4841H9V21.4841H11V28.4841C10.9995 29.0144 10.7886 29.5228 10.4136 29.8978C10.0387 30.2727 9.53027 30.4836 9 30.4841H5C4.46973 30.4836 3.96133 30.2727 3.58637 29.8978C3.21141 29.5228 3.00053 29.0144 3 28.4841V21.4841C2.46973 21.4836 1.96133 21.2727 1.58637 20.8978C1.21141 20.5228 1.00053 20.0144 1 19.4841V13.4841C1.00079 12.6887 1.31712 11.9261 1.87956 11.3637C2.44199 10.8013 3.20459 10.4849 4 10.4841H10.28C10.6997 10.4839 11.1088 10.6158 11.4494 10.8612C11.7899 11.1065 12.0444 11.4529 12.177 11.8511L13.72 16.4841H21C21.7954 16.4849 22.558 16.8013 23.1204 17.3637C23.6829 17.9261 23.9992 18.6887 24 19.4841V23.4841C23.9995 24.0144 23.7886 24.5228 23.4136 24.8978C23.0387 25.2727 22.5303 25.4836 22 25.4841V28.4841C21.9995 29.0144 21.7886 29.5228 21.4136 29.8978C21.0387 30.2727 20.5303 30.4836 20 30.4841Z" fill="black"/>
    <path d="M28 30.4841H26V19.4841H29V13.4841C28.9997 13.219 28.8943 12.9648 28.7068 12.7773C28.5193 12.5898 28.2651 12.4844 28 12.4841H24V10.4841H28C28.7954 10.4849 29.558 10.8013 30.1204 11.3637C30.6829 11.9261 30.9992 12.6887 31 13.4841V19.4841C30.9995 20.0144 30.7886 20.5228 30.4136 20.8978C30.0387 21.2727 29.5303 21.4836 29 21.4841H28V30.4841Z" fill="black"/>
    <path d="M7 9.48413C6.20888 9.48413 5.43552 9.24954 4.77772 8.81001C4.11992 8.37049 3.60723 7.74577 3.30448 7.01487C3.00173 6.28396 2.92252 5.4797 3.07686 4.70377C3.2312 3.92785 3.61216 3.21512 4.17157 2.65571C4.73098 2.0963 5.44372 1.71533 6.21964 1.56099C6.99556 1.40665 7.79983 1.48586 8.53074 1.78861C9.26164 2.09137 9.88635 2.60406 10.3259 3.26185C10.7654 3.91965 11 4.69301 11 5.48413C10.9987 6.54459 10.5768 7.56124 9.82697 8.3111C9.07711 9.06096 8.06046 9.48281 7 9.48413ZM7 3.48413C6.60444 3.48413 6.21776 3.60143 5.88886 3.82119C5.55996 4.04096 5.30362 4.35331 5.15224 4.71877C5.00087 5.08422 4.96126 5.48635 5.03843 5.87431C5.1156 6.26228 5.30608 6.61864 5.58579 6.89835C5.86549 7.17805 6.22186 7.36853 6.60982 7.4457C6.99778 7.52287 7.39992 7.48327 7.76537 7.33189C8.13082 7.18052 8.44318 6.92417 8.66294 6.59527C8.8827 6.26637 9 5.8797 9 5.48413C8.99947 4.95386 8.78859 4.44546 8.41363 4.0705C8.03867 3.69555 7.53027 3.48466 7 3.48413Z" fill="black"/>
    <path d="M25 9.48413C24.2089 9.48413 23.4355 9.24954 22.7777 8.81001C22.1199 8.37049 21.6072 7.74577 21.3045 7.01487C21.0017 6.28396 20.9225 5.4797 21.0769 4.70377C21.2312 3.92785 21.6122 3.21512 22.1716 2.65571C22.731 2.0963 23.4437 1.71533 24.2196 1.56099C24.9956 1.40665 25.7998 1.48586 26.5307 1.78861C27.2616 2.09137 27.8864 2.60406 28.3259 3.26185C28.7654 3.91965 29 4.69301 29 5.48413C28.9987 6.54459 28.5768 7.56124 27.827 8.3111C27.0771 9.06096 26.0605 9.48281 25 9.48413ZM25 3.48413C24.6044 3.48413 24.2178 3.60143 23.8889 3.82119C23.56 4.04096 23.3036 4.35331 23.1522 4.71877C23.0009 5.08422 22.9613 5.48635 23.0384 5.87431C23.1156 6.26228 23.3061 6.61864 23.5858 6.89835C23.8655 7.17805 24.2219 7.36853 24.6098 7.4457C24.9978 7.52287 25.3999 7.48327 25.7654 7.33189C26.1308 7.18052 26.4432 6.92417 26.6629 6.59527C26.8827 6.26637 27 5.8797 27 5.48413C26.9995 4.95386 26.7886 4.44546 26.4136 4.0705C26.0387 3.69555 25.5303 3.48466 25 3.48413Z" fill="black"/>
    <path d="M18.5 15.4841C17.8078 15.4841 17.1311 15.2789 16.5555 14.8943C15.9799 14.5097 15.5313 13.9631 15.2664 13.3235C15.0015 12.684 14.9322 11.9802 15.0673 11.3013C15.2023 10.6224 15.5356 9.99874 16.0251 9.50926C16.5146 9.01978 17.1383 8.68643 17.8172 8.55138C18.4961 8.41634 19.1999 8.48565 19.8394 8.75055C20.4789 9.01546 21.0256 9.46406 21.4101 10.0396C21.7947 10.6152 22 11.2919 22 11.9841C21.9989 12.9121 21.6299 13.8017 20.9737 14.4578C20.3176 15.114 19.4279 15.4831 18.5 15.4841ZM18.5 10.4841C18.2033 10.4841 17.9133 10.5721 17.6666 10.7369C17.42 10.9018 17.2277 11.136 17.1142 11.4101C17.0007 11.6842 16.9709 11.9858 17.0288 12.2768C17.0867 12.5677 17.2296 12.835 17.4393 13.0448C17.6491 13.2546 17.9164 13.3974 18.2074 13.4553C18.4983 13.5132 18.7999 13.4835 19.074 13.37C19.3481 13.2564 19.5824 13.0642 19.7472 12.8175C19.912 12.5708 20 12.2808 20 11.9841C19.9995 11.5865 19.8413 11.2052 19.5601 10.9241C19.2789 10.6429 18.8977 10.4847 18.5 10.4841Z" fill="black"/>
    </svg>
    