<svg width="46" height="46" viewBox="0 0 46 46" fill="none" xmlns="http://www.w3.org/2000/svg">
    <path
        d="M22.7378 0.5C10.3114 0.5 0.237793 10.5736 0.237793 23C0.237793 35.4264 10.3114 45.5 22.7378 45.5C35.1642 45.5 45.2378 35.4264 45.2378 23C45.2378 10.5736 35.1642 0.5 22.7378 0.5ZM15.1484 40.9688C10.3861 38.952 6.61855 35.1282 4.6726 30.3365C2.72664 25.5448 2.76132 20.1768 4.76901 15.4107C4.86465 15.1854 4.96467 14.9621 5.06901 14.7408L9.98779 19.1681V25.0963L17.2159 32.75H20.8628V37.3482L16.4517 41.4652C16.0128 41.3156 15.5784 41.1501 15.1484 40.9688ZM36.5264 36.7886C34.7179 38.6024 32.5687 40.0408 30.2023 41.021C27.836 42.0012 25.2991 42.5038 22.7378 42.5C21.8055 42.5001 20.8743 42.4341 19.9514 42.3025L23.8628 38.6518V29.75H18.5097L12.9878 23.9037V17.8319L6.58467 12.0695C8.70321 8.949 11.6764 6.50535 15.1481 5.03122C18.1188 3.77454 21.3551 3.27519 24.5665 3.57801C27.7778 3.88082 30.8637 4.97631 33.5472 6.76616L29.2755 12.2582L30.7277 15.8887L29.7448 16.8717L22.3743 15.3976L18.2378 18.5V26.75H34.7378L39.4576 33.0431C38.6369 34.4064 37.6525 35.6643 36.5264 36.7886ZM42.2378 23C42.2421 25.399 41.8011 27.7779 40.9372 30.016L36.2378 23.75H21.2378V20L23.1013 18.6024L30.7308 20.1283L34.2479 16.6113L32.7 12.7418L35.9063 8.61894C36.1164 8.81169 36.3229 9.00919 36.526 9.21144C38.3399 11.0198 39.7784 13.169 40.7586 15.5354C41.7389 17.9018 42.2416 20.4386 42.2378 23Z"
        fill="black" />
</svg>
    