<svg width="32" height="33" viewBox="0 0 32 33" fill="none" xmlns="http://www.w3.org/2000/svg">
    <g clip-path="url(#clip0_29_138)">
    <path d="M2.66667 16.2323C3.03704 16.2323 3.2963 16.0491 3.44444 15.6827C3.59259 15.3164 3.59259 14.95 3.44444 14.5836C3.2963 14.2172 3.03704 14.034 2.66667 14.034C2.2963 14.034 2.03704 14.2172 1.88889 14.5836C1.74074 14.95 1.74074 15.3164 1.88889 15.6827C2.03704 16.0491 2.2963 16.2323 2.66667 16.2323ZM23.125 15.2362C23.0324 15.0874 22.8542 14.8011 22.5903 14.3775C22.3264 13.9539 22.1343 13.6448 22.0139 13.4501C21.8935 13.2555 21.7176 12.975 21.4861 12.6086C21.2546 12.2423 21.0579 11.9388 20.8958 11.6984C20.7338 11.458 20.5463 11.1889 20.3333 10.8912C20.1204 10.5936 19.912 10.3131 19.7083 10.0497L17.9722 12.4541C17.2037 13.5303 16.2384 14.0569 15.0764 14.034C13.9144 14.0111 12.963 13.4501 12.2222 12.351C11.6944 11.561 11.4329 10.6565 11.4375 9.63756C11.4421 8.61859 11.713 7.71983 12.25 6.94129L14.7083 3.40349C14.5046 3.27755 14.2685 3.1831 14 3.12013C13.7315 3.05716 13.5116 3.02281 13.3403 3.01708C13.169 3.01136 12.9074 3.01422 12.5556 3.02567C12.2037 3.03712 11.9769 3.04284 11.875 3.04284C11.0231 3.04284 10.2917 3.42067 9.68056 4.17631L7.48611 6.88976H5.33333V16.2323C5.37963 16.2323 5.47685 16.2294 5.625 16.2237C5.77315 16.218 5.875 16.218 5.93056 16.2237C5.98611 16.2294 6.07639 16.2409 6.20139 16.258C6.32639 16.2752 6.4213 16.301 6.48611 16.3353C6.55093 16.3697 6.63194 16.4183 6.72917 16.4813C6.82639 16.5443 6.91204 16.6216 6.98611 16.7132L11.1111 21.7279C12.1759 22.9987 13.2269 23.6342 14.2639 23.6342C14.9861 23.6342 15.5648 23.3651 16 22.827C16.5278 23.056 17.0486 23.0102 17.5625 22.6896C18.0764 22.369 18.412 21.8824 18.5694 21.2298C19.2546 21.2985 19.8426 21.0467 20.3333 20.4742C20.5185 20.2681 20.6852 20.0076 20.8333 19.6928C20.9815 19.3779 21.0463 19.0889 21.0278 18.8255C21.1204 18.94 21.3194 18.9973 21.625 18.9973C22.0231 18.9973 22.3796 18.877 22.6944 18.6366C23.0093 18.3962 23.2384 18.0928 23.3819 17.7264C23.5255 17.36 23.581 16.9507 23.5486 16.4985C23.5162 16.0462 23.375 15.6255 23.125 15.2362ZM25.3333 16.2323H26.6667V7.43932H25.375L23.1944 4.34805C22.5833 3.47791 21.8009 3.04284 20.8472 3.04284H18.5278C17.7037 3.04284 17.0278 3.42639 16.5 4.19349L13.5972 8.36671C13.338 8.74453 13.2083 9.17387 13.2083 9.65474C13.2083 10.1356 13.3333 10.5649 13.5833 10.9428C13.9815 11.5267 14.4907 11.8244 15.1111 11.8358C15.7315 11.8473 16.2454 11.5667 16.6528 10.9943L19.3333 7.25041C19.5648 6.98708 19.8125 6.864 20.0764 6.88118C20.3403 6.89835 20.5579 7.05292 20.7292 7.34487C20.9005 7.63682 20.9398 7.96026 20.8472 8.31519C20.9954 8.53272 21.2546 8.89337 21.625 9.39713C21.9954 9.9009 22.2731 10.2902 22.4583 10.5649C22.7269 10.9771 23.1088 11.5811 23.6042 12.3768C24.0995 13.1725 24.3981 13.6562 24.5 13.828C24.9815 14.5836 25.2593 15.385 25.3333 16.2323ZM29.3333 16.2323C29.7037 16.2323 29.963 16.0491 30.1111 15.6827C30.2593 15.3164 30.2593 14.95 30.1111 14.5836C29.963 14.2172 29.7037 14.034 29.3333 14.034C28.963 14.034 28.7037 14.2172 28.5556 14.5836C28.4074 14.95 28.4074 15.3164 28.5556 15.6827C28.7037 16.0491 28.963 16.2323 29.3333 16.2323ZM32 6.3402V17.3314C32 17.6291 31.912 17.8867 31.7361 18.1042C31.5602 18.3218 31.3519 18.4305 31.1111 18.4305H25.0833C24.8333 19.1747 24.4537 19.7844 23.9444 20.2595C23.4352 20.7347 22.8565 21.0295 22.2083 21.144C21.9028 21.6935 21.5301 22.1601 21.0903 22.5436C20.6505 22.9272 20.1759 23.1877 19.6667 23.325C19.2778 23.9319 18.794 24.3984 18.2153 24.7247C17.6366 25.051 17.0417 25.1913 16.4306 25.1455C15.875 25.5347 15.2917 25.7609 14.6806 25.8238C14.0694 25.8868 13.4792 25.8067 12.9097 25.5834C12.3403 25.3601 11.7986 25.0539 11.2847 24.6646C10.7708 24.2753 10.2917 23.8116 9.84722 23.2735L5.86111 18.4305H0.888889C0.648148 18.4305 0.439815 18.3218 0.263889 18.1042C0.087963 17.8867 0 17.6291 0 17.3314V5.79064C0 5.49297 0.087963 5.23536 0.263889 5.01783C0.439815 4.80029 0.648148 4.69152 0.888889 4.69152H6.73611C6.86574 4.53124 7.08333 4.25646 7.38889 3.86718C7.69444 3.47791 7.91435 3.20313 8.04861 3.04284C8.18287 2.88256 8.38657 2.65357 8.65972 2.35589C8.93287 2.05822 9.16667 1.84354 9.36111 1.71188C9.55556 1.58021 9.79167 1.43424 10.0694 1.27395C10.3472 1.11366 10.6343 1.00203 10.9306 0.93906C11.2269 0.87609 11.5417 0.844604 11.875 0.844604H13.5C14.4167 0.844604 15.2546 1.16518 16.0139 1.80633C16.7731 1.16518 17.6111 0.844604 18.5278 0.844604H20.8472C21.1713 0.844604 21.4815 0.878952 21.7778 0.947647C22.0741 1.01634 22.3356 1.09935 22.5625 1.19667C22.7894 1.29398 23.0278 1.44569 23.2778 1.65177C23.5278 1.85786 23.7338 2.03532 23.8958 2.18416C24.0579 2.333 24.2569 2.55912 24.4931 2.86252C24.7292 3.16592 24.9097 3.40636 25.0347 3.58382C25.1597 3.76128 25.3495 4.03606 25.6042 4.40816C25.8588 4.78026 26.0509 5.0579 26.1806 5.24108H31.1111C31.3519 5.24108 31.5602 5.34985 31.7361 5.56739C31.912 5.78492 32 6.04253 32 6.3402Z" fill="black"/>
    </g>
    <defs>
    <clipPath id="clip0_29_138">
    <rect width="32" height="32" fill="white" transform="translate(0 0.844604)"/>
    </clipPath>
    </defs>
    </svg>
    