<svg width="48" height="49" viewBox="0 0 48 49" fill="none" xmlns="http://www.w3.org/2000/svg">
    <path d="M30 15.5C31.5938 15.5 33 16.9062 33 18.5V30.5C33 32.1875 31.5938 33.5 30 33.5H18C16.3125 33.5 15 32.1875 15 30.5V18.5C15 16.9062 16.3125 15.5 18 15.5H30ZM28.5 29V20H19.5V29H28.5ZM45.75 26.75H42V31.25H45.75C46.9688 31.25 48 32.2812 48 33.5C48 34.8125 46.9688 35.75 45.75 35.75H42V36.5C42 39.875 39.2812 42.5 36 42.5H35.25V46.25C35.25 47.5625 34.2188 48.5 33 48.5C31.6875 48.5 30.75 47.5625 30.75 46.25V42.5H26.25V46.25C26.25 47.5625 25.2188 48.5 24 48.5C22.6875 48.5 21.75 47.5625 21.75 46.25V42.5H17.25V46.25C17.25 47.5625 16.2188 48.5 15 48.5C13.6875 48.5 12.75 47.5625 12.75 46.25V42.5H12C8.625 42.5 6 39.875 6 36.5V35.75H2.25C0.9375 35.75 0 34.8125 0 33.5C0 32.2812 0.9375 31.25 2.25 31.25H6V26.75H2.25C0.9375 26.75 0 25.8125 0 24.5C0 23.2812 0.9375 22.25 2.25 22.25H6V17.75H2.25C0.9375 17.75 0 16.8125 0 15.5C0 14.2812 0.9375 13.25 2.25 13.25H6V12.5C6 9.21875 8.625 6.5 12 6.5H12.75V2.75C12.75 1.53125 13.6875 0.5 15 0.5C16.2188 0.5 17.25 1.53125 17.25 2.75V6.5H21.75V2.75C21.75 1.53125 22.6875 0.5 24 0.5C25.2188 0.5 26.25 1.53125 26.25 2.75V6.5H30.75V2.75C30.75 1.53125 31.6875 0.5 33 0.5C34.2188 0.5 35.25 1.53125 35.25 2.75V6.5H36C39.2812 6.5 42 9.21875 42 12.5V13.25H45.75C46.9688 13.25 48 14.2812 48 15.5C48 16.8125 46.9688 17.75 45.75 17.75H42V22.25H45.75C46.9688 22.25 48 23.2812 48 24.5C48 25.8125 46.9688 26.75 45.75 26.75ZM37.5 36.5V12.5C37.5 11.75 36.75 11 36 11H12C11.1562 11 10.5 11.75 10.5 12.5V36.5C10.5 37.3438 11.1562 38 12 38H36C36.75 38 37.5 37.3438 37.5 36.5Z" fill="black"/>
    </svg>
    