<svg width="61" height="43" viewBox="0 0 61 43" fill="none" xmlns="http://www.w3.org/2000/svg">
    <path
        d="M48 5H6C5.15625 5 4.5 5.75 4.5 6.5V30.5C4.5 31.3438 5.15625 32 6 32H32.625C32.0625 32.75 31.6875 33.5 31.5 34.3438L30.9375 36.5H6C2.625 36.5 0 33.875 0 30.5V6.5C0 3.21875 2.625 0.5 6 0.5H48C51.2812 0.5 54 3.21875 54 6.5V12.5938C52.5 12.7812 51.1875 13.4375 50.0625 14.5625L49.5 15.125V6.5C49.5 5.75 48.75 5 48 5ZM24 22.25C24 21.0312 24.9375 20 26.25 20H30.75C31.9688 20 33 21.0312 33 22.25C33 23.5625 31.9688 24.5 30.75 24.5H26.25C24.9375 24.5 24 23.5625 24 22.25ZM39.75 11C40.9688 11 42 12.0312 42 13.25C42 14.5625 40.9688 15.5 39.75 15.5H26.25C24.9375 15.5 24 14.5625 24 13.25C24 12.0312 24.9375 11 26.25 11H39.75ZM14.9062 7.625C16.0312 7.625 16.875 8.46875 16.875 9.5V10.1562C17.4375 10.25 18.375 10.4375 18.8438 10.5312C19.7812 10.8125 20.4375 11.8438 20.1562 12.875C19.875 13.8125 18.8438 14.4688 17.8125 14.1875C17.5312 14.0938 16.2188 13.8125 15.8438 13.7188C14.625 13.625 13.6875 13.7188 13.125 14C12.5625 14.2812 12.375 14.5625 12.375 14.75C12.2812 15.125 12.375 15.2188 12.375 15.2188C12.375 15.3125 12.4688 15.4062 12.75 15.5938C13.3125 15.9688 14.1562 16.25 15.4688 16.625H15.5625C16.6875 17 18.2812 17.4688 19.4062 18.3125C19.9688 18.7812 20.625 19.3438 21 20.1875C21.375 21.0312 21.375 21.9688 21.2812 23C20.9062 24.7812 19.7812 26 18.2812 26.5625C17.8125 26.75 17.3438 26.9375 16.875 27.0312V27.5C16.875 28.625 16.0312 29.4688 14.9062 29.4688C13.875 29.4688 13.0312 28.625 13.0312 27.5V26.9375C12.1875 26.75 10.9688 26.375 10.3125 26.0938C10.125 26 9.9375 26 9.84375 25.9062C8.90625 25.625 8.34375 24.5938 8.71875 23.5625C9 22.625 10.0312 22.0625 11.0625 22.3438C11.25 22.4375 11.4375 22.5312 11.625 22.625C12.5625 22.9062 13.5 23.1875 14.0625 23.2812C15.2812 23.4688 16.2188 23.375 16.7812 23.1875C17.3438 22.9062 17.5312 22.625 17.5312 22.3438C17.625 21.9688 17.5312 21.7812 17.5312 21.6875C17.5312 21.5938 17.4375 21.5 17.1562 21.3125C16.5938 20.9375 15.75 20.6562 14.4375 20.1875H14.25C13.125 19.8125 11.7188 19.4375 10.5938 18.6875C10.0312 18.2188 9.375 17.6562 9 16.8125C8.625 15.9688 8.53125 15.0312 8.625 14.0938C9 12.4062 10.2188 11.1875 11.625 10.625C12 10.3438 12.5625 10.25 13.0312 10.0625V9.5C13.0312 8.46875 13.875 7.625 14.9062 7.625ZM58.875 18.0312C60.2812 19.4375 60.2812 21.7812 58.875 23.2812L56.0625 26.0938L49.4062 19.4375L52.2188 16.625C53.625 15.2188 56.0625 15.2188 57.4688 16.625L58.875 18.0312ZM35.1562 33.5938L47.3438 21.5L54 28.1562L41.8125 40.25C41.4375 40.625 40.9688 40.9062 40.5 41.0938L34.7812 42.5C34.3125 42.5938 33.75 42.5 33.375 42.125C33 41.75 32.9062 41.1875 33 40.625L34.4062 35C34.5 34.5312 34.7812 34.0625 35.1562 33.5938Z"
        fill="black" />
</svg>
    