<svg width="48" height="48" viewBox="0 0 48 48" fill="none" xmlns="http://www.w3.org/2000/svg">
<path d="M30 2.25C30 1.03125 30.9375 0 32.25 0H42.75C43.9688 0 45 1.03125 45 2.25V12.75C45 14.0625 43.9688 15 42.75 15C41.4375 15 40.5 14.0625 40.5 12.75V7.6875L28.5 19.5938C27.75 20.4375 26.3438 20.5312 25.5 19.7812L16.5 12L6.65625 20.5312C5.71875 21.2812 4.3125 21.1875 3.46875 20.25C2.71875 19.3125 2.8125 17.9062 3.75 17.0625L15 7.3125C15.8438 6.65625 17.0625 6.65625 17.9062 7.3125L26.8125 15L37.3125 4.5H32.25C30.9375 4.5 30 3.5625 30 2.25ZM18 36C18 32.7188 20.625 30 24 30C27.2812 30 30 32.7188 30 36C30 39.375 27.2812 42 24 42C20.625 42 18 39.375 18 36ZM43.5 24C45.9375 24 48 26.0625 48 28.5V43.5C48 46.0312 45.9375 48 43.5 48H4.5C1.96875 48 0 46.0312 0 43.5V28.5C0 26.0625 1.96875 24 4.5 24H43.5ZM4.5 33.75V38.3438C7.125 38.7188 9.28125 40.7812 9.65625 43.5H38.25C38.625 40.7812 40.7812 38.7188 43.5 38.3438V33.75C40.7812 33.375 38.625 31.2188 38.25 28.5H9.65625C9.28125 31.2188 7.125 33.375 4.5 33.75Z" fill="black"/>
</svg>
