<svg width="570" height="577" viewBox="0 0 570 577" fill="none" xmlns="http://www.w3.org/2000/svg">
    <path
        d="M117.708 419.91C31.1041 362.781 67.1681 277.773 113.441 210.165C137.284 175.33 169.037 194.496 198.414 143.354C227.791 92.212 291.786 69.4061 309.805 74.3104C333.986 75.9554 397.031 97.1244 455.761 168.641C529.174 258.036 496.076 304.416 467.368 358.52C438.66 412.623 423.612 382.359 387.488 445.812C346.821 517.244 313.812 517.853 283.821 510.465C253.83 503.078 204.313 477.038 117.708 419.91Z"
        fill="#F2F2F2" />
    <path
        d="M249.999 498.486C147.539 514.796 116.766 427.734 105.27 346.617C99.3463 304.822 135.711 297.528 122.864 239.965C110.016 182.403 141.838 122.378 158.442 113.834C177.394 98.7251 238.198 71.7872 329.804 84.908C444.311 101.309 451.199 157.87 466.539 217.166C481.879 276.462 450.348 264.291 466.527 335.491C484.741 415.645 460.798 438.376 433.684 453.17C406.569 467.964 352.458 482.176 249.999 498.486Z"
        fill="#D7F0EE" />
    <path
        d="M326.198 383.181C326.198 419.897 342.124 435.701 377.387 435.701C412.651 435.701 428.241 419.897 428.241 383.181C428.241 346.462 394.037 294.472 377.387 294.472C361.886 294.472 326.198 346.462 326.198 383.181Z"
        fill="#35B6AA" />
    <path
        d="M377.426 473.037C376.021 473.037 374.855 472.122 374.855 471.019V360.319C374.855 359.216 376.021 358.301 377.426 358.301C378.835 358.301 380 359.216 380 360.319V471.019C380 472.122 378.835 473.037 377.426 473.037Z"
        fill="#292929" />
    <path
        d="M377.43 380.571C376.777 380.571 376.125 380.383 375.608 379.978C374.616 379.199 374.616 377.908 375.608 377.126L406.671 352.787C407.667 352.008 409.312 352.008 410.307 352.787C411.303 353.568 411.303 354.859 410.307 355.638L379.247 379.978C378.734 380.383 378.082 380.571 377.43 380.571Z"
        fill="#292929" />
    <path
        d="M377.429 392.943C376.777 392.943 376.125 392.755 375.612 392.352L345.273 368.576C344.278 367.794 344.278 366.503 345.273 365.724C346.266 364.943 347.914 364.943 348.909 365.724L379.251 389.5C380.243 390.279 380.243 391.57 379.251 392.352C378.734 392.755 378.082 392.943 377.429 392.943Z"
        fill="#292929" />
    <path
        d="M377.43 407.737C376.777 407.737 376.125 407.549 375.608 407.146C374.616 406.365 374.616 405.074 375.608 404.295L402.279 383.395C403.275 382.613 404.923 382.613 405.918 383.395C406.914 384.174 406.914 385.465 405.918 386.246L379.247 407.146C378.734 407.549 378.082 407.737 377.43 407.737Z"
        fill="#292929" />
    <path
        d="M377.429 421.991C376.881 421.991 376.333 421.857 375.851 421.56L347.74 404.562C346.609 403.89 346.401 402.624 347.261 401.736C348.118 400.851 349.732 400.687 350.863 401.36L378.976 418.361C380.108 419.033 380.312 420.297 379.455 421.184C378.942 421.696 378.186 421.963 377.429 421.963V421.991Z"
        fill="#292929" />
    <path
        d="M378.286 436.622C377.634 436.622 376.982 436.434 376.468 436.031C375.473 435.249 375.473 433.959 376.468 433.18L401.422 413.625C402.418 412.843 404.065 412.843 405.061 413.625C406.057 414.404 406.057 415.694 405.061 416.476L380.107 436.031C379.591 436.434 378.938 436.622 378.286 436.622Z"
        fill="#292929" />
    <path
        d="M400.534 178.133C399.836 178.358 399.595 178.107 399.317 177.977C393.434 175.222 387.371 172.909 380.789 171.882C378.52 171.528 376.259 171.447 374.027 172.086C370.248 173.175 368.964 175.093 369.549 178.664C369.993 181.337 371.007 183.848 372.209 186.31C372.615 187.147 373.036 187.97 373.524 188.936C373.013 188.793 372.901 188.474 372.72 188.242C370.796 185.827 368.881 183.419 366.386 181.446C365.47 180.725 364.501 180.065 363.404 179.63C361.15 178.739 359.301 179.072 357.34 180.739C355.177 182.569 353.847 184.882 352.923 187.392C351.195 192.12 350.443 197.01 350.12 201.969C350.045 203.133 349.94 204.295 349.624 205.466C349.527 204.146 349.444 202.826 349.331 201.513C348.918 196.418 348.182 191.378 346.198 186.555C345.282 184.324 343.997 182.297 342.044 180.658C339.955 178.903 337.836 178.684 335.357 179.984C332.712 181.372 330.782 183.433 328.933 185.575C327.986 186.677 327.092 187.814 326.04 188.854C326.837 187.126 327.686 185.419 328.414 183.671C329.279 181.603 330.008 179.487 330 177.236C329.985 174.658 328.828 173.195 326.146 172.297C323.283 171.345 320.391 171.549 317.483 172.073C314.507 172.61 311.593 173.358 308.821 174.453C307.843 174.841 306.754 175.046 305.837 175.76C305.251 176.215 304.124 176.297 303.268 176.657C301.863 177.256 300.42 177.78 299.091 178.508C298.858 178.637 298.565 178.684 298.264 178.712C299.121 178.005 300.06 177.365 301.021 176.855C303.448 175.569 305.627 173.998 307.814 172.433C310.841 170.277 313.636 167.91 315.883 165.046C316.964 163.665 317.799 162.175 318.28 160.529C319.061 157.829 318.069 155.795 315.356 154.489C313.148 153.421 310.751 152.89 308.302 152.53C306.416 152.251 304.515 152.067 302.607 151.931C302.607 151.856 302.592 151.788 302.584 151.713C303.448 151.625 304.305 151.543 305.161 151.448C307.971 151.149 310.796 150.877 313.433 149.87C314.53 149.448 315.695 149.095 316.641 148.407C318.482 147.061 318.805 145.258 318.324 143.292C317.61 140.367 315.68 138.068 313.516 135.918C311.255 133.667 308.76 131.619 306.003 129.898C303.689 128.449 301.6 126.694 299.061 125.545C298.828 125.443 298.625 125.3 298.58 124.892C299.864 125.477 301.059 126.014 302.254 126.558C304.831 127.728 307.543 128.613 310.218 129.565C312.967 130.544 315.755 131.252 318.633 131.728C321.172 132.15 323.681 132.123 326.138 131.32C328.858 130.436 330.037 128.925 329.993 126.3C329.955 124.123 329.309 122.048 328.452 120.035C327.761 118.416 326.957 116.831 326.213 115.232C326.146 115.083 325.98 114.94 326.146 114.654C327.092 115.811 327.986 116.953 328.933 118.055C330.789 120.225 332.787 122.259 335.432 123.701C337.807 124.994 340.316 124.429 342.435 122.524C345.703 119.579 346.762 115.872 347.784 112.103C348.956 107.804 349.324 103.389 349.534 98.9747C349.542 98.7434 349.572 98.5053 349.602 98.2741C349.602 98.2332 349.684 98.206 349.827 98.104C349.925 99.2604 350.045 100.356 350.105 101.451C350.398 106.437 351.127 111.362 352.878 116.117C353.802 118.62 355.049 120.953 357.22 122.831C359.226 124.572 361.675 124.926 364.072 123.66C366.739 122.252 368.693 120.157 370.572 118.001C371.51 116.919 372.382 115.797 373.434 114.77C372.743 116.239 372.044 117.715 371.36 119.185C370.474 121.096 369.843 123.075 369.534 125.123C368.971 128.891 370.932 131.136 375.267 131.803C378.13 132.245 380.909 131.789 383.667 131.204C386.544 130.592 389.302 129.647 392.037 128.647C395.019 127.551 397.867 126.191 400.789 124.994C400.977 124.919 401.143 124.674 401.383 124.878C401.436 124.919 401.436 125.048 401.413 125.13C401.338 125.395 401.113 125.266 400.932 125.273C400.579 125.273 400.339 125.504 400.076 125.667C398.393 126.708 396.74 127.796 395.087 128.878C393.044 130.218 391.008 131.565 389.129 133.102C386.176 135.524 383.419 138.102 381.789 141.476C381.413 142.258 381.105 143.074 381.007 143.931C380.706 146.55 381.871 148.244 384.614 149.387C387.679 150.666 390.947 151.108 394.253 151.455C395.117 151.543 395.989 151.611 396.875 151.897C396.019 151.986 395.169 152.081 394.313 152.162C391.3 152.468 388.325 152.89 385.47 153.883C384.028 154.387 382.81 155.176 381.864 156.196C380.767 157.373 380.782 158.883 381.142 160.332C381.864 163.25 383.787 165.556 385.951 167.706C389.414 171.141 393.547 173.869 397.717 176.536C398.558 177.073 399.467 177.542 400.519 178.14L400.534 178.133Z"
        fill="#FBE0B3" />
    <path
        d="M349.624 205.969C349.624 205.969 349.594 205.969 349.579 205.969C349.301 205.948 349.084 205.744 349.068 205.492L348.978 204.248C348.918 203.343 348.85 202.445 348.775 201.547C348.407 197.058 347.753 191.786 345.68 186.725C344.696 184.331 343.381 182.467 341.668 181.025C339.759 179.419 337.904 179.235 335.642 180.419C333.035 181.786 331.119 183.868 329.376 185.882C329.121 186.181 328.865 186.48 328.61 186.786C327.934 187.589 327.235 188.418 326.453 189.194C326.266 189.378 325.965 189.412 325.732 189.283C325.5 189.146 325.409 188.888 325.514 188.657C325.762 188.126 326.01 187.595 326.258 187.065C326.807 185.895 327.378 184.691 327.881 183.487C328.692 181.541 329.436 179.44 329.429 177.236C329.414 174.889 328.407 173.597 325.942 172.774C323.005 171.794 320.067 172.12 317.588 172.569C314.365 173.154 311.562 173.923 309.038 174.916C308.76 175.025 308.467 175.127 308.174 175.222C307.46 175.46 306.784 175.685 306.198 176.14C305.754 176.487 305.131 176.644 304.537 176.8C304.177 176.896 303.809 176.984 303.501 177.12C303.14 177.27 302.779 177.419 302.419 177.569C301.397 177.984 300.337 178.419 299.368 178.95C299.038 179.133 298.662 179.188 298.316 179.229C298.076 179.256 297.843 179.133 297.738 178.93C297.633 178.726 297.693 178.494 297.873 178.344C298.767 177.603 299.751 176.943 300.728 176.426C302.997 175.229 305.086 173.732 307.114 172.29L307.46 172.046C310.923 169.576 313.455 167.264 315.416 164.76C316.536 163.332 317.295 161.91 317.723 160.413C318.437 157.937 317.572 156.155 315.078 154.951C312.734 153.815 310.172 153.339 308.196 153.046C306.513 152.795 304.665 152.604 302.546 152.455C302.268 152.434 302.05 152.237 302.028 151.992L302.005 151.774C301.983 151.496 302.201 151.257 302.501 151.223L303.32 151.142C303.906 151.081 304.492 151.026 305.086 150.965L305.341 150.938C307.986 150.659 310.721 150.373 313.2 149.421C313.395 149.346 313.598 149.271 313.801 149.196C314.71 148.863 315.567 148.55 316.273 148.026C317.761 146.938 318.249 145.428 317.761 143.414C317.062 140.537 315.101 138.279 313.087 136.279C310.751 133.952 308.256 131.952 305.672 130.333C304.883 129.837 304.109 129.306 303.365 128.789C301.923 127.789 300.435 126.755 298.79 126.014C298.482 125.878 298.069 125.619 298.001 124.953C297.978 124.769 298.076 124.585 298.241 124.483C298.414 124.375 298.632 124.361 298.812 124.449L302.486 126.116C304.552 127.048 306.739 127.817 308.865 128.558C309.383 128.735 309.894 128.919 310.405 129.102C313.095 130.061 315.815 130.755 318.715 131.238C321.405 131.687 323.764 131.558 325.927 130.85C328.437 130.034 329.443 128.721 329.406 126.32C329.376 124.497 328.895 122.565 327.903 120.232C327.445 119.157 326.927 118.069 326.423 117.021C326.168 116.497 325.92 115.974 325.672 115.443C325.56 115.246 325.349 114.899 325.635 114.423C325.724 114.273 325.898 114.171 326.093 114.157C326.288 114.144 326.469 114.225 326.581 114.361C326.882 114.729 327.167 115.089 327.46 115.45C328.092 116.232 328.715 117.001 329.354 117.756C331.074 119.769 333.035 121.83 335.702 123.279C337.746 124.395 339.992 124 342.021 122.177C345.244 119.273 346.251 115.572 347.22 111.994C348.407 107.634 348.753 103.158 348.955 98.9609C348.97 98.716 348.993 98.4643 349.023 98.2194C349.061 97.9678 349.256 97.8453 349.354 97.7841C349.384 97.7637 349.414 97.7433 349.459 97.7161C349.624 97.6004 349.842 97.5732 350.037 97.6481C350.233 97.7229 350.36 97.8861 350.375 98.0766C350.406 98.4439 350.443 98.8045 350.473 99.165C350.541 99.9336 350.616 100.689 350.653 101.437C350.991 107.165 351.863 111.783 353.403 115.967C354.478 118.885 355.77 120.892 357.596 122.47C359.459 124.082 361.653 124.347 363.771 123.225C366.386 121.837 368.34 119.728 370.113 117.695C370.376 117.395 370.632 117.089 370.887 116.783C371.547 116.001 372.232 115.191 373.006 114.436C373.193 114.253 373.494 114.219 373.726 114.355C373.959 114.491 374.042 114.756 373.937 114.98L373.291 116.355C372.81 117.368 372.337 118.382 371.863 119.402C370.969 121.327 370.36 123.286 370.075 125.211C369.549 128.694 371.277 130.694 375.342 131.32C378.219 131.762 381.075 131.245 383.524 130.728C386.214 130.157 388.783 129.299 391.811 128.191C393.666 127.51 395.507 126.708 397.281 125.939C398.362 125.47 399.452 124.994 400.541 124.545C401.12 124.157 401.518 124.32 401.758 124.517C401.999 124.721 402.014 125.048 401.946 125.272C401.886 125.47 401.683 125.912 400.962 125.803C400.834 125.796 400.729 125.864 400.564 125.973C400.504 126.014 400.444 126.055 400.376 126.096C398.686 127.143 397.018 128.238 395.403 129.299C393.524 130.531 391.398 131.925 389.497 133.49C386.709 135.775 383.907 138.353 382.291 141.693C381.871 142.571 381.638 143.299 381.555 143.999C381.285 146.353 382.299 147.877 384.839 148.945C387.882 150.217 391.18 150.638 394.305 150.965L394.553 150.992C395.357 151.074 396.191 151.162 397.048 151.434C397.296 151.509 397.453 151.734 397.423 151.972C397.393 152.21 397.19 152.393 396.928 152.421L394.365 152.686C391.533 152.978 388.52 153.38 385.665 154.38C384.32 154.849 383.186 155.577 382.284 156.543C381.465 157.42 381.278 158.597 381.683 160.236C382.405 163.162 384.456 165.488 386.356 167.379C389.737 170.733 393.809 173.433 398.032 176.134C398.58 176.487 399.182 176.814 399.813 177.168C400.135 177.345 400.466 177.528 400.812 177.726C400.992 177.828 401.097 178.018 401.075 178.215C401.052 178.412 400.909 178.576 400.707 178.637C399.873 178.902 399.414 178.658 399.144 178.507C399.114 178.487 399.076 178.474 399.046 178.453C392.006 175.154 386.349 173.29 380.684 172.406C378.099 172.005 376.04 172.059 374.193 172.597C370.699 173.604 369.557 175.29 370.105 178.616C370.578 181.487 371.751 184.14 372.72 186.133C372.99 186.698 373.276 187.256 373.577 187.861L374.027 188.759C374.117 188.943 374.079 189.16 373.937 189.31C373.787 189.46 373.561 189.52 373.344 189.46C372.735 189.29 372.494 188.929 372.337 188.697C372.307 188.657 372.284 188.616 372.254 188.582C370.376 186.221 368.445 183.8 366.003 181.875C364.929 181.025 364.057 180.494 363.163 180.14C361.127 179.337 359.489 179.637 357.709 181.154C355.845 182.732 354.448 184.84 353.441 187.595C351.916 191.773 351.029 196.364 350.669 202.044C350.586 203.363 350.466 204.479 350.158 205.629C350.097 205.86 349.864 206.016 349.609 206.016L349.624 205.969ZM338.362 178.637C339.782 178.637 341.127 179.181 342.426 180.276C344.275 181.827 345.68 183.82 346.724 186.371C348.572 190.874 349.324 195.527 349.729 199.663C350.173 194.915 351.029 190.922 352.382 187.235C353.448 184.317 354.944 182.072 356.949 180.372C359.083 178.562 361.142 178.188 363.629 179.167C364.914 179.671 365.973 180.446 366.762 181.065C368.467 182.413 369.91 183.963 371.255 185.562C370.368 183.65 369.429 181.29 369.009 178.746C368.37 174.903 369.827 172.767 373.869 171.603C375.898 171.018 378.13 170.95 380.894 171.379C385.53 172.107 390.15 173.467 395.485 175.698C391.901 173.358 388.482 170.95 385.552 168.039C383.547 166.053 381.39 163.59 380.608 160.434C380.128 158.482 380.398 156.985 381.45 155.856C382.472 154.754 383.764 153.931 385.29 153.4C387.784 152.53 390.361 152.094 392.84 151.802C390.038 151.475 387.137 150.985 384.395 149.843C381.39 148.584 380.143 146.686 380.466 143.87C380.556 143.067 380.819 142.238 381.293 141.265C382.99 137.755 385.89 135.081 388.768 132.714C390.721 131.116 392.871 129.701 394.771 128.456C395.229 128.157 395.688 127.851 396.154 127.551C394.876 128.095 393.577 128.64 392.254 129.123C389.174 130.252 386.559 131.122 383.802 131.707C381.247 132.252 378.257 132.789 375.177 132.313C370.518 131.592 368.377 129.089 368.978 125.062C369.279 123.041 369.91 121.001 370.849 118.987C371.007 118.647 371.172 118.3 371.33 117.96C371.232 118.076 371.127 118.198 371.022 118.314C369.181 120.429 367.153 122.619 364.365 124.096C361.803 125.449 359.061 125.123 356.837 123.198C354.899 121.518 353.471 119.32 352.352 116.28C351.022 112.674 350.18 108.756 349.744 104.124C349.482 106.804 349.061 109.532 348.332 112.226C347.37 115.77 346.274 119.783 342.833 122.885C340.443 125.041 337.641 125.497 335.139 124.136C332.313 122.599 330.27 120.456 328.482 118.368C328.354 118.218 328.227 118.069 328.099 117.912C328.399 118.552 328.692 119.198 328.97 119.851C330.015 122.3 330.51 124.347 330.548 126.293C330.593 129.136 329.293 130.83 326.326 131.803C323.966 132.571 321.412 132.714 318.527 132.231C315.552 131.735 312.772 131.02 310.007 130.041C309.496 129.857 308.985 129.68 308.467 129.504C306.919 128.966 305.334 128.408 303.786 127.783C303.876 127.844 303.966 127.912 304.056 127.973C304.793 128.483 305.552 129.007 306.318 129.49C308.97 131.15 311.533 133.204 313.921 135.585C316.04 137.694 318.099 140.074 318.857 143.19C319.444 145.584 318.813 147.475 316.979 148.815C316.138 149.428 315.161 149.788 314.222 150.135C314.027 150.21 313.831 150.278 313.636 150.353C311.397 151.21 309.023 151.55 306.686 151.808C307.264 151.876 307.82 151.951 308.369 152.033C310.428 152.339 313.102 152.842 315.597 154.046C318.535 155.468 319.639 157.754 318.805 160.672C318.339 162.291 317.528 163.821 316.325 165.352C314.305 167.937 311.705 170.318 308.151 172.848L307.806 173.093C306.415 174.079 304.996 175.093 303.501 176.025C303.741 175.95 303.981 175.889 304.222 175.828C304.725 175.698 305.199 175.576 305.454 175.378C306.19 174.801 306.994 174.535 307.776 174.276C308.046 174.188 308.316 174.099 308.58 173.991C311.179 172.964 314.049 172.174 317.355 171.576C319.992 171.1 323.117 170.76 326.318 171.821C329.226 172.787 330.526 174.46 330.541 177.236C330.556 179.603 329.775 181.813 328.925 183.847C328.67 184.453 328.407 185.059 328.129 185.657C328.241 185.521 328.354 185.391 328.474 185.256C330.277 183.161 332.276 180.997 335.063 179.535C336.206 178.936 337.295 178.637 338.354 178.637H338.362Z"
        fill="#292929" />
    <path
        d="M324.747 152.142C324.658 164.244 335.589 174.787 349.834 175.005C362.952 175.202 376.461 165.1 375.319 150.258C374.507 139.721 364.748 129.205 349.954 129.164C336.16 129.123 324.604 139.449 324.755 152.142H324.747Z"
        fill="#F6B140" />
    <path
        d="M350.202 175.522C350.075 175.522 349.946 175.522 349.819 175.522C335.589 175.304 324.086 164.821 324.177 152.149C324.101 145.924 326.761 140.04 331.652 135.578C336.566 131.095 343.064 128.633 349.946 128.653C365.138 128.694 375.064 139.653 375.875 150.223C376.394 156.958 373.922 163.298 368.918 168.08C364.019 172.76 357.047 175.522 350.202 175.522ZM349.864 129.674C343.313 129.674 337.129 132.02 332.449 136.292C327.767 140.557 325.235 146.183 325.304 152.135C325.213 164.263 336.22 174.29 349.834 174.494C356.483 174.596 363.32 171.93 368.099 167.372C372.885 162.808 375.244 156.74 374.748 150.292C373.966 140.19 364.477 129.714 349.94 129.674C349.917 129.674 349.886 129.674 349.864 129.674Z"
        fill="#292929" />
    <path
        d="M182.64 222.194C182.411 221.564 182.282 220.908 182.282 220.227C182.282 216.062 186.901 212.686 192.601 212.686C193.499 212.686 194.37 212.768 195.194 212.926C196.762 209.051 201.646 206.222 207.42 206.222C213.193 206.222 218.508 209.3 219.838 213.44C220.671 213.166 221.578 213.075 222.513 213.018C225.208 212.843 229.066 213.698 229.066 217.672C229.066 217.813 229.047 217.954 229.038 218.095C230.055 217.821 231.22 217.672 232.475 217.672C235.554 217.672 239.073 220.252 240.338 222.194H182.63H182.64Z"
        fill="white" />
    <path
        d="M333.838 246.953C334.162 245.935 334.344 244.876 334.344 243.777C334.344 237.05 327.809 231.596 319.743 231.596C318.473 231.596 317.241 231.729 316.075 231.984C313.857 225.727 306.946 221.157 298.777 221.157C290.609 221.157 283.089 226.128 281.208 232.815C280.028 232.373 278.745 232.226 277.423 232.132C273.61 231.85 268.151 233.231 268.151 239.649C268.151 239.877 268.177 240.105 268.191 240.333C266.751 239.891 265.104 239.649 263.328 239.649C258.972 239.649 253.992 243.817 252.203 246.953H333.851H333.838Z"
        fill="white" />
    <path
        d="M220.297 351.38C220.297 381.396 234.07 394.316 264.568 394.316C295.065 394.316 308.548 381.396 308.548 351.38C308.548 321.362 278.967 278.859 264.568 278.859C251.162 278.859 220.297 321.362 220.297 351.38Z"
        fill="#35B6AA" />
    <path
        d="M264.601 424.839C263.386 424.839 262.378 424.091 262.378 423.189V332.69C262.378 331.788 263.386 331.04 264.601 331.04C265.819 331.04 266.827 331.788 266.827 332.69V423.189C266.827 424.091 265.819 424.839 264.601 424.839Z"
        fill="#292929" />
    <path
        d="M264.604 349.246C264.04 349.246 263.476 349.092 263.029 348.761C262.171 348.124 262.171 347.069 263.029 346.43L289.893 326.532C290.754 325.895 292.177 325.895 293.038 326.532C293.899 327.171 293.899 328.226 293.038 328.863L266.176 348.761C265.732 349.092 265.168 349.246 264.604 349.246Z"
        fill="#292929" />
    <path
        d="M264.604 359.36C264.04 359.36 263.476 359.206 263.032 358.877L236.794 339.439C235.933 338.801 235.933 337.745 236.794 337.109C237.653 336.47 239.078 336.47 239.939 337.109L266.179 356.546C267.037 357.183 267.037 358.238 266.179 358.877C265.732 359.206 265.168 359.36 264.604 359.36Z"
        fill="#292929" />
    <path
        d="M264.604 371.455C264.04 371.455 263.476 371.301 263.029 370.972C262.171 370.333 262.171 369.278 263.029 368.641L286.095 351.555C286.956 350.916 288.381 350.916 289.242 351.555C290.103 352.192 290.103 353.247 289.242 353.886L266.176 370.972C265.732 371.301 265.168 371.455 264.604 371.455Z"
        fill="#292929" />
    <path
        d="M264.604 383.107C264.13 383.107 263.656 382.998 263.239 382.756L238.928 368.859C237.95 368.31 237.77 367.275 238.514 366.549C239.255 365.825 240.65 365.692 241.628 366.242L265.942 380.14C266.92 380.69 267.097 381.723 266.356 382.448C265.912 382.867 265.258 383.085 264.604 383.085V383.107Z"
        fill="#292929" />
    <path
        d="M265.345 395.069C264.781 395.069 264.217 394.915 263.773 394.586C262.912 393.947 262.912 392.892 263.773 392.255L285.353 376.268C286.214 375.629 287.64 375.629 288.501 376.268C289.362 376.905 289.362 377.96 288.501 378.599L266.92 394.586C266.473 394.915 265.909 395.069 265.345 395.069Z"
        fill="#292929" />
    <path
        d="M261.707 410.44C261.707 440.456 275.48 453.376 305.977 453.376C336.475 453.376 349.958 440.456 349.958 410.44C349.958 380.422 320.377 337.919 305.977 337.919C292.571 337.919 261.707 380.422 261.707 410.44Z"
        fill="#AEE2DD" />
    <path
        d="M306.011 483.898C304.796 483.898 303.788 483.15 303.788 482.249V391.749C303.788 390.848 304.796 390.1 306.011 390.1C307.229 390.1 308.237 390.848 308.237 391.749V482.249C308.237 483.15 307.229 483.898 306.011 483.898Z"
        fill="#292929" />
    <path
        d="M306.014 408.306C305.45 408.306 304.886 408.152 304.439 407.821C303.581 407.184 303.581 406.129 304.439 405.49L331.303 385.592C332.164 384.955 333.586 384.955 334.447 385.592C335.309 386.23 335.309 387.286 334.447 387.923L307.586 407.821C307.142 408.152 306.578 408.306 306.014 408.306Z"
        fill="#292929" />
    <path
        d="M306.014 418.42C305.45 418.42 304.886 418.266 304.442 417.937L278.204 398.499C277.343 397.861 277.343 396.805 278.204 396.169C279.063 395.53 280.488 395.53 281.349 396.169L307.589 415.606C308.447 416.243 308.447 417.298 307.589 417.937C307.142 418.266 306.578 418.42 306.014 418.42Z"
        fill="#292929" />
    <path
        d="M306.014 430.515C305.45 430.515 304.886 430.361 304.439 430.031C303.581 429.393 303.581 428.337 304.439 427.701L327.505 410.614C328.366 409.976 329.791 409.976 330.652 410.614C331.513 411.251 331.513 412.306 330.652 412.945L307.586 430.031C307.142 430.361 306.578 430.515 306.014 430.515Z"
        fill="#292929" />
    <path
        d="M306.014 442.167C305.54 442.167 305.066 442.058 304.649 441.815L280.338 427.919C279.36 427.369 279.18 426.334 279.924 425.609C280.665 424.885 282.06 424.751 283.038 425.301L307.352 439.2C308.33 439.749 308.507 440.782 307.766 441.508C307.322 441.927 306.668 442.145 306.014 442.145V442.167Z"
        fill="#292929" />
    <path
        d="M306.755 454.129C306.191 454.129 305.627 453.975 305.183 453.645C304.322 453.007 304.322 451.951 305.183 451.315L326.763 435.328C327.624 434.689 329.049 434.689 329.91 435.328C330.771 435.965 330.771 437.02 329.91 437.659L308.33 453.645C307.883 453.975 307.319 454.129 306.755 454.129Z"
        fill="#292929" />
    <path
        d="M175.493 409.656C175.493 446.372 191.419 462.176 226.683 462.176C261.947 462.176 277.537 446.372 277.537 409.656C277.537 372.937 243.333 320.947 226.683 320.947C211.182 320.947 175.493 372.937 175.493 409.656Z"
        fill="#35B6AA" />
    <path
        d="M226.722 499.512C225.317 499.512 224.151 498.597 224.151 497.494V386.794C224.151 385.691 225.317 384.776 226.722 384.776C228.13 384.776 229.296 385.691 229.296 386.794V497.494C229.296 498.597 228.13 499.512 226.722 499.512Z"
        fill="#292929" />
    <path
        d="M226.725 407.046C226.073 407.046 225.421 406.858 224.904 406.453C223.912 405.674 223.912 404.383 224.904 403.602L255.967 379.262C256.963 378.483 258.607 378.483 259.603 379.262C260.598 380.043 260.598 381.334 259.603 382.113L228.543 406.453C228.03 406.858 227.377 407.046 226.725 407.046Z"
        fill="#292929" />
    <path
        d="M226.725 419.418C226.073 419.418 225.421 419.23 224.907 418.827L194.569 395.051C193.573 394.269 193.573 392.979 194.569 392.2C195.562 391.418 197.209 391.418 198.205 392.2L228.546 415.976C229.539 416.755 229.539 418.045 228.546 418.827C228.03 419.23 227.377 419.418 226.725 419.418Z"
        fill="#292929" />
    <path
        d="M226.725 434.212C226.073 434.212 225.421 434.024 224.904 433.621C223.912 432.84 223.912 431.549 224.904 430.77L251.575 409.87C252.57 409.089 254.218 409.089 255.214 409.87C256.21 410.649 256.21 411.94 255.214 412.721L228.543 433.621C228.03 434.024 227.377 434.212 226.725 434.212Z"
        fill="#292929" />
    <path
        d="M226.725 448.466C226.177 448.466 225.629 448.332 225.147 448.035L197.036 431.037C195.905 430.365 195.697 429.099 196.557 428.211C197.414 427.326 199.027 427.162 200.158 427.835L228.272 444.836C229.403 445.508 229.608 446.772 228.751 447.66C228.237 448.171 227.481 448.438 226.725 448.438V448.466Z"
        fill="#292929" />
    <path
        d="M227.582 463.097C226.93 463.097 226.277 462.909 225.764 462.506C224.768 461.725 224.768 460.434 225.764 459.655L250.718 440.1C251.713 439.319 253.361 439.319 254.357 440.1C255.352 440.879 255.352 442.17 254.357 442.951L229.403 462.506C228.886 462.909 228.234 463.097 227.582 463.097Z"
        fill="#292929" />
</svg>
    