<svg width="76" height="76" viewBox="0 0 76 76" fill="none" xmlns="http://www.w3.org/2000/svg">
<g filter="url(#filter0_d_633_935)">
<rect x="12" y="11" width="52" height="52" rx="26" fill="white" shape-rendering="crispEdges"/>
<rect x="12.5" y="11.5" width="51" height="51" rx="25.5" stroke="#F5F5F5" shape-rendering="crispEdges"/>
<path d="M32.75 32.5C32.3281 32.5 32 32.1719 32 31.75C32 31.375 32.3281 31 32.75 31H35.75C36.125 31 36.5 31.375 36.5 31.75C36.5 32.1719 36.125 32.5 35.75 32.5H32.75ZM32.75 29.5C32.3281 29.5 32 29.1719 32 28.75C32 28.375 32.3281 28 32.75 28H35.75C36.125 28 36.5 28.375 36.5 28.75C36.5 29.1719 36.125 29.5 35.75 29.5H32.75ZM46.1094 30.9062C46.6719 31.4688 47 32.2188 47 33.0156V46C47 47.6875 45.6406 49 44 49H32C30.3125 49 29 47.6875 29 46V28C29 26.3594 30.3125 25 32 25H38.9844C39.7812 25 40.5312 25.3281 41.0938 25.8906L46.1094 30.9062ZM39.5 26.6406V31.75C39.5 32.1719 39.8281 32.5 40.25 32.5H45.3594C45.3125 32.3125 45.2188 32.125 45.0312 31.9375L40.0625 26.9688C39.875 26.7812 39.6875 26.6875 39.5 26.6406ZM45.5 46V34H40.25C38.9844 34 38 33.0156 38 31.75V26.5H32C31.1562 26.5 30.5 27.2031 30.5 28V46C30.5 46.8438 31.1562 47.5 32 47.5H44C44.7969 47.5 45.5 46.8438 45.5 46ZM32 37.75C32 36.9531 32.6562 36.25 33.5 36.25H42.5C43.2969 36.25 44 36.9531 44 37.75V40.75C44 41.5938 43.2969 42.25 42.5 42.25H33.5C32.6562 42.25 32 41.5938 32 40.75V37.75ZM42.5 40.75V37.75H33.5V40.75H42.5ZM43.25 44.5C43.625 44.5 44 44.875 44 45.25C44 45.6719 43.625 46 43.25 46H40.25C39.8281 46 39.5 45.6719 39.5 45.25C39.5 44.875 39.8281 44.5 40.25 44.5H43.25Z" fill="black"/>
</g>
<defs>
<filter id="filter0_d_633_935" x="0" y="0" width="76" height="76" filterUnits="userSpaceOnUse" color-interpolation-filters="sRGB">
<feFlood flood-opacity="0" result="BackgroundImageFix"/>
<feColorMatrix in="SourceAlpha" type="matrix" values="0 0 0 0 0 0 0 0 0 0 0 0 0 0 0 0 0 0 127 0" result="hardAlpha"/>
<feOffset dy="1"/>
<feGaussianBlur stdDeviation="6"/>
<feComposite in2="hardAlpha" operator="out"/>
<feColorMatrix type="matrix" values="0 0 0 0 0 0 0 0 0 0 0 0 0 0 0 0 0 0 0.12 0"/>
<feBlend mode="normal" in2="BackgroundImageFix" result="effect1_dropShadow_633_935"/>
<feBlend mode="normal" in="SourceGraphic" in2="effect1_dropShadow_633_935" result="shape"/>
</filter>
</defs>
</svg>
