<svg width="28" height="25" viewBox="0 0 28 25" fill="none" xmlns="http://www.w3.org/2000/svg">
	<path d="M14.5 10.4111H18V8.41113H16V7.41113H14V8.46113C13.3924 8.58451 12.8523 8.92923 12.4846 9.4284C12.1169 9.92756 11.9478 10.5455 12.0101 11.1624C12.0724 11.7792 12.3617 12.3509 12.8218 12.7664C13.2819 13.182 13.88 13.4118 14.5 13.4111H15.5C15.6326 13.4111 15.7598 13.4638 15.8535 13.5576C15.9473 13.6513 16 13.7785 16 13.9111C16 14.0437 15.9473 14.1709 15.8535 14.2647C15.7598 14.3585 15.6326 14.4111 15.5 14.4111H12V16.4111H14V17.4111H16V16.3611C16.6076 16.2378 17.1476 15.893 17.5153 15.3939C17.883 14.8947 18.0521 14.2767 17.9898 13.6599C17.9275 13.043 17.6383 12.4714 17.1782 12.0558C16.7181 11.6403 16.12 11.4105 15.5 11.4111H14.5C14.3674 11.4111 14.2402 11.3585 14.1464 11.2647C14.0527 11.1709 14 11.0437 14 10.9111C14 10.7785 14.0527 10.6513 14.1464 10.5576C14.2402 10.4638 14.3674 10.4111 14.5 10.4111Z" fill="black"/>
	<path d="M27 9.41113H24.98C24.9513 8.62106 24.7607 7.84529 24.4201 7.13182C24.0796 6.41834 23.5962 5.78233 23 5.26313V1.41113C23 1.22542 22.9483 1.04338 22.8507 0.885402C22.753 0.727426 22.6133 0.599759 22.4472 0.516706C22.2811 0.433653 22.0952 0.398496 21.9102 0.415174C21.7252 0.431852 21.5486 0.499706 21.4 0.611133L17.667 3.41113H13C7.49 3.41113 3.537 6.65213 3.052 11.4111H3C2.73478 11.4111 2.48043 11.3058 2.29289 11.1182C2.10536 10.9307 2 10.6763 2 10.4111V8.41113H0V10.4111C0.000794215 11.2065 0.31712 11.9691 0.879557 12.5316C1.44199 13.094 2.20459 13.4103 3 13.4111H3.07C3.21502 14.7224 3.64118 15.987 4.3194 17.1185C4.99762 18.2501 5.91195 19.2221 7 19.9681V23.4111C7 23.6763 7.10536 23.9307 7.29289 24.1182C7.48043 24.3058 7.73478 24.4111 8 24.4111H12C12.2652 24.4111 12.5196 24.3058 12.7071 24.1182C12.8946 23.9307 13 23.6763 13 23.4111V21.4111H16V23.4111C16 23.6763 16.1054 23.9307 16.2929 24.1182C16.4804 24.3058 16.7348 24.4111 17 24.4111H21C21.2652 24.4111 21.5196 24.3058 21.7071 24.1182C21.8946 23.9307 22 23.6763 22 23.4111V20.0481C22.7223 19.7057 23.3539 19.198 23.8437 18.5662C24.3334 17.9343 24.6675 17.1961 24.819 16.4111H27C27.2652 16.4111 27.5196 16.3058 27.7071 16.1182C27.8946 15.9307 28 15.6763 28 15.4111V10.4111C28 10.1459 27.8946 9.89156 27.7071 9.70403C27.5196 9.51649 27.2652 9.41113 27 9.41113ZM26 14.4111H23.124C22.819 17.1641 22.3 17.8961 20 18.7261V22.4111H18V19.4111H11V22.4111H9V18.7891C7.7959 18.2163 6.78007 17.312 6.07161 16.1824C5.36314 15.0527 4.99141 13.7445 5 12.4111C5 7.57613 9.018 5.41113 13 5.41113H18.333L21 3.41113V6.18713C23.418 8.04713 22.913 9.37313 23.018 11.4111H26V14.4111Z" fill="black"/>
	</svg>
	