<svg width="54" height="48" viewBox="0 0 54 48" fill="none" xmlns="http://www.w3.org/2000/svg">
	<path d="M18.375 9.1875C17.25 8.8125 16.5938 7.5 17.0625 6.375C18.2812 2.71875 21.8438 0 25.9688 0C30 0 33.5625 2.71875 34.875 6.375C35.25 7.5 34.5938 8.8125 33.4688 9.1875C32.25 9.65625 31.0312 9 30.5625 7.875C29.9062 5.90625 28.125 4.5 25.9688 4.5C23.8125 4.5 21.9375 5.90625 21.2812 7.875C20.8125 9 19.5938 9.65625 18.375 9.1875ZM37.5 24.75C37.5 23.5312 38.4375 22.5 39.75 22.5C40.9688 22.5 42 23.5312 42 24.75C42 26.0625 40.9688 27 39.75 27C38.4375 27 37.5 26.0625 37.5 24.75ZM21 12H35.25C36.9375 10.2188 39.2812 9 42 9H43.5938C45 9 46.125 10.4062 45.75 11.8125L45 15C46.9688 16.5938 48.6562 18.6562 49.6875 21H51C52.5938 21 54 22.4062 54 24V33C54 34.6875 52.5938 36 51 36H48C46.7812 37.6875 45.1875 39 43.5 40.0312V43.5C43.5 46.0312 41.4375 48 39 48H34.5C31.9688 48 30 46.0312 30 43.5V42H25.5V43.5C25.5 46.0312 23.4375 48 21 48H16.5C13.9688 48 12 46.0312 12 43.5V39C8.4375 36.4688 6.1875 32.3438 6 27.75C2.53125 27.2812 0 24.375 0 20.9062C0 18.2812 1.40625 15.9375 3.75 14.7188L4.21875 14.5312C5.34375 13.9688 6.65625 14.4375 7.21875 15.5625C7.78125 16.6875 7.3125 18 6.1875 18.5625L5.8125 18.75C4.96875 19.2188 4.5 19.9688 4.5 20.9062C4.5 22.125 5.34375 23.0625 6.46875 23.25C8.15625 16.7812 13.9688 12 21 12ZM21 16.5C15.1875 16.5 10.5 21.2812 10.5 27C10.5 30.4688 12.0938 33.5625 14.625 35.4375C15.75 36.2812 16.5 37.5938 16.5 39V43.5H21V42C21 39.5625 22.9688 37.5 25.5 37.5H30C32.4375 37.5 34.5 39.5625 34.5 42V43.5H39V40.0312C39 38.4375 39.8438 36.9375 41.1562 36.0938C42.4688 35.4375 43.5 34.5 44.3438 33.375C45.1875 32.25 46.5 31.5 48 31.5H49.5V25.5C47.8125 25.4062 46.2188 24.375 45.5625 22.875C44.8125 21.1875 43.6875 19.6875 42.2812 18.6562C40.7812 17.5312 40.125 15.75 40.5938 13.9688L40.6875 13.7812C39.8438 13.9688 39.1875 14.4375 38.625 15C37.7812 16.0312 36.5625 16.5 35.25 16.5H21Z" fill="black"/>
	</svg>
	