<svg width="32" height="33" viewBox="0 0 32 33" fill="none" xmlns="http://www.w3.org/2000/svg">
	<g clip-path="url(#clip0_29_123)">
	<path fill-rule="evenodd" clip-rule="evenodd" d="M0 0.580078H2V30.5801H32V32.5801H0V0.580078ZM20 7.58008C20 7.31486 20.1054 7.06051 20.2929 6.87297C20.4804 6.68544 20.7348 6.58008 21 6.58008H29C29.2652 6.58008 29.5196 6.68544 29.7071 6.87297C29.8946 7.06051 30 7.31486 30 7.58008V15.5801C30 15.8453 29.8946 16.0996 29.7071 16.2872C29.5196 16.4747 29.2652 16.5801 29 16.5801C28.7348 16.5801 28.4804 16.4747 28.2929 16.2872C28.1054 16.0996 28 15.8453 28 15.5801V10.3801L20.774 19.2141C20.6855 19.3221 20.5755 19.4103 20.4508 19.4732C20.3262 19.536 20.1898 19.5721 20.0504 19.5791C19.911 19.5861 19.7717 19.5638 19.6414 19.5136C19.5111 19.4635 19.3928 19.3867 19.294 19.2881L14.12 14.1141L6.808 24.1681C6.64805 24.3715 6.41548 24.5049 6.15917 24.5405C5.90286 24.576 5.64276 24.5107 5.43354 24.3585C5.22432 24.2062 5.08226 23.9788 5.03722 23.724C4.99218 23.4692 5.04766 23.2068 5.192 22.9921L13.192 11.9921C13.2769 11.8751 13.3862 11.7779 13.5123 11.7073C13.6383 11.6366 13.7782 11.5941 13.9223 11.5827C14.0664 11.5713 14.2113 11.5912 14.3469 11.6412C14.4826 11.6911 14.6057 11.7699 14.708 11.8721L19.926 17.0921L26.89 8.58008H21C20.7348 8.58008 20.4804 8.47472 20.2929 8.28718C20.1054 8.09965 20 7.84529 20 7.58008Z" fill="black"/>
	</g>
	<defs>
	<clipPath id="clip0_29_123">
	<rect width="32" height="32" fill="white" transform="translate(0 0.580078)"/>
	</clipPath>
	</defs>
	</svg>
	