<svg width="49" height="48" viewBox="0 0 49 48" fill="none" xmlns="http://www.w3.org/2000/svg">
    <path
        d="M13.5 20.0001C13.054 20.0001 12.626 20.0681 12.2 20.1301C12.338 19.6661 12.48 19.1941 12.708 18.7701C12.936 18.1541 13.292 17.6201 13.646 17.0821C13.942 16.5001 14.464 16.1061 14.848 15.6081C15.25 15.1241 15.798 14.8021 16.232 14.4001C16.658 13.9801 17.216 13.7701 17.66 13.4741C18.124 13.2081 18.528 12.9141 18.96 12.7741L20.038 12.3301L20.986 11.9361L20.016 8.06006L18.822 8.34806C18.44 8.44406 17.974 8.55606 17.444 8.69006C16.902 8.79006 16.324 9.06406 15.68 9.31406C15.044 9.59806 14.308 9.79006 13.624 10.2461C12.936 10.6821 12.142 11.0461 11.442 11.6301C10.764 12.2321 9.94605 12.7541 9.34205 13.5201C8.68205 14.2361 8.03005 14.9881 7.52405 15.8441C6.93805 16.6601 6.54005 17.5561 6.12005 18.4421C5.74005 19.3281 5.43405 20.2341 5.18405 21.1141C4.71005 22.8781 4.49805 24.5541 4.41605 25.9881C4.34805 27.4241 4.38805 28.6181 4.47205 29.4821C4.50205 29.8901 4.55805 30.2861 4.59805 30.5601L4.64805 30.8961L4.70005 30.8841C5.05577 32.5457 5.87465 34.0727 7.06197 35.2884C8.24929 36.5041 9.75653 37.3588 11.4093 37.7537C13.0621 38.1486 14.7929 38.0675 16.4016 37.5197C18.0102 36.972 19.4309 35.98 20.4993 34.6586C21.5677 33.3372 22.2401 31.7403 22.4389 30.0527C22.6376 28.365 22.3545 26.6556 21.6223 25.1221C20.8901 23.5886 19.7387 22.2938 18.3014 21.3874C16.864 20.4809 15.1994 19.9999 13.5 20.0001ZM35.5 20.0001C35.054 20.0001 34.626 20.0681 34.2 20.1301C34.338 19.6661 34.48 19.1941 34.708 18.7701C34.936 18.1541 35.292 17.6201 35.646 17.0821C35.942 16.5001 36.464 16.1061 36.848 15.6081C37.25 15.1241 37.798 14.8021 38.232 14.4001C38.658 13.9801 39.216 13.7701 39.66 13.4741C40.124 13.2081 40.528 12.9141 40.96 12.7741L42.038 12.3301L42.986 11.9361L42.016 8.06006L40.822 8.34806C40.44 8.44406 39.974 8.55606 39.444 8.69006C38.902 8.79006 38.324 9.06406 37.68 9.31406C37.046 9.60006 36.308 9.79006 35.624 10.2481C34.936 10.6841 34.142 11.0481 33.442 11.6321C32.764 12.2341 31.946 12.7561 31.342 13.5201C30.682 14.2361 30.03 14.9881 29.524 15.8441C28.938 16.6601 28.54 17.5561 28.12 18.4421C27.74 19.3281 27.434 20.2341 27.184 21.1141C26.71 22.8781 26.498 24.5541 26.416 25.9881C26.348 27.4241 26.388 28.6181 26.472 29.4821C26.502 29.8901 26.558 30.2861 26.598 30.5601L26.648 30.8961L26.7 30.8841C27.0558 32.5457 27.8747 34.0727 29.062 35.2884C30.2493 36.5041 31.7565 37.3588 33.4093 37.7537C35.0621 38.1486 36.7929 38.0675 38.4016 37.5197C40.0102 36.972 41.4309 35.98 42.4993 34.6586C43.5677 33.3372 44.2401 31.7403 44.4389 30.0527C44.6376 28.365 44.3545 26.6556 43.6223 25.1221C42.8901 23.5886 41.7387 22.2938 40.3013 21.3874C38.864 20.4809 37.1994 19.9999 35.5 20.0001Z"
        fill="black" />
</svg>
    