<svg width="49" height="48" viewBox="0 0 49 48" fill="none" xmlns="http://www.w3.org/2000/svg">
    <g clip-path="url(#clip0_147_2768)">
    <path d="M24.7378 45C19.1682 45 13.8268 42.7875 9.88855 38.8492C5.95029 34.911 3.73779 29.5695 3.73779 24C3.73779 18.4305 5.95029 13.089 9.88855 9.15076C13.8268 5.21249 19.1682 3 24.7378 3C30.3073 3 35.6488 5.21249 39.587 9.15076C43.5253 13.089 45.7378 18.4305 45.7378 24C45.7378 29.5695 43.5253 34.911 39.587 38.8492C35.6488 42.7875 30.3073 45 24.7378 45ZM24.7378 48C31.103 48 37.2075 45.4714 41.7084 40.9706C46.2092 36.4697 48.7378 30.3652 48.7378 24C48.7378 17.6348 46.2092 11.5303 41.7084 7.02944C37.2075 2.52856 31.103 0 24.7378 0C18.3726 0 12.2681 2.52856 7.76723 7.02944C3.26636 11.5303 0.737793 17.6348 0.737793 24C0.737793 30.3652 3.26636 36.4697 7.76723 40.9706C12.2681 45.4714 18.3726 48 24.7378 48Z" fill="#35B6AA"/>
    <path d="M33.6478 14.91C33.6265 14.9307 33.6064 14.9528 33.5878 14.976L23.1688 28.251L16.8898 21.969C16.4633 21.5716 15.8992 21.3552 15.3163 21.3655C14.7334 21.3758 14.1772 21.6119 13.765 22.0241C13.3527 22.4364 13.1166 22.9925 13.1063 23.5754C13.096 24.1583 13.3124 24.7225 13.7098 25.149L21.6478 33.09C21.8617 33.3035 22.1163 33.4717 22.3966 33.5846C22.6768 33.6975 22.977 33.7528 23.2791 33.7472C23.5812 33.7416 23.879 33.6752 24.1549 33.552C24.4308 33.4288 24.679 33.2512 24.8848 33.03L36.8608 18.06C37.2686 17.632 37.4916 17.0607 37.4815 16.4696C37.4714 15.8785 37.2291 15.3151 36.807 14.9013C36.3849 14.4874 35.8168 14.2563 35.2256 14.258C34.6345 14.2596 34.0677 14.4938 33.6478 14.91Z" fill="#35B6AA"/>
    </g>
    <defs>
    <clipPath id="clip0_147_2768">
    <rect width="48" height="48" fill="white" transform="translate(0.737793)"/>
    </clipPath>
    </defs>
    </svg>
    