<svg width="431" height="104" viewBox="0 0 431 104" fill="none" xmlns="http://www.w3.org/2000/svg">
<path d="M2.584 21V7.59H3.844L11.71 18.876H11.224V7.59H12.664V21H11.404L3.538 9.642H4.024V21H2.584ZM20.1579 21.216C19.2459 21.216 18.4179 21 17.6739 20.568C16.9299 20.124 16.3359 19.524 15.8919 18.768C15.4599 18 15.2439 17.13 15.2439 16.158C15.2439 15.198 15.4599 14.34 15.8919 13.584C16.3239 12.828 16.9059 12.234 17.6379 11.802C18.3819 11.358 19.2219 11.136 20.1579 11.136C21.0939 11.136 21.9279 11.352 22.6599 11.784C23.4039 12.216 23.9859 12.81 24.4059 13.566C24.8379 14.322 25.0539 15.186 25.0539 16.158C25.0539 17.142 24.8319 18.018 24.3879 18.786C23.9439 19.542 23.3499 20.136 22.6059 20.568C21.8739 21 21.0579 21.216 20.1579 21.216ZM20.1579 19.866C20.8059 19.866 21.3879 19.704 21.9039 19.38C22.4319 19.056 22.8459 18.612 23.1459 18.048C23.4579 17.484 23.6139 16.854 23.6139 16.158C23.6139 15.462 23.4579 14.838 23.1459 14.286C22.8459 13.734 22.4319 13.296 21.9039 12.972C21.3879 12.648 20.8059 12.486 20.1579 12.486C19.5099 12.486 18.9219 12.648 18.3939 12.972C17.8779 13.296 17.4639 13.734 17.1519 14.286C16.8399 14.838 16.6839 15.462 16.6839 16.158C16.6839 16.854 16.8399 17.484 17.1519 18.048C17.4639 18.612 17.8779 19.056 18.3939 19.38C18.9219 19.704 19.5099 19.866 20.1579 19.866ZM30.7828 21.216C29.8588 21.216 29.0488 20.982 28.3528 20.514C27.6568 20.046 27.1528 19.41 26.8408 18.606L27.9748 18.066C28.2508 18.654 28.6348 19.122 29.1268 19.47C29.6308 19.818 30.1828 19.992 30.7828 19.992C31.3588 19.992 31.8448 19.854 32.2408 19.578C32.6368 19.29 32.8348 18.918 32.8348 18.462C32.8348 18.126 32.7388 17.862 32.5468 17.67C32.3548 17.466 32.1328 17.31 31.8808 17.202C31.6288 17.094 31.4068 17.016 31.2148 16.968L29.8288 16.572C28.9408 16.32 28.2988 15.966 27.9028 15.51C27.5068 15.054 27.3088 14.526 27.3088 13.926C27.3088 13.362 27.4528 12.87 27.7408 12.45C28.0288 12.03 28.4188 11.706 28.9108 11.478C29.4028 11.25 29.9488 11.136 30.5488 11.136C31.3648 11.136 32.1028 11.352 32.7628 11.784C33.4348 12.204 33.9088 12.792 34.1848 13.548L33.0328 14.088C32.7928 13.548 32.4448 13.128 31.9888 12.828C31.5448 12.516 31.0468 12.36 30.4948 12.36C29.9548 12.36 29.5228 12.498 29.1988 12.774C28.8748 13.05 28.7128 13.398 28.7128 13.818C28.7128 14.142 28.7968 14.4 28.9648 14.592C29.1328 14.784 29.3248 14.928 29.5408 15.024C29.7688 15.12 29.9668 15.192 30.1348 15.24L31.7368 15.708C32.5168 15.936 33.1228 16.29 33.5548 16.77C33.9988 17.25 34.2208 17.814 34.2208 18.462C34.2208 18.99 34.0708 19.464 33.7708 19.884C33.4828 20.304 33.0808 20.634 32.5648 20.874C32.0488 21.102 31.4548 21.216 30.7828 21.216ZM42.4416 21.216C41.8296 21.216 41.2836 21.102 40.8036 20.874C40.3236 20.634 39.9456 20.31 39.6696 19.902C39.3936 19.494 39.2556 19.026 39.2556 18.498C39.2556 17.994 39.3636 17.538 39.5796 17.13C39.7956 16.71 40.1316 16.356 40.5876 16.068C41.0436 15.78 41.6256 15.576 42.3336 15.456L46.1136 14.826V16.05L42.6576 16.626C41.9616 16.746 41.4576 16.968 41.1456 17.292C40.8456 17.616 40.6956 18 40.6956 18.444C40.6956 18.876 40.8636 19.242 41.1996 19.542C41.5476 19.842 41.9916 19.992 42.5316 19.992C43.1916 19.992 43.7676 19.854 44.2596 19.578C44.7516 19.29 45.1356 18.906 45.4116 18.426C45.6876 17.946 45.8256 17.412 45.8256 16.824V14.376C45.8256 13.8 45.6156 13.332 45.1956 12.972C44.7756 12.612 44.2296 12.432 43.5576 12.432C42.9696 12.432 42.4536 12.582 42.0096 12.882C41.5656 13.17 41.2356 13.548 41.0196 14.016L39.7956 13.35C39.9756 12.942 40.2576 12.57 40.6416 12.234C41.0376 11.898 41.4876 11.634 41.9916 11.442C42.4956 11.238 43.0176 11.136 43.5576 11.136C44.2656 11.136 44.8896 11.274 45.4296 11.55C45.9816 11.826 46.4076 12.21 46.7076 12.702C47.0196 13.182 47.1756 13.74 47.1756 14.376V21H45.8256V19.074L46.0236 19.272C45.8556 19.632 45.5916 19.962 45.2316 20.262C44.8836 20.55 44.4696 20.784 43.9896 20.964C43.5216 21.132 43.0056 21.216 42.4416 21.216ZM54.3624 21.216C53.4144 21.216 52.5804 20.994 51.8604 20.55C51.1404 20.106 50.5764 19.506 50.1684 18.75C49.7604 17.982 49.5564 17.118 49.5564 16.158C49.5564 15.198 49.7604 14.34 50.1684 13.584C50.5764 12.828 51.1404 12.234 51.8604 11.802C52.5804 11.358 53.4144 11.136 54.3624 11.136C54.9624 11.136 55.5264 11.244 56.0544 11.46C56.5824 11.676 57.0504 11.97 57.4584 12.342C57.8664 12.702 58.1724 13.122 58.3764 13.602L57.1524 14.232C56.9124 13.716 56.5464 13.296 56.0544 12.972C55.5624 12.648 54.9984 12.486 54.3624 12.486C53.7264 12.486 53.1504 12.648 52.6344 12.972C52.1304 13.284 51.7284 13.722 51.4284 14.286C51.1404 14.838 50.9964 15.468 50.9964 16.176C50.9964 16.872 51.1404 17.502 51.4284 18.066C51.7284 18.618 52.1304 19.056 52.6344 19.38C53.1504 19.704 53.7264 19.866 54.3624 19.866C54.9984 19.866 55.5564 19.704 56.0364 19.38C56.5284 19.056 56.9004 18.624 57.1524 18.084L58.3764 18.75C58.1724 19.218 57.8664 19.638 57.4584 20.01C57.0504 20.382 56.5824 20.676 56.0544 20.892C55.5264 21.108 54.9624 21.216 54.3624 21.216ZM65.2634 21.216C64.3514 21.216 63.5234 21 62.7794 20.568C62.0354 20.124 61.4414 19.524 60.9974 18.768C60.5654 18 60.3494 17.13 60.3494 16.158C60.3494 15.198 60.5654 14.34 60.9974 13.584C61.4294 12.828 62.0114 12.234 62.7434 11.802C63.4874 11.358 64.3274 11.136 65.2634 11.136C66.1994 11.136 67.0334 11.352 67.7654 11.784C68.5094 12.216 69.0914 12.81 69.5114 13.566C69.9434 14.322 70.1594 15.186 70.1594 16.158C70.1594 17.142 69.9374 18.018 69.4934 18.786C69.0494 19.542 68.4554 20.136 67.7114 20.568C66.9794 21 66.1634 21.216 65.2634 21.216ZM65.2634 19.866C65.9114 19.866 66.4934 19.704 67.0094 19.38C67.5374 19.056 67.9514 18.612 68.2514 18.048C68.5634 17.484 68.7194 16.854 68.7194 16.158C68.7194 15.462 68.5634 14.838 68.2514 14.286C67.9514 13.734 67.5374 13.296 67.0094 12.972C66.4934 12.648 65.9114 12.486 65.2634 12.486C64.6154 12.486 64.0274 12.648 63.4994 12.972C62.9834 13.296 62.5694 13.734 62.2574 14.286C61.9454 14.838 61.7894 15.462 61.7894 16.158C61.7894 16.854 61.9454 17.484 62.2574 18.048C62.5694 18.612 62.9834 19.056 63.4994 19.38C64.0274 19.704 64.6154 19.866 65.2634 19.866ZM72.5403 21V11.352H73.8903V13.188L73.6743 12.918C73.9383 12.354 74.3283 11.916 74.8443 11.604C75.3723 11.292 75.9483 11.136 76.5723 11.136C77.3163 11.136 77.9883 11.346 78.5883 11.766C79.1883 12.186 79.6143 12.732 79.8663 13.404L79.4883 13.422C79.7283 12.678 80.1423 12.114 80.7303 11.73C81.3303 11.334 81.9903 11.136 82.7103 11.136C83.3583 11.136 83.9523 11.292 84.4923 11.604C85.0443 11.916 85.4823 12.348 85.8063 12.9C86.1423 13.44 86.3103 14.052 86.3103 14.736V21H84.9603V15.258C84.9603 14.67 84.8523 14.172 84.6363 13.764C84.4323 13.356 84.1503 13.044 83.7903 12.828C83.4303 12.6 83.0163 12.486 82.5483 12.486C82.0923 12.486 81.6783 12.6 81.3063 12.828C80.9343 13.044 80.6403 13.362 80.4243 13.782C80.2083 14.19 80.1003 14.682 80.1003 15.258V21H78.7503V15.258C78.7503 14.67 78.6423 14.172 78.4263 13.764C78.2223 13.356 77.9403 13.044 77.5803 12.828C77.2203 12.6 76.8063 12.486 76.3383 12.486C75.8703 12.486 75.4503 12.6 75.0783 12.828C74.7183 13.044 74.4303 13.362 74.2143 13.782C73.9983 14.19 73.8903 14.682 73.8903 15.258V21H72.5403ZM88.888 24.6V11.352H90.238V13.512L90.022 13.134C90.406 12.522 90.916 12.036 91.552 11.676C92.2 11.316 92.938 11.136 93.766 11.136C94.678 11.136 95.488 11.358 96.196 11.802C96.916 12.234 97.48 12.828 97.888 13.584C98.308 14.34 98.518 15.204 98.518 16.176C98.518 17.136 98.308 18 97.888 18.768C97.48 19.524 96.916 20.124 96.196 20.568C95.488 21 94.678 21.216 93.766 21.216C92.938 21.216 92.188 21.03 91.516 20.658C90.856 20.274 90.358 19.734 90.022 19.038L90.238 18.84V24.6H88.888ZM93.694 19.866C94.342 19.866 94.918 19.704 95.422 19.38C95.938 19.056 96.34 18.618 96.628 18.066C96.928 17.502 97.078 16.872 97.078 16.176C97.078 15.468 96.928 14.838 96.628 14.286C96.34 13.734 95.938 13.296 95.422 12.972C94.918 12.648 94.342 12.486 93.694 12.486C93.046 12.486 92.458 12.648 91.93 12.972C91.414 13.296 91 13.74 90.688 14.304C90.388 14.856 90.238 15.48 90.238 16.176C90.238 16.872 90.388 17.502 90.688 18.066C91 18.618 91.414 19.056 91.93 19.38C92.458 19.704 93.046 19.866 93.694 19.866ZM103.684 21.216C103.072 21.216 102.526 21.102 102.046 20.874C101.566 20.634 101.188 20.31 100.912 19.902C100.636 19.494 100.498 19.026 100.498 18.498C100.498 17.994 100.606 17.538 100.822 17.13C101.038 16.71 101.374 16.356 101.83 16.068C102.286 15.78 102.868 15.576 103.576 15.456L107.356 14.826V16.05L103.9 16.626C103.204 16.746 102.7 16.968 102.388 17.292C102.088 17.616 101.938 18 101.938 18.444C101.938 18.876 102.106 19.242 102.442 19.542C102.79 19.842 103.234 19.992 103.774 19.992C104.434 19.992 105.01 19.854 105.502 19.578C105.994 19.29 106.378 18.906 106.654 18.426C106.93 17.946 107.068 17.412 107.068 16.824V14.376C107.068 13.8 106.858 13.332 106.438 12.972C106.018 12.612 105.472 12.432 104.8 12.432C104.212 12.432 103.696 12.582 103.252 12.882C102.808 13.17 102.478 13.548 102.262 14.016L101.038 13.35C101.218 12.942 101.5 12.57 101.884 12.234C102.28 11.898 102.73 11.634 103.234 11.442C103.738 11.238 104.26 11.136 104.8 11.136C105.508 11.136 106.132 11.274 106.672 11.55C107.224 11.826 107.65 12.21 107.95 12.702C108.262 13.182 108.418 13.74 108.418 14.376V21H107.068V19.074L107.266 19.272C107.098 19.632 106.834 19.962 106.474 20.262C106.126 20.55 105.712 20.784 105.232 20.964C104.764 21.132 104.248 21.216 103.684 21.216ZM111.195 21V11.352H112.545V13.224L112.239 13.152C112.479 12.528 112.869 12.036 113.409 11.676C113.961 11.316 114.597 11.136 115.317 11.136C116.001 11.136 116.613 11.292 117.153 11.604C117.705 11.916 118.137 12.348 118.449 12.9C118.773 13.44 118.935 14.052 118.935 14.736V21H117.585V15.258C117.585 14.67 117.477 14.172 117.261 13.764C117.057 13.356 116.763 13.044 116.379 12.828C116.007 12.6 115.575 12.486 115.083 12.486C114.591 12.486 114.153 12.6 113.769 12.828C113.385 13.044 113.085 13.362 112.869 13.782C112.653 14.19 112.545 14.682 112.545 15.258V21H111.195ZM121.513 21V7.374H122.863V13.224L122.557 13.152C122.797 12.528 123.187 12.036 123.727 11.676C124.279 11.316 124.915 11.136 125.635 11.136C126.319 11.136 126.931 11.292 127.471 11.604C128.023 11.916 128.455 12.348 128.767 12.9C129.091 13.44 129.253 14.052 129.253 14.736V21H127.903V15.258C127.903 14.67 127.795 14.172 127.579 13.764C127.363 13.356 127.063 13.044 126.679 12.828C126.307 12.6 125.881 12.486 125.401 12.486C124.921 12.486 124.489 12.6 124.105 12.828C123.721 13.044 123.415 13.362 123.187 13.782C122.971 14.19 122.863 14.682 122.863 15.258V21H121.513ZM136.223 21.216C135.323 21.216 134.507 21 133.775 20.568C133.055 20.124 132.485 19.518 132.065 18.75C131.645 17.982 131.435 17.112 131.435 16.14C131.435 15.168 131.639 14.31 132.047 13.566C132.455 12.81 133.007 12.216 133.703 11.784C134.411 11.352 135.203 11.136 136.079 11.136C136.775 11.136 137.393 11.268 137.933 11.532C138.485 11.784 138.953 12.132 139.337 12.576C139.721 13.008 140.015 13.5 140.219 14.052C140.423 14.592 140.525 15.15 140.525 15.726C140.525 15.846 140.519 15.984 140.507 16.14C140.495 16.284 140.477 16.434 140.453 16.59H132.299V15.33H139.679L139.031 15.87C139.139 15.21 139.061 14.622 138.797 14.106C138.545 13.578 138.179 13.164 137.699 12.864C137.219 12.552 136.679 12.396 136.079 12.396C135.479 12.396 134.921 12.552 134.405 12.864C133.901 13.176 133.505 13.614 133.217 14.178C132.929 14.73 132.815 15.39 132.875 16.158C132.815 16.926 132.935 17.598 133.235 18.174C133.547 18.738 133.967 19.176 134.495 19.488C135.035 19.8 135.611 19.956 136.223 19.956C136.931 19.956 137.525 19.788 138.005 19.452C138.485 19.116 138.875 18.696 139.175 18.192L140.327 18.804C140.135 19.236 139.841 19.638 139.445 20.01C139.049 20.37 138.575 20.664 138.023 20.892C137.483 21.108 136.883 21.216 136.223 21.216ZM145.964 21V11.352H147.314V13.224L147.008 13.152C147.248 12.528 147.638 12.036 148.178 11.676C148.73 11.316 149.366 11.136 150.086 11.136C150.77 11.136 151.382 11.292 151.922 11.604C152.474 11.916 152.906 12.348 153.218 12.9C153.542 13.44 153.704 14.052 153.704 14.736V21H152.354V15.258C152.354 14.67 152.246 14.172 152.03 13.764C151.826 13.356 151.532 13.044 151.148 12.828C150.776 12.6 150.344 12.486 149.852 12.486C149.36 12.486 148.922 12.6 148.538 12.828C148.154 13.044 147.854 13.362 147.638 13.782C147.422 14.19 147.314 14.682 147.314 15.258V21H145.964ZM159.072 21.216C158.46 21.216 157.914 21.102 157.434 20.874C156.954 20.634 156.576 20.31 156.3 19.902C156.024 19.494 155.886 19.026 155.886 18.498C155.886 17.994 155.994 17.538 156.21 17.13C156.426 16.71 156.762 16.356 157.218 16.068C157.674 15.78 158.256 15.576 158.964 15.456L162.744 14.826V16.05L159.288 16.626C158.592 16.746 158.088 16.968 157.776 17.292C157.476 17.616 157.326 18 157.326 18.444C157.326 18.876 157.494 19.242 157.83 19.542C158.178 19.842 158.622 19.992 159.162 19.992C159.822 19.992 160.398 19.854 160.89 19.578C161.382 19.29 161.766 18.906 162.042 18.426C162.318 17.946 162.456 17.412 162.456 16.824V14.376C162.456 13.8 162.246 13.332 161.826 12.972C161.406 12.612 160.86 12.432 160.188 12.432C159.6 12.432 159.084 12.582 158.64 12.882C158.196 13.17 157.866 13.548 157.65 14.016L156.426 13.35C156.606 12.942 156.888 12.57 157.272 12.234C157.668 11.898 158.118 11.634 158.622 11.442C159.126 11.238 159.648 11.136 160.188 11.136C160.896 11.136 161.52 11.274 162.06 11.55C162.612 11.826 163.038 12.21 163.338 12.702C163.65 13.182 163.806 13.74 163.806 14.376V21H162.456V19.074L162.654 19.272C162.486 19.632 162.222 19.962 161.862 20.262C161.514 20.55 161.1 20.784 160.62 20.964C160.152 21.132 159.636 21.216 159.072 21.216ZM169.931 21.216C169.007 21.216 168.197 20.982 167.501 20.514C166.805 20.046 166.301 19.41 165.989 18.606L167.123 18.066C167.399 18.654 167.783 19.122 168.275 19.47C168.779 19.818 169.331 19.992 169.931 19.992C170.507 19.992 170.993 19.854 171.389 19.578C171.785 19.29 171.983 18.918 171.983 18.462C171.983 18.126 171.887 17.862 171.695 17.67C171.503 17.466 171.281 17.31 171.029 17.202C170.777 17.094 170.555 17.016 170.363 16.968L168.977 16.572C168.089 16.32 167.447 15.966 167.051 15.51C166.655 15.054 166.457 14.526 166.457 13.926C166.457 13.362 166.601 12.87 166.889 12.45C167.177 12.03 167.567 11.706 168.059 11.478C168.551 11.25 169.097 11.136 169.697 11.136C170.513 11.136 171.251 11.352 171.911 11.784C172.583 12.204 173.057 12.792 173.333 13.548L172.181 14.088C171.941 13.548 171.593 13.128 171.137 12.828C170.693 12.516 170.195 12.36 169.643 12.36C169.103 12.36 168.671 12.498 168.347 12.774C168.023 13.05 167.861 13.398 167.861 13.818C167.861 14.142 167.945 14.4 168.113 14.592C168.281 14.784 168.473 14.928 168.689 15.024C168.917 15.12 169.115 15.192 169.283 15.24L170.885 15.708C171.665 15.936 172.271 16.29 172.703 16.77C173.147 17.25 173.369 17.814 173.369 18.462C173.369 18.99 173.219 19.464 172.919 19.884C172.631 20.304 172.229 20.634 171.713 20.874C171.197 21.102 170.603 21.216 169.931 21.216ZM178.8 21V11.352H180.15V12.936L179.97 12.702C180.198 12.246 180.54 11.886 180.996 11.622C181.464 11.358 182.028 11.226 182.688 11.226H183.3V12.576H182.454C181.758 12.576 181.2 12.792 180.78 13.224C180.36 13.656 180.15 14.268 180.15 15.06V21H178.8ZM189.274 21.216C188.374 21.216 187.558 21 186.826 20.568C186.106 20.124 185.536 19.518 185.116 18.75C184.696 17.982 184.486 17.112 184.486 16.14C184.486 15.168 184.69 14.31 185.098 13.566C185.506 12.81 186.058 12.216 186.754 11.784C187.462 11.352 188.254 11.136 189.13 11.136C189.826 11.136 190.444 11.268 190.984 11.532C191.536 11.784 192.004 12.132 192.388 12.576C192.772 13.008 193.066 13.5 193.27 14.052C193.474 14.592 193.576 15.15 193.576 15.726C193.576 15.846 193.57 15.984 193.558 16.14C193.546 16.284 193.528 16.434 193.504 16.59H185.35V15.33H192.73L192.082 15.87C192.19 15.21 192.112 14.622 191.848 14.106C191.596 13.578 191.23 13.164 190.75 12.864C190.27 12.552 189.73 12.396 189.13 12.396C188.53 12.396 187.972 12.552 187.456 12.864C186.952 13.176 186.556 13.614 186.268 14.178C185.98 14.73 185.866 15.39 185.926 16.158C185.866 16.926 185.986 17.598 186.286 18.174C186.598 18.738 187.018 19.176 187.546 19.488C188.086 19.8 188.662 19.956 189.274 19.956C189.982 19.956 190.576 19.788 191.056 19.452C191.536 19.116 191.926 18.696 192.226 18.192L193.378 18.804C193.186 19.236 192.892 19.638 192.496 20.01C192.1 20.37 191.626 20.664 191.074 20.892C190.534 21.108 189.934 21.216 189.274 21.216ZM200.312 21.216C199.412 21.216 198.602 21 197.882 20.568C197.162 20.124 196.592 19.524 196.172 18.768C195.764 18 195.56 17.136 195.56 16.176C195.56 15.204 195.764 14.34 196.172 13.584C196.592 12.828 197.156 12.234 197.864 11.802C198.584 11.358 199.4 11.136 200.312 11.136C201.14 11.136 201.878 11.316 202.526 11.676C203.174 12.036 203.684 12.522 204.056 13.134L203.84 13.512V7.374H205.19V21H203.84V18.84L204.056 19.038C203.72 19.734 203.216 20.274 202.544 20.658C201.884 21.03 201.14 21.216 200.312 21.216ZM200.384 19.866C201.032 19.866 201.614 19.704 202.13 19.38C202.658 19.056 203.072 18.618 203.372 18.066C203.684 17.502 203.84 16.872 203.84 16.176C203.84 15.48 203.684 14.856 203.372 14.304C203.072 13.74 202.658 13.296 202.13 12.972C201.614 12.648 201.032 12.486 200.384 12.486C199.748 12.486 199.172 12.648 198.656 12.972C198.14 13.296 197.732 13.734 197.432 14.286C197.144 14.838 197 15.468 197 16.176C197 16.872 197.144 17.502 197.432 18.066C197.732 18.618 198.134 19.056 198.638 19.38C199.154 19.704 199.736 19.866 200.384 19.866ZM212.354 21.216C211.454 21.216 210.638 21 209.906 20.568C209.186 20.124 208.616 19.518 208.196 18.75C207.776 17.982 207.566 17.112 207.566 16.14C207.566 15.168 207.77 14.31 208.178 13.566C208.586 12.81 209.138 12.216 209.834 11.784C210.542 11.352 211.334 11.136 212.21 11.136C212.906 11.136 213.524 11.268 214.064 11.532C214.616 11.784 215.084 12.132 215.468 12.576C215.852 13.008 216.146 13.5 216.35 14.052C216.554 14.592 216.656 15.15 216.656 15.726C216.656 15.846 216.65 15.984 216.638 16.14C216.626 16.284 216.608 16.434 216.584 16.59H208.43V15.33H215.81L215.162 15.87C215.27 15.21 215.192 14.622 214.928 14.106C214.676 13.578 214.31 13.164 213.83 12.864C213.35 12.552 212.81 12.396 212.21 12.396C211.61 12.396 211.052 12.552 210.536 12.864C210.032 13.176 209.636 13.614 209.348 14.178C209.06 14.73 208.946 15.39 209.006 16.158C208.946 16.926 209.066 17.598 209.366 18.174C209.678 18.738 210.098 19.176 210.626 19.488C211.166 19.8 211.742 19.956 212.354 19.956C213.062 19.956 213.656 19.788 214.136 19.452C214.616 19.116 215.006 18.696 215.306 18.192L216.458 18.804C216.266 19.236 215.972 19.638 215.576 20.01C215.18 20.37 214.706 20.664 214.154 20.892C213.614 21.108 213.014 21.216 212.354 21.216ZM222.384 21.216C221.46 21.216 220.65 20.982 219.954 20.514C219.258 20.046 218.754 19.41 218.442 18.606L219.576 18.066C219.852 18.654 220.236 19.122 220.728 19.47C221.232 19.818 221.784 19.992 222.384 19.992C222.96 19.992 223.446 19.854 223.842 19.578C224.238 19.29 224.436 18.918 224.436 18.462C224.436 18.126 224.34 17.862 224.148 17.67C223.956 17.466 223.734 17.31 223.482 17.202C223.23 17.094 223.008 17.016 222.816 16.968L221.43 16.572C220.542 16.32 219.9 15.966 219.504 15.51C219.108 15.054 218.91 14.526 218.91 13.926C218.91 13.362 219.054 12.87 219.342 12.45C219.63 12.03 220.02 11.706 220.512 11.478C221.004 11.25 221.55 11.136 222.15 11.136C222.966 11.136 223.704 11.352 224.364 11.784C225.036 12.204 225.51 12.792 225.786 13.548L224.634 14.088C224.394 13.548 224.046 13.128 223.59 12.828C223.146 12.516 222.648 12.36 222.096 12.36C221.556 12.36 221.124 12.498 220.8 12.774C220.476 13.05 220.314 13.398 220.314 13.818C220.314 14.142 220.398 14.4 220.566 14.592C220.734 14.784 220.926 14.928 221.142 15.024C221.37 15.12 221.568 15.192 221.736 15.24L223.338 15.708C224.118 15.936 224.724 16.29 225.156 16.77C225.6 17.25 225.822 17.814 225.822 18.462C225.822 18.99 225.672 19.464 225.372 19.884C225.084 20.304 224.682 20.634 224.166 20.874C223.65 21.102 223.056 21.216 222.384 21.216ZM234.601 21.216C233.677 21.216 232.867 20.982 232.171 20.514C231.475 20.046 230.971 19.41 230.659 18.606L231.793 18.066C232.069 18.654 232.453 19.122 232.945 19.47C233.449 19.818 234.001 19.992 234.601 19.992C235.177 19.992 235.663 19.854 236.059 19.578C236.455 19.29 236.653 18.918 236.653 18.462C236.653 18.126 236.557 17.862 236.365 17.67C236.173 17.466 235.951 17.31 235.699 17.202C235.447 17.094 235.225 17.016 235.033 16.968L233.647 16.572C232.759 16.32 232.117 15.966 231.721 15.51C231.325 15.054 231.127 14.526 231.127 13.926C231.127 13.362 231.271 12.87 231.559 12.45C231.847 12.03 232.237 11.706 232.729 11.478C233.221 11.25 233.767 11.136 234.367 11.136C235.183 11.136 235.921 11.352 236.581 11.784C237.253 12.204 237.727 12.792 238.003 13.548L236.851 14.088C236.611 13.548 236.263 13.128 235.807 12.828C235.363 12.516 234.865 12.36 234.313 12.36C233.773 12.36 233.341 12.498 233.017 12.774C232.693 13.05 232.531 13.398 232.531 13.818C232.531 14.142 232.615 14.4 232.783 14.592C232.951 14.784 233.143 14.928 233.359 15.024C233.587 15.12 233.785 15.192 233.953 15.24L235.555 15.708C236.335 15.936 236.941 16.29 237.373 16.77C237.817 17.25 238.039 17.814 238.039 18.462C238.039 18.99 237.889 19.464 237.589 19.884C237.301 20.304 236.899 20.634 236.383 20.874C235.867 21.102 235.273 21.216 234.601 21.216ZM244.929 21.216C244.017 21.216 243.189 21 242.445 20.568C241.701 20.124 241.107 19.524 240.663 18.768C240.231 18 240.015 17.13 240.015 16.158C240.015 15.198 240.231 14.34 240.663 13.584C241.095 12.828 241.677 12.234 242.409 11.802C243.153 11.358 243.993 11.136 244.929 11.136C245.865 11.136 246.699 11.352 247.431 11.784C248.175 12.216 248.757 12.81 249.177 13.566C249.609 14.322 249.825 15.186 249.825 16.158C249.825 17.142 249.603 18.018 249.159 18.786C248.715 19.542 248.121 20.136 247.377 20.568C246.645 21 245.829 21.216 244.929 21.216ZM244.929 19.866C245.577 19.866 246.159 19.704 246.675 19.38C247.203 19.056 247.617 18.612 247.917 18.048C248.229 17.484 248.385 16.854 248.385 16.158C248.385 15.462 248.229 14.838 247.917 14.286C247.617 13.734 247.203 13.296 246.675 12.972C246.159 12.648 245.577 12.486 244.929 12.486C244.281 12.486 243.693 12.648 243.165 12.972C242.649 13.296 242.235 13.734 241.923 14.286C241.611 14.838 241.455 15.462 241.455 16.158C241.455 16.854 241.611 17.484 241.923 18.048C242.235 18.612 242.649 19.056 243.165 19.38C243.693 19.704 244.281 19.866 244.929 19.866ZM256.616 21.216C255.668 21.216 254.834 20.994 254.114 20.55C253.394 20.106 252.83 19.506 252.422 18.75C252.014 17.982 251.81 17.118 251.81 16.158C251.81 15.198 252.014 14.34 252.422 13.584C252.83 12.828 253.394 12.234 254.114 11.802C254.834 11.358 255.668 11.136 256.616 11.136C257.216 11.136 257.78 11.244 258.308 11.46C258.836 11.676 259.304 11.97 259.712 12.342C260.12 12.702 260.426 13.122 260.63 13.602L259.406 14.232C259.166 13.716 258.8 13.296 258.308 12.972C257.816 12.648 257.252 12.486 256.616 12.486C255.98 12.486 255.404 12.648 254.888 12.972C254.384 13.284 253.982 13.722 253.682 14.286C253.394 14.838 253.25 15.468 253.25 16.176C253.25 16.872 253.394 17.502 253.682 18.066C253.982 18.618 254.384 19.056 254.888 19.38C255.404 19.704 255.98 19.866 256.616 19.866C257.252 19.866 257.81 19.704 258.29 19.38C258.782 19.056 259.154 18.624 259.406 18.084L260.63 18.75C260.426 19.218 260.12 19.638 259.712 20.01C259.304 20.382 258.836 20.676 258.308 20.892C257.78 21.108 257.216 21.216 256.616 21.216ZM262.999 21V11.352H264.349V21H262.999ZM262.999 9.57V7.59H264.349V9.57H262.999ZM269.903 21.216C269.291 21.216 268.745 21.102 268.265 20.874C267.785 20.634 267.407 20.31 267.131 19.902C266.855 19.494 266.717 19.026 266.717 18.498C266.717 17.994 266.825 17.538 267.041 17.13C267.257 16.71 267.593 16.356 268.049 16.068C268.505 15.78 269.087 15.576 269.795 15.456L273.575 14.826V16.05L270.119 16.626C269.423 16.746 268.919 16.968 268.607 17.292C268.307 17.616 268.157 18 268.157 18.444C268.157 18.876 268.325 19.242 268.661 19.542C269.009 19.842 269.453 19.992 269.993 19.992C270.653 19.992 271.229 19.854 271.721 19.578C272.213 19.29 272.597 18.906 272.873 18.426C273.149 17.946 273.287 17.412 273.287 16.824V14.376C273.287 13.8 273.077 13.332 272.657 12.972C272.237 12.612 271.691 12.432 271.019 12.432C270.431 12.432 269.915 12.582 269.471 12.882C269.027 13.17 268.697 13.548 268.481 14.016L267.257 13.35C267.437 12.942 267.719 12.57 268.103 12.234C268.499 11.898 268.949 11.634 269.453 11.442C269.957 11.238 270.479 11.136 271.019 11.136C271.727 11.136 272.351 11.274 272.891 11.55C273.443 11.826 273.869 12.21 274.169 12.702C274.481 13.182 274.637 13.74 274.637 14.376V21H273.287V19.074L273.485 19.272C273.317 19.632 273.053 19.962 272.693 20.262C272.345 20.55 271.931 20.784 271.451 20.964C270.983 21.132 270.467 21.216 269.903 21.216ZM277.413 21V11.352H278.763V21H277.413ZM277.413 9.57V7.59H278.763V9.57H277.413ZM284.875 21.216C283.951 21.216 283.141 20.982 282.445 20.514C281.749 20.046 281.245 19.41 280.933 18.606L282.067 18.066C282.343 18.654 282.727 19.122 283.219 19.47C283.723 19.818 284.275 19.992 284.875 19.992C285.451 19.992 285.937 19.854 286.333 19.578C286.729 19.29 286.927 18.918 286.927 18.462C286.927 18.126 286.831 17.862 286.639 17.67C286.447 17.466 286.225 17.31 285.973 17.202C285.721 17.094 285.499 17.016 285.307 16.968L283.921 16.572C283.033 16.32 282.391 15.966 281.995 15.51C281.599 15.054 281.401 14.526 281.401 13.926C281.401 13.362 281.545 12.87 281.833 12.45C282.121 12.03 282.511 11.706 283.003 11.478C283.495 11.25 284.041 11.136 284.641 11.136C285.457 11.136 286.195 11.352 286.855 11.784C287.527 12.204 288.001 12.792 288.277 13.548L287.125 14.088C286.885 13.548 286.537 13.128 286.081 12.828C285.637 12.516 285.139 12.36 284.587 12.36C284.047 12.36 283.615 12.498 283.291 12.774C282.967 13.05 282.805 13.398 282.805 13.818C282.805 14.142 282.889 14.4 283.057 14.592C283.225 14.784 283.417 14.928 283.633 15.024C283.861 15.12 284.059 15.192 284.227 15.24L285.829 15.708C286.609 15.936 287.215 16.29 287.647 16.77C288.091 17.25 288.313 17.814 288.313 18.462C288.313 18.99 288.163 19.464 287.863 19.884C287.575 20.304 287.173 20.634 286.657 20.874C286.141 21.102 285.547 21.216 284.875 21.216ZM293.743 24.6V11.352H295.093V13.512L294.877 13.134C295.261 12.522 295.771 12.036 296.407 11.676C297.055 11.316 297.793 11.136 298.621 11.136C299.533 11.136 300.343 11.358 301.051 11.802C301.771 12.234 302.335 12.828 302.743 13.584C303.163 14.34 303.373 15.204 303.373 16.176C303.373 17.136 303.163 18 302.743 18.768C302.335 19.524 301.771 20.124 301.051 20.568C300.343 21 299.533 21.216 298.621 21.216C297.793 21.216 297.043 21.03 296.371 20.658C295.711 20.274 295.213 19.734 294.877 19.038L295.093 18.84V24.6H293.743ZM298.549 19.866C299.197 19.866 299.773 19.704 300.277 19.38C300.793 19.056 301.195 18.618 301.483 18.066C301.783 17.502 301.933 16.872 301.933 16.176C301.933 15.468 301.783 14.838 301.483 14.286C301.195 13.734 300.793 13.296 300.277 12.972C299.773 12.648 299.197 12.486 298.549 12.486C297.901 12.486 297.313 12.648 296.785 12.972C296.269 13.296 295.855 13.74 295.543 14.304C295.243 14.856 295.093 15.48 295.093 16.176C295.093 16.872 295.243 17.502 295.543 18.066C295.855 18.618 296.269 19.056 296.785 19.38C297.313 19.704 297.901 19.866 298.549 19.866ZM308.539 21.216C307.927 21.216 307.381 21.102 306.901 20.874C306.421 20.634 306.043 20.31 305.767 19.902C305.491 19.494 305.353 19.026 305.353 18.498C305.353 17.994 305.461 17.538 305.677 17.13C305.893 16.71 306.229 16.356 306.685 16.068C307.141 15.78 307.723 15.576 308.431 15.456L312.211 14.826V16.05L308.755 16.626C308.059 16.746 307.555 16.968 307.243 17.292C306.943 17.616 306.793 18 306.793 18.444C306.793 18.876 306.961 19.242 307.297 19.542C307.645 19.842 308.089 19.992 308.629 19.992C309.289 19.992 309.865 19.854 310.357 19.578C310.849 19.29 311.233 18.906 311.509 18.426C311.785 17.946 311.923 17.412 311.923 16.824V14.376C311.923 13.8 311.713 13.332 311.293 12.972C310.873 12.612 310.327 12.432 309.655 12.432C309.067 12.432 308.551 12.582 308.107 12.882C307.663 13.17 307.333 13.548 307.117 14.016L305.893 13.35C306.073 12.942 306.355 12.57 306.739 12.234C307.135 11.898 307.585 11.634 308.089 11.442C308.593 11.238 309.115 11.136 309.655 11.136C310.363 11.136 310.987 11.274 311.527 11.55C312.079 11.826 312.505 12.21 312.805 12.702C313.117 13.182 313.273 13.74 313.273 14.376V21H311.923V19.074L312.121 19.272C311.953 19.632 311.689 19.962 311.329 20.262C310.981 20.55 310.567 20.784 310.087 20.964C309.619 21.132 309.103 21.216 308.539 21.216ZM316.05 21V11.352H317.4V12.936L317.22 12.702C317.448 12.246 317.79 11.886 318.246 11.622C318.714 11.358 319.278 11.226 319.938 11.226H320.55V12.576H319.704C319.008 12.576 318.45 12.792 318.03 13.224C317.61 13.656 317.4 14.268 317.4 15.06V21H316.05ZM324.922 21.216C324.31 21.216 323.764 21.102 323.284 20.874C322.804 20.634 322.426 20.31 322.15 19.902C321.874 19.494 321.736 19.026 321.736 18.498C321.736 17.994 321.844 17.538 322.06 17.13C322.276 16.71 322.612 16.356 323.068 16.068C323.524 15.78 324.106 15.576 324.814 15.456L328.594 14.826V16.05L325.138 16.626C324.442 16.746 323.938 16.968 323.626 17.292C323.326 17.616 323.176 18 323.176 18.444C323.176 18.876 323.344 19.242 323.68 19.542C324.028 19.842 324.472 19.992 325.012 19.992C325.672 19.992 326.248 19.854 326.74 19.578C327.232 19.29 327.616 18.906 327.892 18.426C328.168 17.946 328.306 17.412 328.306 16.824V14.376C328.306 13.8 328.096 13.332 327.676 12.972C327.256 12.612 326.71 12.432 326.038 12.432C325.45 12.432 324.934 12.582 324.49 12.882C324.046 13.17 323.716 13.548 323.5 14.016L322.276 13.35C322.456 12.942 322.738 12.57 323.122 12.234C323.518 11.898 323.968 11.634 324.472 11.442C324.976 11.238 325.498 11.136 326.038 11.136C326.746 11.136 327.37 11.274 327.91 11.55C328.462 11.826 328.888 12.21 329.188 12.702C329.5 13.182 329.656 13.74 329.656 14.376V21H328.306V19.074L328.504 19.272C328.336 19.632 328.072 19.962 327.712 20.262C327.364 20.55 326.95 20.784 326.47 20.964C326.002 21.132 325.486 21.216 324.922 21.216ZM338.839 21.216C337.915 21.216 337.105 20.982 336.409 20.514C335.713 20.046 335.209 19.41 334.897 18.606L336.031 18.066C336.307 18.654 336.691 19.122 337.183 19.47C337.687 19.818 338.239 19.992 338.839 19.992C339.415 19.992 339.901 19.854 340.297 19.578C340.693 19.29 340.891 18.918 340.891 18.462C340.891 18.126 340.795 17.862 340.603 17.67C340.411 17.466 340.189 17.31 339.937 17.202C339.685 17.094 339.463 17.016 339.271 16.968L337.885 16.572C336.997 16.32 336.355 15.966 335.959 15.51C335.563 15.054 335.365 14.526 335.365 13.926C335.365 13.362 335.509 12.87 335.797 12.45C336.085 12.03 336.475 11.706 336.967 11.478C337.459 11.25 338.005 11.136 338.605 11.136C339.421 11.136 340.159 11.352 340.819 11.784C341.491 12.204 341.965 12.792 342.241 13.548L341.089 14.088C340.849 13.548 340.501 13.128 340.045 12.828C339.601 12.516 339.103 12.36 338.551 12.36C338.011 12.36 337.579 12.498 337.255 12.774C336.931 13.05 336.769 13.398 336.769 13.818C336.769 14.142 336.853 14.4 337.021 14.592C337.189 14.784 337.381 14.928 337.597 15.024C337.825 15.12 338.023 15.192 338.191 15.24L339.793 15.708C340.573 15.936 341.179 16.29 341.611 16.77C342.055 17.25 342.277 17.814 342.277 18.462C342.277 18.99 342.127 19.464 341.827 19.884C341.539 20.304 341.137 20.634 340.621 20.874C340.105 21.102 339.511 21.216 338.839 21.216ZM347.44 21.216C346.828 21.216 346.282 21.102 345.802 20.874C345.322 20.634 344.944 20.31 344.668 19.902C344.392 19.494 344.254 19.026 344.254 18.498C344.254 17.994 344.362 17.538 344.578 17.13C344.794 16.71 345.13 16.356 345.586 16.068C346.042 15.78 346.624 15.576 347.332 15.456L351.112 14.826V16.05L347.656 16.626C346.96 16.746 346.456 16.968 346.144 17.292C345.844 17.616 345.694 18 345.694 18.444C345.694 18.876 345.862 19.242 346.198 19.542C346.546 19.842 346.99 19.992 347.53 19.992C348.19 19.992 348.766 19.854 349.258 19.578C349.75 19.29 350.134 18.906 350.41 18.426C350.686 17.946 350.824 17.412 350.824 16.824V14.376C350.824 13.8 350.614 13.332 350.194 12.972C349.774 12.612 349.228 12.432 348.556 12.432C347.968 12.432 347.452 12.582 347.008 12.882C346.564 13.17 346.234 13.548 346.018 14.016L344.794 13.35C344.974 12.942 345.256 12.57 345.64 12.234C346.036 11.898 346.486 11.634 346.99 11.442C347.494 11.238 348.016 11.136 348.556 11.136C349.264 11.136 349.888 11.274 350.428 11.55C350.98 11.826 351.406 12.21 351.706 12.702C352.018 13.182 352.174 13.74 352.174 14.376V21H350.824V19.074L351.022 19.272C350.854 19.632 350.59 19.962 350.23 20.262C349.882 20.55 349.468 20.784 348.988 20.964C348.52 21.132 348.004 21.216 347.44 21.216ZM359.828 21.216C359 21.216 358.25 21.03 357.578 20.658C356.918 20.274 356.42 19.734 356.084 19.038L356.3 18.84V21H354.95V7.374H356.3V13.512L356.084 13.134C356.468 12.522 356.978 12.036 357.614 11.676C358.262 11.316 359 11.136 359.828 11.136C360.74 11.136 361.55 11.358 362.258 11.802C362.978 12.234 363.542 12.828 363.95 13.584C364.37 14.34 364.58 15.204 364.58 16.176C364.58 17.136 364.37 18 363.95 18.768C363.542 19.524 362.978 20.124 362.258 20.568C361.55 21 360.74 21.216 359.828 21.216ZM359.756 19.866C360.404 19.866 360.98 19.704 361.484 19.38C362 19.056 362.402 18.618 362.69 18.066C362.99 17.502 363.14 16.872 363.14 16.176C363.14 15.468 362.99 14.838 362.69 14.286C362.402 13.734 362 13.296 361.484 12.972C360.98 12.648 360.404 12.486 359.756 12.486C359.108 12.486 358.52 12.648 357.992 12.972C357.476 13.296 357.062 13.74 356.75 14.304C356.45 14.856 356.3 15.48 356.3 16.176C356.3 16.872 356.45 17.502 356.75 18.066C357.062 18.618 357.476 19.056 357.992 19.38C358.52 19.704 359.108 19.866 359.756 19.866ZM371.348 21.216C370.448 21.216 369.632 21 368.9 20.568C368.18 20.124 367.61 19.518 367.19 18.75C366.77 17.982 366.56 17.112 366.56 16.14C366.56 15.168 366.764 14.31 367.172 13.566C367.58 12.81 368.132 12.216 368.828 11.784C369.536 11.352 370.328 11.136 371.204 11.136C371.9 11.136 372.518 11.268 373.058 11.532C373.61 11.784 374.078 12.132 374.462 12.576C374.846 13.008 375.14 13.5 375.344 14.052C375.548 14.592 375.65 15.15 375.65 15.726C375.65 15.846 375.644 15.984 375.632 16.14C375.62 16.284 375.602 16.434 375.578 16.59H367.424V15.33H374.804L374.156 15.87C374.264 15.21 374.186 14.622 373.922 14.106C373.67 13.578 373.304 13.164 372.824 12.864C372.344 12.552 371.804 12.396 371.204 12.396C370.604 12.396 370.046 12.552 369.53 12.864C369.026 13.176 368.63 13.614 368.342 14.178C368.054 14.73 367.94 15.39 368 16.158C367.94 16.926 368.06 17.598 368.36 18.174C368.672 18.738 369.092 19.176 369.62 19.488C370.16 19.8 370.736 19.956 371.348 19.956C372.056 19.956 372.65 19.788 373.13 19.452C373.61 19.116 374 18.696 374.3 18.192L375.452 18.804C375.26 19.236 374.966 19.638 374.57 20.01C374.174 20.37 373.7 20.664 373.148 20.892C372.608 21.108 372.008 21.216 371.348 21.216ZM378.031 21V11.352H379.381V12.936L379.201 12.702C379.429 12.246 379.771 11.886 380.227 11.622C380.695 11.358 381.259 11.226 381.919 11.226H382.531V12.576H381.685C380.989 12.576 380.431 12.792 380.011 13.224C379.591 13.656 379.381 14.268 379.381 15.06V21H378.031ZM387.171 21V11.352H388.521V13.188L388.305 12.918C388.569 12.354 388.959 11.916 389.475 11.604C390.003 11.292 390.579 11.136 391.203 11.136C391.947 11.136 392.619 11.346 393.219 11.766C393.819 12.186 394.245 12.732 394.497 13.404L394.119 13.422C394.359 12.678 394.773 12.114 395.361 11.73C395.961 11.334 396.621 11.136 397.341 11.136C397.989 11.136 398.583 11.292 399.123 11.604C399.675 11.916 400.113 12.348 400.437 12.9C400.773 13.44 400.941 14.052 400.941 14.736V21H399.591V15.258C399.591 14.67 399.483 14.172 399.267 13.764C399.063 13.356 398.781 13.044 398.421 12.828C398.061 12.6 397.647 12.486 397.179 12.486C396.723 12.486 396.309 12.6 395.937 12.828C395.565 13.044 395.271 13.362 395.055 13.782C394.839 14.19 394.731 14.682 394.731 15.258V21H393.381V15.258C393.381 14.67 393.273 14.172 393.057 13.764C392.853 13.356 392.571 13.044 392.211 12.828C391.851 12.6 391.437 12.486 390.969 12.486C390.501 12.486 390.081 12.6 389.709 12.828C389.349 13.044 389.061 13.362 388.845 13.782C388.629 14.19 388.521 14.682 388.521 15.258V21H387.171ZM406.309 21.216C405.697 21.216 405.151 21.102 404.671 20.874C404.191 20.634 403.813 20.31 403.537 19.902C403.261 19.494 403.123 19.026 403.123 18.498C403.123 17.994 403.231 17.538 403.447 17.13C403.663 16.71 403.999 16.356 404.455 16.068C404.911 15.78 405.493 15.576 406.201 15.456L409.981 14.826V16.05L406.525 16.626C405.829 16.746 405.325 16.968 405.013 17.292C404.713 17.616 404.563 18 404.563 18.444C404.563 18.876 404.731 19.242 405.067 19.542C405.415 19.842 405.859 19.992 406.399 19.992C407.059 19.992 407.635 19.854 408.127 19.578C408.619 19.29 409.003 18.906 409.279 18.426C409.555 17.946 409.693 17.412 409.693 16.824V14.376C409.693 13.8 409.483 13.332 409.063 12.972C408.643 12.612 408.097 12.432 407.425 12.432C406.837 12.432 406.321 12.582 405.877 12.882C405.433 13.17 405.103 13.548 404.887 14.016L403.663 13.35C403.843 12.942 404.125 12.57 404.509 12.234C404.905 11.898 405.355 11.634 405.859 11.442C406.363 11.238 406.885 11.136 407.425 11.136C408.133 11.136 408.757 11.274 409.297 11.55C409.849 11.826 410.275 12.21 410.575 12.702C410.887 13.182 411.043 13.74 411.043 14.376V21H409.693V19.074L409.891 19.272C409.723 19.632 409.459 19.962 409.099 20.262C408.751 20.55 408.337 20.784 407.857 20.964C407.389 21.132 406.873 21.216 406.309 21.216ZM413.82 21V11.352H415.17V21H413.82ZM413.82 9.57V7.59H415.17V9.57H413.82ZM421.281 21.216C420.357 21.216 419.547 20.982 418.851 20.514C418.155 20.046 417.651 19.41 417.339 18.606L418.473 18.066C418.749 18.654 419.133 19.122 419.625 19.47C420.129 19.818 420.681 19.992 421.281 19.992C421.857 19.992 422.343 19.854 422.739 19.578C423.135 19.29 423.333 18.918 423.333 18.462C423.333 18.126 423.237 17.862 423.045 17.67C422.853 17.466 422.631 17.31 422.379 17.202C422.127 17.094 421.905 17.016 421.713 16.968L420.327 16.572C419.439 16.32 418.797 15.966 418.401 15.51C418.005 15.054 417.807 14.526 417.807 13.926C417.807 13.362 417.951 12.87 418.239 12.45C418.527 12.03 418.917 11.706 419.409 11.478C419.901 11.25 420.447 11.136 421.047 11.136C421.863 11.136 422.601 11.352 423.261 11.784C423.933 12.204 424.407 12.792 424.683 13.548L423.531 14.088C423.291 13.548 422.943 13.128 422.487 12.828C422.043 12.516 421.545 12.36 420.993 12.36C420.453 12.36 420.021 12.498 419.697 12.774C419.373 13.05 419.211 13.398 419.211 13.818C419.211 14.142 419.295 14.4 419.463 14.592C419.631 14.784 419.823 14.928 420.039 15.024C420.267 15.12 420.465 15.192 420.633 15.24L422.235 15.708C423.015 15.936 423.621 16.29 424.053 16.77C424.497 17.25 424.719 17.814 424.719 18.462C424.719 18.99 424.569 19.464 424.269 19.884C423.981 20.304 423.579 20.634 423.063 20.874C422.547 21.102 421.953 21.216 421.281 21.216ZM427.559 21V19.02H428.999V21H427.559ZM427.559 13.332V11.352H428.999V13.332H427.559Z" fill="black"/>
<path d="M29 57.625C36.875 57.625 43.375 64.125 43.375 72C43.375 80 36.875 86.375 29 86.375C21 86.375 14.625 80 14.625 72C14.625 64.125 21 57.625 29 57.625ZM29 81.375C34.125 81.375 38.25 77.25 38.25 72C38.25 66.875 34.125 62.75 29 62.75C23.75 62.75 19.625 66.875 19.625 72C19.625 77.25 23.875 81.375 29 81.375ZM47.25 57.125C47.25 55.25 45.75 53.75 43.875 53.75C42 53.75 40.5 55.25 40.5 57.125C40.5 59 42 60.5 43.875 60.5C45.75 60.5 47.25 59 47.25 57.125ZM56.75 60.5C57 65.125 57 79 56.75 83.625C56.5 88.125 55.5 92 52.25 95.375C49 98.625 45 99.625 40.5 99.875C35.875 100.125 22 100.125 17.375 99.875C12.875 99.625 9 98.625 5.625 95.375C2.375 92 1.375 88.125 1.125 83.625C0.875 79 0.875 65.125 1.125 60.5C1.375 56 2.375 52 5.625 48.75C9 45.5 12.875 44.5 17.375 44.25C22 44 35.875 44 40.5 44.25C45 44.5 49 45.5 52.25 48.75C55.5 52 56.5 56 56.75 60.5ZM50.75 88.5C52.25 84.875 51.875 76.125 51.875 72C51.875 68 52.25 59.25 50.75 55.5C49.75 53.125 47.875 51.125 45.5 50.25C41.75 48.75 33 49.125 29 49.125C24.875 49.125 16.125 48.75 12.5 50.25C10 51.25 8.125 53.125 7.125 55.5C5.625 59.25 6 68 6 72C6 76.125 5.625 84.875 7.125 88.5C8.125 91 10 92.875 12.5 93.875C16.125 95.375 24.875 95 29 95C33 95 41.75 95.375 45.5 93.875C47.875 92.875 49.875 91 50.75 88.5Z" fill="#5A5A5A"/>
<path d="M152 72C152 87.5 140.625 100.375 125.75 102.625V81H133L134.375 72H125.75V66.25C125.75 63.75 127 61.375 130.875 61.375H134.75V53.75C134.75 53.75 131.25 53.125 127.75 53.125C120.75 53.125 116.125 57.5 116.125 65.25V72H108.25V81H116.125V102.625C101.25 100.375 90 87.5 90 72C90 54.875 103.875 41 121 41C138.125 41 152 54.875 152 72Z" fill="#5A5A5A"/>
<path d="M253.625 55.625C255.125 60.875 255.125 72.125 255.125 72.125C255.125 72.125 255.125 83.25 253.625 88.625C252.875 91.625 250.5 93.875 247.625 94.625C242.25 96 221 96 221 96C221 96 199.625 96 194.25 94.625C191.375 93.875 189 91.625 188.25 88.625C186.75 83.25 186.75 72.125 186.75 72.125C186.75 72.125 186.75 60.875 188.25 55.625C189 52.625 191.375 50.25 194.25 49.5C199.625 48 221 48 221 48C221 48 242.25 48 247.625 49.5C250.5 50.25 252.875 52.625 253.625 55.625ZM214 82.25L231.75 72.125L214 62V82.25Z" fill="#5A5A5A"/>
</svg>
