<svg width="750" height="323" viewBox="0 0 750 323" fill="none" xmlns="http://www.w3.org/2000/svg">
    <path
        d="M85.1051 154.398L113.112 198.578L106.508 163.805L123.83 166.511L99.5213 114.86L101.876 157.029L85.1051 154.398Z"
        fill="#F6B140" />
    <path
        d="M113.112 200.437C113.331 200.437 113.578 200.414 113.797 200.339C114.73 200.04 115.304 199.173 115.14 198.278L109.029 166.086L123.498 168.345C124.24 168.471 125.008 168.197 125.473 167.677C125.938 167.129 126.049 166.41 125.747 165.789L101.438 114.138C101.053 113.319 100.067 112.847 99.081 113.045C98.1224 113.244 97.4356 114.063 97.4909 114.958L99.7376 154.795L85.4875 152.561C84.6924 152.435 83.8974 152.734 83.4596 153.33C82.9942 153.925 82.9665 154.694 83.3489 155.315L111.359 199.495C111.741 200.09 112.428 200.437 113.14 200.437H113.112ZM106.508 161.942C105.96 161.942 105.439 162.14 105.056 162.487C104.588 162.91 104.369 163.53 104.48 164.126L109.112 188.55L89.05 156.903L101.519 158.863C102.123 158.964 102.752 158.791 103.22 158.419C103.685 158.044 103.932 157.499 103.904 156.928L102.123 125.208L120.429 164.101L106.81 161.992C106.81 161.992 106.591 161.967 106.453 161.967L106.508 161.942Z"
        fill="#292929" />
    <path
        d="M204.547 207.461H169.495L157.081 236.849H196.189L206.741 210.59C207.425 208.876 206.467 207.461 204.547 207.461Z"
        fill="#292929" />
    <path
        d="M157.082 238.712H196.189C197.067 238.712 197.834 238.214 198.109 237.495L208.66 211.236C209.234 209.796 209.071 208.356 208.248 207.263C207.453 206.22 206.084 205.625 204.549 205.625H169.498C168.647 205.625 167.88 206.097 167.578 206.816L155.164 236.204C154.918 236.774 154.998 237.42 155.383 237.917C155.766 238.413 156.397 238.712 157.082 238.712ZM194.737 234.987H160.068L170.922 209.324H204.549C204.768 209.324 204.876 209.374 204.876 209.374C204.876 209.374 204.932 209.598 204.796 209.944L194.737 234.987Z"
        fill="#292929" />
    <path d="M169.498 207.461H131.019L118.002 236.849H157.081L169.498 207.461Z" fill="#292929" />
    <path
        d="M118.002 238.712H157.109C157.96 238.712 158.727 238.239 159.029 237.52L171.442 208.133C171.689 207.562 171.608 206.916 171.224 206.421C170.841 205.924 170.21 205.627 169.525 205.627H131.047C130.196 205.627 129.457 206.097 129.13 206.793L116.11 236.179C115.863 236.751 115.946 237.395 116.303 237.917C116.658 238.438 117.317 238.737 118.002 238.737V238.712ZM155.685 234.987H121.043L132.418 209.324H166.511L155.657 234.987H155.685Z"
        fill="#292929" />
    <path d="M131.017 207.461H92.5381L78.8917 236.849H117.999L131.017 207.461Z" fill="#292929" />
    <path
        d="M78.8917 238.711H117.999C118.85 238.711 119.589 238.238 119.919 237.545L132.936 208.157C133.183 207.586 133.1 206.941 132.745 206.42C132.388 205.898 131.731 205.601 131.044 205.601H92.5683C91.7456 205.601 91.0059 206.046 90.6763 206.742L77.0274 236.13C76.7532 236.7 76.8362 237.371 77.2211 237.892C77.6035 238.412 78.235 238.711 78.9194 238.711H78.8917ZM116.603 234.987H81.9888L93.9093 209.323H127.975L116.603 234.987Z"
        fill="#292929" />
    <path
        d="M92.5405 207.461H57.4887C55.5967 207.461 53.3777 208.851 52.5273 210.59L39.7842 236.849H78.8916L92.5405 207.461Z"
        fill="#292929" />
    <path
        d="M39.8119 238.711H78.9219C79.7421 238.711 80.4843 238.264 80.8114 237.57L94.4603 208.182C94.7345 207.611 94.6515 206.941 94.2691 206.42C93.8841 205.898 93.2551 205.601 92.5683 205.601H57.5164C54.8043 205.601 51.8431 207.413 50.6933 209.821L37.9501 236.08C37.6759 236.65 37.7313 237.321 38.1137 237.841C38.4986 238.364 39.1276 238.686 39.8396 238.686L39.8119 238.711ZM77.5507 234.987H42.9644L54.447 211.333C54.9955 210.218 56.5579 209.323 57.5164 209.323H89.4712L77.5507 234.987Z"
        fill="#292929" />
    <path d="M196.189 236.849H157.082L144.283 267.18H183.994L196.189 236.849Z" fill="#292929" />
    <path
        d="M144.283 269.042H184.022C184.9 269.042 185.667 268.544 185.942 267.825L198.136 237.495C198.355 236.924 198.272 236.279 197.89 235.781C197.505 235.286 196.876 234.987 196.219 234.987H157.109C156.261 234.987 155.494 235.459 155.192 236.178L142.366 266.509C142.119 267.081 142.202 267.725 142.585 268.222C142.97 268.718 143.599 269.017 144.283 269.017V269.042ZM182.57 265.317H147.272L158.508 238.711H193.258L182.57 265.317Z"
        fill="#292929" />
    <path d="M157.082 236.849H118.002L104.547 267.18H144.283L157.082 236.849Z" fill="#292929" />
    <path
        d="M104.547 269.041H144.283C145.133 269.041 145.901 268.569 146.203 267.85L159.029 237.52C159.275 236.947 159.192 236.304 158.81 235.806C158.425 235.311 157.796 235.012 157.109 235.012H118.002C117.151 235.012 116.412 235.484 116.082 236.178L102.627 266.508C102.38 267.079 102.463 267.725 102.818 268.247C103.175 268.768 103.832 269.066 104.519 269.066L104.547 269.041ZM142.859 265.317H107.588L119.373 238.711H154.095L142.859 265.317Z"
        fill="#292929" />
    <path d="M117.999 236.849H78.8917L64.8051 267.18H104.544L117.999 236.849Z" fill="#292929" />
    <path
        d="M64.805 269.042H104.544C105.394 269.042 106.134 268.569 106.464 267.876L119.919 237.545C120.165 236.972 120.085 236.329 119.728 235.806C119.37 235.286 118.714 234.987 118.029 234.987H78.9193C78.0966 234.987 77.357 235.434 77.0299 236.13L62.9432 266.461C62.669 267.031 62.7495 267.7 63.1344 268.222C63.5168 268.743 64.1483 269.042 64.8327 269.042H64.805ZM103.148 265.317H67.9021L80.2628 238.711H114.96L103.175 265.317H103.148Z"
        fill="#292929" />
    <path d="M78.8917 236.849H39.8119L25.0937 267.18H64.8051L78.8917 236.849Z" fill="#292929" />
    <path
        d="M25.0962 269.042H64.8353C65.6555 269.042 66.3976 268.594 66.7247 267.898L80.8113 237.568C81.0856 236.998 81.0025 236.329 80.6201 235.806C80.2352 235.286 79.6062 234.987 78.9219 234.987H39.8119C38.9917 234.987 38.2495 235.434 37.9224 236.105L23.2043 266.436C22.93 267.006 22.9854 267.677 23.3703 268.197C23.7528 268.718 24.3842 269.042 25.0962 269.042ZM63.464 265.317H28.2487L41.1554 238.711H75.8248L63.464 265.317Z"
        fill="#292929" />
    <path
        d="M183.994 267.18H144.255L131.019 298.503H167.085C169.467 298.503 172.154 296.668 173.058 294.409L183.994 267.18Z"
        fill="#292929" />
    <path
        d="M131.047 300.364H167.113C170.346 300.364 173.828 298.03 175.033 295.026L185.967 267.8C186.186 267.229 186.105 266.583 185.72 266.086C185.338 265.591 184.706 265.292 184.05 265.292H144.311C143.46 265.292 142.693 265.764 142.391 266.483L129.155 297.808C128.908 298.379 128.991 299.025 129.374 299.52C129.759 300.017 130.388 300.314 131.074 300.314L131.047 300.364ZM181.088 269.041L171.168 293.762C170.564 295.3 168.675 296.64 167.113 296.64H134.061L145.735 269.041H181.116H181.088Z"
        fill="#292929" />
    <path d="M144.281 267.18H104.544L90.6486 298.503H131.044L144.281 267.18Z" fill="#292929" />
    <path
        d="M90.6486 300.364H131.019C131.867 300.364 132.634 299.892 132.936 299.173L146.172 267.85C146.419 267.277 146.339 266.634 145.954 266.136C145.571 265.641 144.94 265.342 144.255 265.342H104.516C103.666 265.342 102.926 265.815 102.599 266.508L88.7038 297.831C88.4572 298.404 88.5377 299.048 88.895 299.57C89.2522 300.091 89.9089 300.389 90.5932 300.389L90.6486 300.364ZM129.62 296.64H93.6903L105.94 269.041H141.294L129.62 296.64Z"
        fill="#292929" />
    <path d="M104.544 267.18H64.8051L50.2781 298.503H90.6486L104.544 267.18Z" fill="#292929" />
    <path
        d="M50.2807 300.365H90.6486C91.499 300.365 92.2387 299.892 92.5683 299.198L106.464 267.876C106.71 267.303 106.627 266.659 106.27 266.137C105.915 265.616 105.256 265.317 104.572 265.317H64.8327C64.01 265.317 63.2703 265.765 62.9433 266.461L48.3887 297.784C48.1144 298.354 48.1975 299.025 48.5824 299.545C48.9648 300.066 49.5963 300.365 50.2807 300.365ZM89.28 296.64H53.3778L66.2039 269.042H101.53L89.28 296.64Z"
        fill="#292929" />
    <path
        d="M64.8051 267.18H25.0661L11.5279 295.077C10.6221 296.965 11.4725 298.503 13.4727 298.503H50.2504L64.8051 267.18Z"
        fill="#292929" />
    <path
        d="M13.5004 300.365H50.2806C51.1033 300.365 51.843 299.917 52.1701 299.224L66.7247 267.898C66.9989 267.328 66.9159 266.659 66.531 266.137C66.1486 265.616 65.5171 265.317 64.8327 265.317H25.0937C24.271 265.317 23.5313 265.765 23.2043 266.436L9.66358 294.333C8.89622 295.896 8.95156 297.485 9.80194 298.676C10.5693 299.744 11.9128 300.365 13.4752 300.365H13.5004ZM48.9095 296.64H13.5004C13.3368 296.64 13.2286 296.617 13.2286 296.592C13.2286 296.592 13.2286 296.319 13.4475 295.821L26.4372 269.017H61.7356L48.9095 296.615V296.64Z"
        fill="#292929" />
    <path
        d="M195.422 202.3H160.37L147.956 231.687H187.064L197.616 205.428C198.3 203.714 197.341 202.3 195.422 202.3Z"
        fill="#D7F0EE" />
    <path
        d="M147.984 233.547H187.091C187.969 233.547 188.737 233.052 189.011 232.331L199.56 206.071C200.137 204.631 199.973 203.191 199.15 202.101C198.355 201.058 196.987 200.462 195.449 200.462H160.397C159.55 200.462 158.782 200.935 158.48 201.653L146.064 231.041C145.818 231.612 145.901 232.257 146.286 232.753C146.668 233.25 147.3 233.547 147.984 233.547ZM185.64 229.825H150.97L161.824 204.159H195.449C195.671 204.159 195.779 204.209 195.779 204.209C195.779 204.209 195.834 204.433 195.698 204.78L185.64 229.825Z"
        fill="#292929" />
    <path d="M160.4 202.3H121.894L108.876 231.687H147.984L160.4 202.3Z" fill="#D7F0EE" />
    <path
        d="M108.876 233.547H147.984C148.834 233.547 149.602 233.077 149.904 232.356L162.317 202.968C162.564 202.397 162.483 201.754 162.098 201.256C161.716 200.759 161.084 200.462 160.4 200.462H121.921C121.071 200.462 120.331 200.935 120.004 201.628L106.984 231.016C106.738 231.587 106.821 232.232 107.178 232.753C107.533 233.275 108.192 233.572 108.876 233.572V233.547ZM146.56 229.825H111.918L123.293 204.161H157.411L146.56 229.825Z"
        fill="#292929" />
    <path d="M121.891 202.3H83.4128L69.7665 231.687H108.874L121.891 202.3Z" fill="#D7F0EE" />
    <path
        d="M69.7664 233.547H108.874C109.724 233.547 110.464 233.077 110.794 232.381L123.811 202.993C124.058 202.423 123.975 201.777 123.62 201.256C123.263 200.736 122.606 200.437 121.919 200.437H83.443C82.6203 200.437 81.8806 200.885 81.551 201.578L67.9022 230.966C67.6279 231.537 67.7109 232.207 68.0959 232.728C68.4783 233.25 69.1098 233.547 69.7941 233.547H69.7664ZM107.478 229.825H72.8636L84.784 204.161H118.85L107.478 229.825Z"
        fill="#292929" />
    <path
        d="M83.4153 202.3H48.3634C46.4715 202.3 44.2524 203.689 43.402 205.428L30.6589 231.687H69.7664L83.4153 202.3Z"
        fill="#D7F0EE" />
    <path
        d="M30.6892 233.547H69.7967C70.6194 233.547 71.3591 233.102 71.6861 232.406L85.335 203.018C85.6093 202.448 85.5262 201.777 85.1438 201.256C84.7589 200.736 84.1299 200.437 83.4431 200.437H48.3912C45.679 200.437 42.7203 202.249 41.568 204.657L28.8249 230.916C28.5507 231.489 28.606 232.157 28.9884 232.68C29.3734 233.2 30.0023 233.522 30.7143 233.522L30.6892 233.547ZM68.4255 229.825H33.8391L45.3218 206.172C45.8702 205.054 47.4326 204.161 48.3912 204.161H80.3485L68.4255 229.825Z"
        fill="#292929" />
    <path d="M187.064 231.687H147.984L135.158 262.017H174.897L187.064 231.687Z" fill="#D7F0EE" />
    <path
        d="M135.158 263.877H174.897C175.775 263.877 176.542 263.382 176.816 262.661L189.011 232.33C189.23 231.76 189.149 231.114 188.765 230.619C188.382 230.121 187.751 229.825 187.094 229.825H147.984C147.136 229.825 146.369 230.295 146.067 231.016L133.241 261.346C132.994 261.917 133.077 262.562 133.459 263.058C133.844 263.555 134.473 263.852 135.158 263.852V263.877ZM173.445 260.155H138.147L149.383 233.547H184.133L173.445 260.155Z"
        fill="#292929" />
    <path d="M147.984 231.687H108.876L95.4187 262.017H135.158L147.984 231.687Z" fill="#D7F0EE" />
    <path
        d="M95.4213 263.878H135.158C136.008 263.878 136.776 263.408 137.077 262.686L149.904 232.356C150.15 231.786 150.067 231.14 149.685 230.645C149.3 230.147 148.671 229.851 147.984 229.851H108.876C108.026 229.851 107.286 230.321 106.957 231.017L93.5017 261.347C93.2551 261.917 93.3381 262.563 93.6929 263.084C94.0501 263.606 94.7068 263.903 95.3936 263.903L95.4213 263.878ZM133.734 260.156H98.4631L110.248 233.547H144.97L133.734 260.156Z"
        fill="#292929" />
    <path d="M108.874 231.687H69.7665L55.7075 262.017H95.4188L108.874 231.687Z" fill="#D7F0EE" />
    <path
        d="M55.7074 263.877H95.4464C96.2968 263.877 97.0365 263.407 97.3635 262.711L110.821 232.381C111.068 231.81 110.985 231.164 110.63 230.644C110.273 230.121 109.616 229.825 108.929 229.825H69.8218C68.999 229.825 68.2594 230.272 67.9298 230.966L53.8431 261.296C53.5714 261.867 53.6519 262.537 54.0368 263.058C54.4193 263.58 55.0508 263.877 55.7351 263.877H55.7074ZM94.0476 260.155H58.8045L71.1652 233.547H105.86L94.0752 260.155H94.0476Z"
        fill="#292929" />
    <path d="M69.7665 231.687H30.6866L15.9685 262.017H55.7075L69.7665 231.687Z" fill="#D7F0EE" />
    <path
        d="M15.971 263.877H55.71C56.5302 263.877 57.2724 263.432 57.5995 262.736L71.6861 232.406C71.9604 231.835 71.8798 231.164 71.4949 230.644C71.1125 230.121 70.481 229.825 69.7967 229.825H30.6866C29.8664 229.825 29.1268 230.272 28.7972 230.941L14.079 261.271C13.8048 261.841 13.8602 262.512 14.2451 263.035C14.6275 263.555 15.259 263.877 15.971 263.877ZM54.3388 260.155H19.1235L32.0302 233.547H66.6996L54.3388 260.155Z"
        fill="#292929" />
    <path
        d="M174.894 262.017H135.158L121.919 293.34H157.985C160.37 293.34 163.057 291.503 163.96 289.244L174.894 262.017Z"
        fill="#D7F0EE" />
    <path
        d="M121.922 295.202H157.987C161.22 295.202 164.702 292.868 165.907 289.865L176.842 262.638C177.061 262.065 176.98 261.422 176.595 260.924C176.213 260.429 175.581 260.13 174.925 260.13H135.186C134.335 260.13 133.568 260.603 133.266 261.321L120.03 292.644C119.783 293.215 119.866 293.861 120.248 294.358C120.633 294.853 121.262 295.152 121.949 295.152L121.922 295.202ZM171.963 263.877L162.043 288.598C161.439 290.139 159.55 291.478 157.987 291.478H124.908L136.582 263.877H171.963Z"
        fill="#292929" />
    <path d="M135.155 262.017H95.4188L81.5233 293.34H121.919L135.155 262.017Z" fill="#D7F0EE" />
    <path
        d="M81.5233 295.203H121.894C122.742 295.203 123.509 294.73 123.811 294.009L137.047 262.686C137.294 262.116 137.213 261.47 136.828 260.975C136.446 260.477 135.814 260.181 135.13 260.181H95.3911C94.5407 260.181 93.801 260.651 93.474 261.347L79.5785 292.67C79.332 293.24 79.4125 293.886 79.7697 294.406C80.127 294.929 80.7836 295.226 81.468 295.226L81.5233 295.203ZM120.495 291.479H84.5651L96.8176 263.878H132.169L120.495 291.479Z"
        fill="#292929" />
    <path d="M95.4188 262.017H55.7075L41.1554 293.34H81.5234L95.4188 262.017Z" fill="#D7F0EE" />
    <path
        d="M41.1553 295.202H81.5233C82.3737 295.202 83.1133 294.73 83.4429 294.034L97.3384 262.711C97.5849 262.14 97.5019 261.495 97.1446 260.974C96.7899 260.452 96.1307 260.155 95.4464 260.155H55.7074C54.8847 260.155 54.145 260.602 53.8179 261.296L39.2633 292.619C38.9891 293.192 39.0721 293.86 39.457 294.383C39.8395 294.903 40.471 295.202 41.1553 295.202ZM80.1546 291.478H44.2524L57.0786 263.877H92.4046L80.1546 291.478Z"
        fill="#292929" />
    <path
        d="M55.7075 262.017H15.971L2.43029 289.915C1.52707 291.802 2.37742 293.34 4.37757 293.34H41.1554L55.7075 262.017Z"
        fill="#D7F0EE" />
    <path
        d="M4.37754 295.202H41.1553C41.978 295.202 42.7177 294.755 43.0448 294.059L57.5994 262.736C57.8736 262.165 57.7906 261.495 57.4057 260.974C57.0233 260.452 56.3918 260.155 55.7074 260.155H15.9684C15.1457 260.155 14.406 260.602 14.079 261.271L0.540779 289.171C-0.226578 290.734 -0.17374 292.322 0.67664 293.513C1.444 294.581 2.78752 295.202 4.3499 295.202H4.37754ZM39.7842 291.478H4.37754C4.21149 291.478 4.10332 291.453 4.10332 291.428C4.10332 291.428 4.10334 291.156 4.32222 290.659L17.3119 263.854H52.6103L39.7842 291.453V291.478Z"
        fill="#292929" />
    <path
        d="M131.047 321.313C132.171 321.313 133.102 320.469 133.102 319.451V298.502C133.102 297.485 132.171 296.64 131.047 296.64C129.925 296.64 128.994 297.485 128.994 298.502V319.451C128.994 320.469 129.925 321.313 131.047 321.313Z"
        fill="#292929" />
    <path
        d="M41.1554 322.751C42.2775 322.751 43.2109 321.909 43.2109 320.891V298.502C43.2109 297.485 42.2775 296.64 41.1554 296.64C40.0333 296.64 39.0999 297.485 39.0999 298.502V320.891C39.0999 321.909 40.0333 322.751 41.1554 322.751Z"
        fill="#292929" />
    <path
        d="M196.192 323C197.314 323 198.247 322.156 198.247 321.138V236.849C198.247 235.831 197.314 234.987 196.192 234.987C195.069 234.987 194.136 235.831 194.136 236.849V321.138C194.136 322.156 195.069 323 196.192 323Z"
        fill="#292929" />
    <path
        d="M309.758 96.9081L341.968 147.702L334.373 107.723L354.294 110.835L326.338 51.4504L329.046 99.9332L309.758 96.9081Z"
        fill="#F6B140" />
    <path
        d="M341.968 149.84C342.22 149.84 342.503 149.814 342.755 149.728C343.829 149.384 344.488 148.387 344.3 147.358L337.272 110.346L353.912 112.944C354.766 113.088 355.649 112.773 356.184 112.175C356.719 111.545 356.846 110.719 356.499 110.005L328.543 50.6212C328.1 49.6793 326.966 49.1362 325.831 49.3644C324.729 49.5927 323.939 50.5346 324.003 51.5631L326.587 97.3644L310.198 94.7959C309.284 94.6516 308.369 94.9953 307.866 95.68C307.331 96.3648 307.299 97.249 307.739 97.9626L339.951 148.757C340.391 149.442 341.181 149.84 342 149.84H341.968ZM334.373 105.582C333.742 105.582 333.143 105.81 332.703 106.209C332.165 106.694 331.913 107.408 332.041 108.093L337.368 136.174L314.295 99.7887L328.635 102.042C329.33 102.158 330.053 101.959 330.591 101.531C331.126 101.101 331.41 100.473 331.378 99.8176L329.33 63.3486L350.382 108.064L334.72 105.639C334.72 105.639 334.468 105.611 334.309 105.611L334.373 105.582Z"
        fill="#292929" />
    <path
        d="M581.286 55.2729L618.762 114.4L609.936 67.8587L633.134 71.4531L600.607 2.3667L603.79 58.7834L581.318 55.2729H581.286Z"
        fill="#F6B140" />
    <path
        d="M618.761 116.541C619.013 116.541 619.297 116.512 619.549 116.425C620.62 116.084 621.282 115.085 621.093 114.056L612.835 70.5111L632.724 73.594C633.574 73.7356 634.457 73.4208 634.993 72.8226C635.528 72.1955 635.655 71.3665 635.308 70.6528L602.781 1.56646C602.34 0.624566 601.174 0.0840988 600.071 0.312358C598.967 0.540617 598.179 1.48253 598.242 2.50838L601.268 56.2436L581.727 53.1897C580.813 53.0454 579.899 53.3891 579.394 54.0739C578.859 54.7587 578.827 55.6428 579.268 56.3565L616.744 115.483C617.185 116.168 617.973 116.57 618.792 116.57L618.761 116.541ZM609.936 65.7177C609.305 65.7177 608.706 65.946 608.265 66.3448C607.73 66.8301 607.477 67.5438 607.603 68.2285L614.191 102.843L585.855 58.1537L603.348 60.8928C604.042 61.0082 604.767 60.8088 605.302 60.3812C605.838 59.9535 606.122 59.3239 606.09 58.6679L603.601 14.265L629.225 68.6851L610.314 65.7466C610.314 65.7466 610.062 65.7177 609.904 65.7177H609.936Z"
        fill="#292929" />
    <path
        d="M744.077 150.184H692.009L673.57 193.815H731.659L747.323 154.807C748.364 152.238 746.914 150.184 744.077 150.184Z"
        fill="#292929" />
    <path
        d="M673.571 195.956H731.659C732.668 195.956 733.551 195.384 733.866 194.558L749.53 155.549C750.319 153.608 750.098 151.669 748.995 150.212C747.923 148.843 746.126 148.043 744.078 148.043H692.009C691.032 148.043 690.15 148.586 689.803 149.412L671.365 193.044C671.081 193.702 671.176 194.442 671.617 195.014C672.058 195.586 672.783 195.927 673.571 195.927V195.956ZM729.989 191.674H677.007L693.648 152.325H744.078C744.361 152.325 744.897 152.382 745.118 152.666C745.339 152.952 745.339 153.495 745.118 154.093L730.021 191.674H729.989Z"
        fill="#292929" />
    <path d="M692.009 150.184H634.867L615.514 193.815H673.571L692.009 150.184Z" fill="#292929" />
    <path
        d="M615.514 195.956H673.571C674.548 195.956 675.431 195.413 675.778 194.587L694.216 150.955C694.5 150.297 694.405 149.557 693.964 148.985C693.523 148.415 692.797 148.072 692.01 148.072H634.835C633.858 148.072 633.007 148.615 632.629 149.413L613.277 193.044C612.993 193.703 613.088 194.442 613.497 195.043C613.907 195.642 614.663 195.985 615.451 195.985L615.514 195.956ZM671.964 191.674H619.013L636.474 152.325H688.606L671.964 191.674Z"
        fill="#292929" />
    <path d="M634.866 150.184H577.692L557.426 193.815H615.514L634.866 150.184Z" fill="#292929" />
    <path
        d="M557.458 195.956H615.515C616.492 195.956 617.343 195.413 617.722 194.615L637.074 150.984C637.357 150.325 637.263 149.585 636.853 148.985C636.443 148.386 635.687 148.043 634.899 148.043H577.725C576.779 148.043 575.928 148.557 575.55 149.357L555.283 192.989C554.968 193.645 555.063 194.416 555.504 195.014C555.945 195.612 556.67 195.956 557.458 195.956ZM613.939 191.674H561.02L579.301 152.325H631.4L613.939 191.674Z"
        fill="#292929" />
    <path
        d="M577.692 150.184H525.622C522.819 150.184 519.508 152.267 518.279 154.807L499.37 193.815H557.425L577.692 150.184Z"
        fill="#292929" />
    <path
        d="M499.367 195.956H557.425C558.37 195.956 559.221 195.442 559.599 194.644L579.866 151.01C580.181 150.354 580.087 149.585 579.645 148.985C579.204 148.386 578.479 148.043 577.691 148.043H525.622C521.904 148.043 517.712 150.64 516.103 153.951L497.194 192.96C496.879 193.616 496.942 194.387 497.382 194.985C497.825 195.586 498.548 195.956 499.367 195.956ZM555.88 191.674H502.993L520.455 155.662C521.305 153.865 523.733 152.325 525.654 152.325H574.161L555.88 191.674Z"
        fill="#292929" />
    <path d="M731.661 193.815H673.573L654.536 238.848H713.539L731.661 193.815Z" fill="#292929" />
    <path
        d="M654.535 240.986H713.538C714.546 240.986 715.429 240.414 715.744 239.588L733.836 194.558C734.088 193.902 733.993 193.159 733.552 192.587C733.111 192.018 732.386 191.674 731.629 191.674H673.572C672.595 191.674 671.713 192.217 671.366 193.044L652.329 238.076C652.045 238.732 652.14 239.475 652.581 240.044C653.023 240.616 653.747 240.957 654.535 240.957V240.986ZM711.899 236.707H657.971L675.211 195.956H728.257L711.867 236.707H711.899Z"
        fill="#292929" />
    <path d="M673.572 193.815H615.515L595.533 238.848H654.535L673.572 193.815Z" fill="#292929" />
    <path
        d="M595.533 240.986H654.535C655.512 240.986 656.395 240.443 656.741 239.616L675.779 194.587C676.062 193.931 675.968 193.188 675.526 192.616C675.085 192.047 674.36 191.703 673.572 191.703H615.515C614.538 191.703 613.687 192.246 613.309 193.044L593.326 238.076C593.043 238.732 593.137 239.475 593.547 240.073C593.957 240.671 594.713 241.015 595.501 241.015L595.533 240.986ZM652.928 236.707H599.031L617.123 195.956H670.168L652.928 236.707Z"
        fill="#292929" />
    <path d="M615.513 193.815H557.425L536.528 238.848H595.531L615.513 193.815Z" fill="#292929" />
    <path
        d="M536.531 240.986H595.532C596.509 240.986 597.36 240.443 597.738 239.645L617.721 194.615C618.005 193.96 617.91 193.217 617.5 192.616C617.09 192.018 616.334 191.674 615.546 191.674H557.489C556.544 191.674 555.693 192.189 555.314 192.989L534.387 238.019C534.071 238.675 534.167 239.446 534.606 240.044C535.049 240.642 535.773 240.986 536.562 240.986H536.531ZM593.925 236.707H540.06L558.971 195.956H611.985L593.893 236.707H593.925Z"
        fill="#292929" />
    <path d="M557.424 193.815H499.367L477.524 238.848H536.528L557.424 193.815Z" fill="#292929" />
    <path
        d="M477.527 240.986H536.528C537.474 240.986 538.325 240.472 538.704 239.674L559.631 194.644C559.947 193.986 559.852 193.217 559.411 192.616C558.969 192.018 558.244 191.674 557.456 191.674H499.399C498.456 191.674 497.602 192.189 497.226 192.96L475.383 237.99C475.068 238.646 475.131 239.417 475.571 240.015C476.014 240.616 476.737 240.986 477.556 240.986H477.527ZM534.954 236.707H481.15L500.912 195.956H553.895L534.983 236.707H534.954Z"
        fill="#292929" />
    <path
        d="M713.535 238.848H654.533L634.865 285.36H688.415C691.977 285.36 695.948 282.621 697.303 279.255L713.535 238.819V238.848Z"
        fill="#292929" />
    <path
        d="M634.866 287.53H688.416C692.955 287.53 697.809 284.248 699.511 280.024L715.743 239.588C715.995 238.932 715.9 238.19 715.459 237.62C715.018 237.049 714.293 236.705 713.536 236.705H654.534C653.557 236.705 652.674 237.248 652.328 238.077L632.66 284.589C632.377 285.245 632.471 285.988 632.912 286.56C633.354 287.129 634.078 287.473 634.866 287.473V287.53ZM710.164 241.015L695.067 278.568C694.058 281.053 690.969 283.249 688.416 283.249H638.302L656.141 241.015H710.132H710.164Z"
        fill="#292929" />
    <path d="M654.535 238.848H595.533L574.92 285.389H634.868L654.535 238.848Z" fill="#292929" />
    <path
        d="M574.92 287.53H634.899C635.877 287.53 636.759 286.987 637.106 286.158L656.773 239.646C657.057 238.99 656.962 238.247 656.521 237.675C656.08 237.106 655.355 236.762 654.567 236.762H595.565C594.587 236.762 593.736 237.305 593.358 238.103L572.714 284.618C572.43 285.274 572.524 286.016 572.934 286.614C573.344 287.215 574.101 287.556 574.888 287.556L574.92 287.53ZM633.261 283.248H578.418L597.14 241.015H651.1L633.261 283.248Z"
        fill="#292929" />
    <path d="M595.53 238.848H536.528L514.937 285.389H574.917L595.53 238.848Z" fill="#292929" />
    <path
        d="M514.94 287.53H574.918C575.895 287.53 576.746 286.987 577.124 286.187L597.769 239.675C598.053 239.016 597.958 238.276 597.548 237.675C597.139 237.077 596.382 236.733 595.594 236.733H536.591C535.645 236.733 534.795 237.248 534.418 238.048L512.827 284.56C512.512 285.219 512.607 285.988 513.047 286.588C513.49 287.187 514.213 287.53 515 287.53H514.94ZM573.311 283.248H518.501L538.105 241.015H592.033L573.311 283.248Z"
        fill="#292929" />
    <path
        d="M536.531 238.848H477.527L457.42 280.281C456.063 283.078 457.357 285.36 460.32 285.36H514.94L536.531 238.848Z"
        fill="#292929" />
    <path
        d="M460.32 287.53H514.94C515.886 287.53 516.736 287.016 517.115 286.216L538.704 239.703C539.019 239.045 538.926 238.276 538.484 237.675C538.044 237.077 537.318 236.733 536.531 236.733H477.527C476.581 236.733 475.73 237.248 475.351 238.019L455.244 279.452C454.203 281.593 454.266 283.734 455.401 285.303C456.411 286.73 458.207 287.53 460.288 287.53H460.32ZM513.363 283.248H460.32C460.033 283.248 459.562 283.219 459.373 282.962C459.182 282.679 459.151 282.02 459.593 281.165L479.072 241.015H532.969L513.363 283.248Z"
        fill="#292929" />
    <path
        d="M730.526 142.51H678.458L660.019 186.141H718.076L733.741 147.133C734.781 144.564 733.331 142.51 730.494 142.51H730.526Z"
        fill="#007AAB" />
    <path
        d="M660.051 188.279H718.108C719.116 188.279 719.999 187.71 720.314 186.881L735.979 147.872C736.767 145.931 736.546 143.992 735.443 142.536C734.371 141.166 732.575 140.369 730.526 140.369H678.458C677.481 140.369 676.598 140.909 676.251 141.738L657.813 185.37C657.53 186.026 657.624 186.768 658.065 187.338C658.507 187.91 659.232 188.251 660.019 188.251L660.051 188.279ZM716.469 184H663.486L680.128 144.648H730.558C730.841 144.648 731.377 144.706 731.598 144.989C731.818 145.275 731.818 145.818 731.598 146.416L716.5 184H716.469Z"
        fill="#292929" />
    <path d="M678.489 142.507H621.314L601.962 186.141H660.05L678.489 142.507Z" fill="#007AAB" />
    <path
        d="M601.963 188.279H660.019C660.996 188.279 661.879 187.736 662.226 186.91L680.664 143.278C680.948 142.622 680.853 141.88 680.412 141.308C679.971 140.738 679.246 140.395 678.458 140.395H621.283C620.306 140.395 619.455 140.938 619.077 141.738L599.725 185.37C599.441 186.026 599.536 186.768 599.946 187.366C600.355 187.964 601.112 188.308 601.9 188.308L601.963 188.279ZM658.412 184H605.461L622.922 144.648H675.054L658.412 184Z"
        fill="#292929" />
    <path d="M621.314 142.51H564.172L543.905 186.141H601.962L621.314 142.51Z" fill="#007AAB" />
    <path
        d="M543.907 188.279H601.963C602.94 188.279 603.791 187.736 604.17 186.939L623.522 143.307C623.806 142.651 623.711 141.909 623.301 141.308C622.892 140.71 622.135 140.369 621.347 140.369H564.173C563.227 140.369 562.376 140.88 561.998 141.68L541.732 185.312C541.416 185.968 541.511 186.739 541.952 187.338C542.394 187.938 543.118 188.279 543.907 188.279ZM600.387 184H547.468L565.749 144.648H617.848L600.387 184Z"
        fill="#292929" />
    <path
        d="M564.174 142.51H512.107C509.3 142.51 505.99 144.593 504.763 147.133L485.852 186.141H543.908L564.174 142.51Z"
        fill="#007AAB" />
    <path
        d="M485.849 188.279H543.907C544.852 188.279 545.703 187.765 546.082 186.968L566.348 143.336C566.663 142.68 566.568 141.909 566.127 141.308C565.686 140.71 564.961 140.369 564.173 140.369H512.104C508.386 140.369 504.193 142.963 502.587 146.275L483.676 185.283C483.36 185.939 483.424 186.711 483.864 187.309C484.306 187.91 485.03 188.279 485.849 188.279ZM542.362 184H489.474L506.936 147.988C507.787 146.188 510.215 144.648 512.136 144.648H560.643L542.362 184Z"
        fill="#292929" />
    <path d="M718.107 186.141H660.05L641.013 231.2H700.015L718.107 186.141Z" fill="#007AAB" />
    <path
        d="M641.014 233.338H700.017C701.025 233.338 701.908 232.769 702.223 231.94L720.315 186.91C720.567 186.254 720.472 185.511 720.031 184.942C719.59 184.37 718.865 184.026 718.108 184.026H660.051C659.074 184.026 658.192 184.569 657.845 185.398L638.808 230.429C638.524 231.084 638.619 231.827 639.06 232.396C639.501 232.968 640.227 233.309 641.014 233.309V233.338ZM698.378 229.059H644.45L661.691 188.308H714.767L698.378 229.059Z"
        fill="#292929" />
    <path d="M660.051 186.141H601.963L582.012 231.2H641.014L660.051 186.141Z" fill="#007AAB" />
    <path
        d="M582.012 233.338H641.014C641.991 233.338 642.874 232.795 643.221 231.969L662.258 186.939C662.541 186.283 662.447 185.54 662.006 184.968C661.564 184.399 660.839 184.055 660.051 184.055H601.995C601.018 184.055 600.167 184.598 599.788 185.398L579.806 230.429C579.522 231.084 579.617 231.827 580.026 232.425C580.436 233.023 581.192 233.367 581.981 233.367L582.012 233.338ZM639.407 229.059H585.511L603.602 188.308H656.648L639.407 229.059Z"
        fill="#292929" />
    <path d="M601.961 186.141H543.905L522.978 231.2H582.01L601.961 186.141Z" fill="#007AAB" />
    <path
        d="M522.978 233.338H581.98C582.957 233.338 583.808 232.795 584.187 231.997L604.169 186.968C604.453 186.312 604.358 185.569 603.948 184.968C603.539 184.37 602.782 184.026 601.995 184.026H543.938C542.992 184.026 542.141 184.541 541.763 185.341L520.834 230.371C520.518 231.027 520.614 231.798 521.057 232.396C521.496 232.997 522.223 233.338 523.01 233.338H522.978ZM580.373 229.059H526.508L545.419 188.308H598.433L580.341 229.059H580.373Z"
        fill="#292929" />
    <path d="M543.906 186.141H485.849L463.974 231.2H522.978L543.906 186.141Z" fill="#007AAB" />
    <path
        d="M463.974 233.338H522.978C523.921 233.338 524.775 232.824 525.151 232.026L546.079 186.996C546.395 186.34 546.3 185.569 545.859 184.968C545.418 184.37 544.693 184.026 543.905 184.026H485.849C484.903 184.026 484.052 184.541 483.673 185.312L461.83 230.342C461.515 230.998 461.578 231.769 462.021 232.367C462.461 232.968 463.187 233.338 464.006 233.338H463.974ZM521.401 229.059H467.6L487.362 188.308H540.343L521.433 229.059H521.401Z"
        fill="#292929" />
    <path
        d="M700.014 231.2H641.012L621.344 277.712H674.894C678.456 277.712 682.427 274.973 683.782 271.607L700.014 231.171V231.2Z"
        fill="#007AAB" />
    <path
        d="M621.346 279.853H674.895C679.434 279.853 684.288 276.571 685.99 272.347L702.222 231.911C702.474 231.255 702.38 230.512 701.938 229.943C701.497 229.371 700.772 229.03 700.016 229.03H641.013C640.036 229.03 639.154 229.571 638.807 230.4L619.14 276.912C618.856 277.57 618.95 278.31 619.392 278.882C619.833 279.452 620.558 279.795 621.346 279.795V279.853ZM696.643 233.338L681.546 270.893C680.537 273.375 677.449 275.571 674.895 275.571H624.781L642.621 233.338H696.612H696.643Z"
        fill="#292929" />
    <path d="M641.015 231.2H582.012L561.368 277.712H621.347L641.015 231.2Z" fill="#007AAB" />
    <path
        d="M561.368 279.853H621.348C622.325 279.853 623.207 279.31 623.554 278.484L643.221 231.969C643.505 231.313 643.411 230.57 642.969 230.001C642.528 229.429 641.803 229.085 641.015 229.085H582.013C581.036 229.085 580.185 229.629 579.807 230.429L559.162 276.941C558.878 277.597 558.973 278.34 559.382 278.94C559.792 279.539 560.549 279.882 561.337 279.882L561.368 279.853ZM619.709 275.572H564.867L583.589 233.338H637.548L619.709 275.572Z"
        fill="#292929" />
    <path d="M582.01 231.2H522.975L501.387 277.712H561.365L582.01 231.2Z" fill="#007AAB" />
    <path
        d="M501.387 279.853H561.366C562.343 279.853 563.194 279.31 563.573 278.512L584.217 231.997C584.501 231.341 584.406 230.599 583.996 230C583.587 229.4 582.83 229.059 582.042 229.059H523.041C522.095 229.059 521.244 229.57 520.865 230.37L499.274 276.885C498.959 277.541 499.054 278.31 499.497 278.911C499.937 279.509 500.663 279.853 501.45 279.853H501.387ZM559.759 275.571H504.948L524.552 233.338H578.481L559.759 275.571Z"
        fill="#292929" />
    <path
        d="M522.978 231.2H463.977L443.867 272.633C442.513 275.43 443.804 277.712 446.767 277.712H501.39L522.978 231.2Z"
        fill="#007AAB" />
    <path
        d="M446.767 279.853H501.387C502.333 279.853 503.183 279.338 503.563 278.538L525.154 232.026C525.469 231.37 525.373 230.599 524.931 230C524.491 229.4 523.765 229.059 522.978 229.059H463.977C463.031 229.059 462.18 229.57 461.801 230.342L441.692 271.777C440.653 273.915 440.714 276.056 441.851 277.625C442.858 279.053 444.654 279.853 446.735 279.853H446.767ZM499.813 275.571H446.767C446.483 275.571 446.012 275.542 445.821 275.288C445.632 275.002 445.601 274.346 446.04 273.488L465.519 233.338H519.416L499.813 275.571Z"
        fill="#292929" />
    <path
        d="M634.869 318.633C636.16 318.633 637.231 317.663 637.231 316.492V285.389C637.231 284.219 636.16 283.248 634.869 283.248C633.577 283.248 632.506 284.219 632.506 285.389V316.492C632.506 317.663 633.577 318.633 634.869 318.633Z"
        fill="#292929" />
    <path
        d="M501.387 320.745C502.68 320.745 503.751 319.775 503.751 318.605V285.389C503.751 284.219 502.68 283.248 501.387 283.248C500.096 283.248 499.026 284.219 499.026 285.389V318.605C499.026 319.775 500.096 320.745 501.387 320.745Z"
        fill="#292929" />
    <path
        d="M731.661 321.115C732.953 321.115 734.024 320.145 734.024 318.975V193.844C734.024 192.674 732.953 191.703 731.661 191.703C730.369 191.703 729.298 192.674 729.298 193.844V318.975C729.298 320.145 730.369 321.115 731.661 321.115Z"
        fill="#292929" />
    <path
        d="M442.068 188.28H401.756L387.48 222.068H432.456L444.591 191.877C445.378 189.907 444.275 188.28 442.068 188.28Z"
        fill="#292929" />
    <path
        d="M387.48 224.209H432.456C433.465 224.209 434.348 223.637 434.663 222.81L446.798 192.62C447.458 190.964 447.27 189.309 446.324 188.052C445.41 186.853 443.836 186.168 442.071 186.168H401.759C400.781 186.168 399.898 186.711 399.551 187.538L385.275 221.325C384.991 221.981 385.084 222.724 385.526 223.295C385.966 223.865 386.693 224.209 387.48 224.209ZM430.786 219.927H390.914L403.397 190.421H442.071C442.322 190.421 442.447 190.479 442.447 190.479C442.447 190.479 442.51 190.736 442.354 191.135L430.786 219.927Z"
        fill="#292929" />
    <path d="M401.759 188.28H357.506L342.535 222.068H387.48L401.759 188.28Z" fill="#292929" />
    <path
        d="M342.535 224.209H387.511C388.489 224.209 389.372 223.665 389.719 222.839L403.995 189.051C404.279 188.396 404.186 187.653 403.744 187.084C403.304 186.512 402.578 186.171 401.791 186.171H357.538C356.56 186.171 355.709 186.711 355.333 187.511L340.36 221.296C340.076 221.955 340.171 222.695 340.582 223.296C340.99 223.894 341.748 224.237 342.535 224.237V224.209ZM385.874 219.927H346.034L359.115 190.421H398.324L385.842 219.927H385.874Z"
        fill="#292929" />
    <path d="M357.503 188.28H313.251L297.557 222.068H342.533L357.503 188.28Z" fill="#292929" />
    <path
        d="M297.557 224.209H342.533C343.511 224.209 344.361 223.666 344.74 222.868L359.711 189.081C359.995 188.425 359.899 187.682 359.491 187.084C359.08 186.483 358.325 186.142 357.535 186.142H313.285C312.339 186.142 311.489 186.654 311.11 187.454L295.412 221.242C295.097 221.898 295.193 222.669 295.635 223.267C296.075 223.865 296.801 224.209 297.588 224.209H297.557ZM340.927 219.927H301.118L314.828 190.421H354.005L340.927 219.927Z"
        fill="#292929" />
    <path
        d="M313.254 188.28H272.942C270.766 188.28 268.214 189.878 267.236 191.877L252.581 222.068H297.557L313.254 188.28Z"
        fill="#292929" />
    <path
        d="M252.612 224.209H297.591C298.534 224.209 299.388 223.695 299.764 222.897L315.461 189.11C315.777 188.454 315.681 187.682 315.241 187.084C314.799 186.483 314.075 186.142 313.285 186.142H272.974C269.854 186.142 266.449 188.226 265.127 190.993L250.471 221.184C250.156 221.84 250.219 222.611 250.659 223.209C251.102 223.81 251.825 224.18 252.644 224.18L252.612 224.209ZM296.014 219.927H256.238L269.444 192.733C270.074 191.45 271.871 190.421 272.974 190.421H309.723L296.014 219.927Z"
        fill="#292929" />
    <path d="M432.456 222.068H387.48L372.76 256.939H418.431L432.456 222.068Z" fill="#292929" />
    <path
        d="M372.761 259.08H418.463C419.473 259.08 420.355 258.508 420.671 257.681L434.695 222.81C434.947 222.154 434.851 221.412 434.412 220.84C433.969 220.271 433.246 219.927 432.49 219.927H387.511C386.536 219.927 385.654 220.47 385.307 221.296L370.556 256.167C370.272 256.826 370.368 257.566 370.807 258.138C371.25 258.707 371.974 259.051 372.761 259.051V259.08ZM416.793 254.798H376.198L389.12 224.209H429.085L416.793 254.798Z"
        fill="#292929" />
    <path d="M387.48 222.068H342.535L327.061 256.939H372.761L387.48 222.068Z" fill="#292929" />
    <path
        d="M327.061 259.08H372.761C373.739 259.08 374.621 258.537 374.968 257.71L389.719 222.839C390.003 222.18 389.907 221.441 389.467 220.869C389.025 220.299 388.301 219.956 387.511 219.956H342.535C341.557 219.956 340.707 220.499 340.328 221.296L324.854 256.167C324.57 256.823 324.665 257.566 325.073 258.167C325.484 258.765 326.239 259.109 327.029 259.109L327.061 259.08ZM371.123 254.798H330.559L344.112 224.209H384.045L371.123 254.798Z"
        fill="#292929" />
    <path d="M342.533 222.068H297.557L281.356 256.939H327.058L342.533 222.068Z" fill="#292929" />
    <path
        d="M281.356 259.08H327.058C328.036 259.08 328.887 258.537 329.266 257.739L344.74 222.868C345.024 222.209 344.931 221.469 344.52 220.869C344.109 220.27 343.354 219.927 342.567 219.927H297.588C296.642 219.927 295.792 220.441 295.415 221.241L279.215 256.112C278.899 256.768 278.992 257.537 279.435 258.138C279.875 258.736 280.601 259.08 281.388 259.08H281.356ZM325.452 254.798H284.918L299.133 224.209H339.037L325.484 254.798H325.452Z"
        fill="#292929" />
    <path d="M297.557 222.068H252.612L235.686 256.939H281.356L297.557 222.068Z" fill="#292929" />
    <path
        d="M235.688 259.08H281.391C282.334 259.08 283.188 258.565 283.564 257.765L299.764 222.894C300.08 222.238 299.984 221.469 299.544 220.869C299.102 220.27 298.378 219.927 297.591 219.927H252.612C251.669 219.927 250.815 220.441 250.439 221.212L233.513 256.084C233.197 256.739 233.261 257.511 233.704 258.109C234.143 258.707 234.87 259.08 235.688 259.08ZM279.814 254.798H239.314L254.157 224.209H294.029L279.814 254.798Z"
        fill="#292929" />
    <path
        d="M418.431 256.939H372.729L357.506 292.952H398.984C401.724 292.952 404.814 290.842 405.853 288.245L418.431 256.939Z"
        fill="#292929" />
    <path
        d="M357.538 295.092H399.016C402.734 295.092 406.739 292.408 408.125 288.955L420.7 257.652C420.951 256.996 420.859 256.254 420.416 255.682C419.976 255.112 419.25 254.769 418.495 254.769H372.792C371.814 254.769 370.932 255.312 370.585 256.138L355.362 292.153C355.079 292.809 355.174 293.552 355.614 294.121C356.057 294.693 356.78 295.034 357.57 295.034L357.538 295.092ZM415.089 259.079L403.68 287.501C402.986 289.27 400.813 290.81 399.016 290.81H361.004L374.43 259.079H415.121H415.089Z"
        fill="#292929" />
    <path d="M372.758 256.939H327.058L311.078 292.952H357.535L372.758 256.939Z" fill="#292929" />
    <path
        d="M311.078 295.092H357.506C358.481 295.092 359.364 294.549 359.711 293.723L374.933 257.71C375.217 257.052 375.124 256.312 374.682 255.74C374.242 255.171 373.516 254.827 372.729 254.827H327.026C326.048 254.827 325.198 255.37 324.822 256.168L308.841 292.18C308.557 292.839 308.65 293.578 309.061 294.179C309.472 294.777 310.227 295.121 311.014 295.121L311.078 295.092ZM355.897 290.81H314.576L328.664 259.08H369.323L355.897 290.81Z"
        fill="#292929" />
    <path d="M327.058 256.939H281.356L264.649 292.952H311.078L327.058 256.939Z" fill="#292929" />
    <path
        d="M264.652 295.092H311.078C312.056 295.092 312.906 294.549 313.285 293.752L329.266 257.739C329.55 257.081 329.454 256.341 329.043 255.74C328.635 255.142 327.877 254.798 327.09 254.798H281.388C280.442 254.798 279.591 255.312 279.215 256.113L262.476 292.125C262.161 292.781 262.256 293.552 262.699 294.15C263.139 294.749 263.865 295.092 264.652 295.092ZM309.504 290.81H268.214L282.965 259.08H323.592L309.504 290.81Z"
        fill="#292929" />
    <path
        d="M281.356 256.939H235.654L220.084 289.014C219.042 291.183 220.02 292.952 222.321 292.952H264.617L281.356 256.939Z"
        fill="#292929" />
    <path
        d="M222.353 295.092H264.652C265.598 295.092 266.449 294.578 266.825 293.781L283.564 257.765C283.879 257.109 283.784 256.341 283.341 255.74C282.901 255.142 282.175 254.798 281.388 254.798H235.686C234.739 254.798 233.889 255.312 233.513 256.084L217.94 288.158C217.058 289.955 217.121 291.781 218.099 293.151C218.982 294.379 220.527 295.092 222.324 295.092H222.353ZM263.075 290.81H222.353C222.164 290.81 222.04 290.784 222.04 290.755C222.04 290.755 222.04 290.441 222.292 289.869L237.231 259.051H277.826L263.075 290.782V290.81Z"
        fill="#292929" />
    <path
        d="M431.573 182.345H391.261L376.985 216.133H421.961L434.096 185.942C434.883 183.972 433.781 182.345 431.573 182.345Z"
        fill="#D7F0EE" />
    <path
        d="M377.017 218.272H421.993C423.003 218.272 423.885 217.702 424.201 216.873L436.333 186.683C436.995 185.027 436.807 183.372 435.861 182.118C434.947 180.919 433.373 180.234 431.605 180.234H391.293C390.318 180.234 389.436 180.777 389.088 181.603L374.809 215.391C374.526 216.047 374.621 216.789 375.064 217.359C375.504 217.931 376.23 218.272 377.017 218.272ZM420.323 213.993H380.451L392.934 184.484H431.605C431.86 184.484 431.984 184.542 431.984 184.542C431.984 184.542 432.048 184.799 431.891 185.198L420.323 213.993Z"
        fill="#292929" />
    <path d="M391.296 182.345H347.012L332.041 216.133H377.017L391.296 182.345Z" fill="#D7F0EE" />
    <path
        d="M332.041 218.272H377.017C377.995 218.272 378.877 217.731 379.225 216.902L393.501 183.115C393.785 182.459 393.692 181.719 393.249 181.147C392.809 180.575 392.083 180.234 391.296 180.234H347.044C346.066 180.234 345.215 180.777 344.839 181.575L329.865 215.362C329.581 216.018 329.677 216.761 330.088 217.359C330.496 217.96 331.254 218.301 332.041 218.301V218.272ZM375.379 213.993H335.539L348.62 184.487H387.859L375.379 213.993Z"
        fill="#292929" />
    <path d="M347.009 182.345H302.756L287.062 216.133H332.038L347.009 182.345Z" fill="#D7F0EE" />
    <path
        d="M287.062 218.271H332.038C333.016 218.271 333.867 217.731 334.246 216.931L349.216 183.143C349.5 182.487 349.404 181.745 348.996 181.146C348.586 180.548 347.83 180.205 347.041 180.205H302.791C301.845 180.205 300.994 180.719 300.615 181.516L284.918 215.304C284.602 215.96 284.698 216.731 285.141 217.329C285.58 217.93 286.307 218.271 287.094 218.271H287.062ZM330.432 213.992H290.624L304.333 184.486H343.51L330.432 213.992Z"
        fill="#292929" />
    <path
        d="M302.759 182.345H262.447C260.271 182.345 257.719 183.943 256.741 185.942L242.086 216.133H287.062L302.759 182.345Z"
        fill="#D7F0EE" />
    <path
        d="M242.121 218.271H287.097C288.043 218.271 288.894 217.76 289.27 216.96L304.967 183.172C305.282 182.516 305.187 181.745 304.747 181.146C304.304 180.548 303.581 180.205 302.791 180.205H262.479C259.36 180.205 255.957 182.288 254.632 185.056L239.977 215.246C239.661 215.905 239.725 216.674 240.165 217.274C240.607 217.873 241.331 218.242 242.15 218.242L242.121 218.271ZM285.52 213.992H245.743L258.949 186.798C259.58 185.512 261.377 184.486 262.479 184.486H299.232L285.52 213.992Z"
        fill="#292929" />
    <path d="M421.961 216.133H377.017L362.266 251.004H407.968L421.961 216.133Z" fill="#D7F0EE" />
    <path
        d="M362.266 253.143H407.968C408.978 253.143 409.86 252.573 410.176 251.744L424.201 216.873C424.452 216.217 424.36 215.475 423.917 214.905C423.477 214.333 422.751 213.992 421.996 213.992H377.017C376.042 213.992 375.159 214.533 374.812 215.362L360.061 250.233C359.778 250.889 359.873 251.631 360.313 252.201C360.756 252.773 361.479 253.114 362.266 253.114V253.143ZM406.299 248.863H365.703L378.626 218.271H418.59L406.299 248.863Z"
        fill="#292929" />
    <path d="M377.017 216.133H332.041L316.564 251.004H362.266L377.017 216.133Z" fill="#D7F0EE" />
    <path
        d="M316.566 253.142H362.266C363.244 253.142 364.126 252.602 364.474 251.773L379.224 216.902C379.508 216.246 379.412 215.503 378.973 214.934C378.53 214.362 377.807 214.021 377.017 214.021H332.041C331.063 214.021 330.212 214.561 329.833 215.362L314.359 250.233C314.075 250.889 314.171 251.631 314.579 252.229C314.989 252.83 315.745 253.171 316.535 253.171L316.566 253.142ZM360.628 248.863H320.065L333.618 218.271H373.55L360.628 248.863Z"
        fill="#292929" />
    <path d="M332.038 216.133H287.062L270.893 251.004H316.564L332.038 216.133Z" fill="#D7F0EE" />
    <path
        d="M270.893 253.143H316.595C317.573 253.143 318.424 252.602 318.8 251.802L334.277 216.931C334.561 216.275 334.465 215.532 334.058 214.934C333.647 214.333 332.891 213.992 332.102 213.992H287.126C286.179 213.992 285.329 214.506 284.95 215.304L268.749 250.175C268.437 250.831 268.529 251.602 268.972 252.201C269.412 252.801 270.138 253.143 270.925 253.143H270.893ZM314.987 248.863H274.455L288.671 218.271H328.572L315.019 248.863H314.987Z"
        fill="#292929" />
    <path d="M287.062 216.133H242.118L225.191 251.004H270.893L287.062 216.133Z" fill="#D7F0EE" />
    <path
        d="M225.194 253.143H270.896C271.839 253.143 272.693 252.631 273.069 251.831L289.27 216.96C289.585 216.304 289.492 215.532 289.05 214.934C288.61 214.333 287.884 213.992 287.097 213.992H242.118C241.175 213.992 240.324 214.506 239.945 215.275L223.018 250.146C222.703 250.802 222.766 251.574 223.209 252.174C223.649 252.773 224.375 253.143 225.194 253.143ZM269.319 248.863H228.819L243.663 218.271H283.535L269.319 248.863Z"
        fill="#292929" />
    <path
        d="M407.965 251.004H362.266L347.041 287.016H388.518C391.261 287.016 394.352 284.904 395.39 282.307L407.965 251.004Z"
        fill="#D7F0EE" />
    <path
        d="M347.043 289.158H388.521C392.239 289.158 396.244 286.474 397.63 283.021L410.205 251.718C410.457 251.059 410.364 250.319 409.921 249.747C409.481 249.178 408.755 248.834 408 248.834H362.298C361.32 248.834 360.437 249.378 360.09 250.204L344.867 286.217C344.584 286.872 344.679 287.615 345.119 288.187C345.562 288.756 346.285 289.1 347.075 289.1L347.043 289.158ZM404.594 253.143L393.185 281.565C392.491 283.336 390.318 284.876 388.521 284.876H350.478L363.904 253.143H404.594Z"
        fill="#292929" />
    <path d="M362.263 251.004H316.564L300.583 287.016H347.041L362.263 251.004Z" fill="#D7F0EE" />
    <path
        d="M300.583 289.157H347.012C347.987 289.157 348.869 288.614 349.216 287.785L364.439 251.772C364.723 251.116 364.63 250.374 364.187 249.805C363.747 249.233 363.021 248.892 362.234 248.892H316.532C315.554 248.892 314.703 249.432 314.327 250.232L298.346 286.245C298.063 286.901 298.155 287.643 298.566 288.241C298.977 288.842 299.732 289.183 300.519 289.183L300.583 289.157ZM345.403 284.875H304.081L318.172 253.142H358.829L345.403 284.875Z"
        fill="#292929" />
    <path d="M316.564 251.004H270.893L254.158 287.016H300.583L316.564 251.004Z" fill="#D7F0EE" />
    <path
        d="M254.157 289.158H300.583C301.561 289.158 302.412 288.614 302.791 287.814L318.771 251.802C319.055 251.146 318.959 250.403 318.549 249.805C318.141 249.204 317.383 248.863 316.595 248.863H270.893C269.947 248.863 269.096 249.378 268.72 250.175L251.982 286.188C251.666 286.846 251.762 287.615 252.204 288.216C252.644 288.814 253.37 289.158 254.157 289.158ZM299.009 284.876H257.719L272.47 253.142H313.097L299.009 284.876Z"
        fill="#292929" />
    <path
        d="M270.893 251.004H225.194L209.621 283.078C208.583 285.248 209.561 287.016 211.861 287.016H254.158L270.893 251.004Z"
        fill="#D7F0EE" />
    <path
        d="M211.861 289.158H254.157C255.104 289.158 255.954 288.643 256.33 287.843L273.069 251.831C273.384 251.175 273.289 250.403 272.846 249.805C272.406 249.204 271.68 248.863 270.893 248.863H225.191C224.245 248.863 223.394 249.377 223.018 250.146L207.448 282.223C206.566 284.02 206.626 285.846 207.604 287.216C208.487 288.444 210.032 289.158 211.829 289.158H211.861ZM252.58 284.876H211.861C211.67 284.876 211.545 284.847 211.545 284.818C211.545 284.818 211.545 284.506 211.797 283.934L226.736 253.116H267.331L252.58 284.847V284.876Z"
        fill="#292929" />
    <path
        d="M357.538 319.177C358.831 319.177 359.902 318.207 359.902 317.036V292.951C359.902 291.781 358.831 290.81 357.538 290.81C356.248 290.81 355.177 291.781 355.177 292.951V317.036C355.177 318.207 356.248 319.177 357.538 319.177Z"
        fill="#292929" />
    <path
        d="M254.158 320.83C255.448 320.83 256.521 319.862 256.521 318.692V292.951C256.521 291.781 255.448 290.81 254.158 290.81C252.867 290.81 251.794 291.781 251.794 292.951V318.692C251.794 319.862 252.867 320.83 254.158 320.83Z"
        fill="#292929" />
    <path
        d="M432.458 321.116C433.749 321.116 434.822 320.146 434.822 318.975V222.068C434.822 220.898 433.749 219.927 432.458 219.927C431.168 219.927 430.094 220.898 430.094 222.068V318.975C430.094 320.146 431.168 321.116 432.458 321.116Z"
        fill="#292929" />
</svg>
    