<svg width="76" height="77" viewBox="0 0 76 77" fill="none" xmlns="http://www.w3.org/2000/svg">
<g filter="url(#filter0_d_633_963)">
<rect x="12" y="11.5" width="52" height="52" rx="26" fill="white"/>
<rect x="12.5" y="12" width="51" height="51" rx="25.5" stroke="#F5F5F5"/>
<path d="M36.5469 43.2656C36.5469 43.2656 36.5469 43.2656 36.5 43.2656C36.6406 43.5469 36.5938 43.875 36.3594 44.1094L32.0938 48.375C31.5312 48.9375 30.7812 49.3594 29.9844 49.5C28.8594 49.6406 27.7812 49.2656 26.9844 48.4688C25.5781 47.0625 25.5781 44.8125 26.9844 43.4531L33.3125 37.125C33.6406 36.8438 34.1094 36.8438 34.3906 37.125C34.6719 37.4062 34.6719 37.875 34.3906 38.1562L28.0625 44.4844C27.1719 45.375 27.3125 46.9219 28.3906 47.6719C29.2344 48.2344 30.3594 48.0469 31.0625 47.3438L35.3281 43.0781C35.7031 42.7031 36.2656 42.7969 36.5469 43.2656ZM38.1406 29.6719C37.9062 30.0938 37.3438 30.1406 37.0156 29.8125C36.7812 29.5781 36.7344 29.1562 36.9219 28.875C37.1562 28.4062 37.4844 27.9844 37.9062 27.6094C39.6875 25.8281 42.1719 25.125 44.6094 25.7344C45.0312 25.8281 45.4062 26.2031 45.5 26.625C45.6406 27.0938 45.5 27.5625 45.1719 27.8906L42.2188 30.8906L42.5469 32.9531L44.6094 33.2812L47.6094 30.2812C47.9375 29.9531 48.4062 29.8594 48.875 29.9531C49.2969 30.0938 49.6719 30.4688 49.7656 30.8906C50.375 33.3281 49.6719 35.8125 47.8906 37.5938C47.6562 37.875 47.375 38.1094 47.0938 38.2969C46.8125 38.5312 46.3906 38.4844 46.1094 38.2031C45.7812 37.9219 45.8281 37.3594 46.1562 37.125C46.3906 36.9375 46.625 36.75 46.8594 36.5625C48.125 35.25 48.6875 33.4219 48.4062 31.6406L45.125 34.875L41.2344 34.2656L40.625 30.375L43.8594 27.0938C43.5312 27.0469 43.2031 27 42.875 27C41.4219 27 40.0156 27.6094 38.9375 28.6406C38.6562 28.9688 38.375 29.2969 38.1406 29.6719ZM28.9531 45.75C28.9531 45.375 29.3281 45.0469 29.7031 45.0469C30.0312 45.0469 30.4062 45.4219 30.4062 45.75C30.4062 46.125 30.0781 46.4531 29.7031 46.4531C29.2812 46.4531 28.9531 46.1719 28.9531 45.75ZM49.5312 43.7812C50.1406 44.3438 50.1406 45.3281 49.4844 45.8906L46.3438 49.0781C46.0625 49.3594 45.6875 49.5 45.3125 49.5C44.8906 49.5 44.5156 49.3594 44.2344 48.9844L38.4219 43.1719C37.1094 41.8594 36.9688 39.8906 37.9062 38.4375L33.9219 34.4531H30.5L26 28.5L29 25.5L34.9531 30V33.4688L38.9844 37.4531C39.5938 37.0312 40.3438 36.8438 41.0469 36.8438C42.0312 36.8438 42.9688 37.2188 43.7188 37.9219L49.5312 43.7812ZM33.4531 33H33.4062V30.75L29.0938 27.5156L27.9688 28.6406L31.25 33H33.4531ZM45.3125 48L48.4531 44.8125L42.6406 39C42.2188 38.5781 41.6562 38.3438 41.0469 38.3438C40.4375 38.3438 39.875 38.5781 39.4531 39C39.0312 39.4219 38.7969 39.9844 38.7969 40.5938C38.7969 41.2031 39.0312 41.7656 39.4531 42.1875L45.3125 48Z" fill="black"/>
</g>
<defs>
<filter id="filter0_d_633_963" x="0" y="0.5" width="76" height="76" filterUnits="userSpaceOnUse" color-interpolation-filters="sRGB">
<feFlood flood-opacity="0" result="BackgroundImageFix"/>
<feColorMatrix in="SourceAlpha" type="matrix" values="0 0 0 0 0 0 0 0 0 0 0 0 0 0 0 0 0 0 127 0" result="hardAlpha"/>
<feOffset dy="1"/>
<feGaussianBlur stdDeviation="6"/>
<feComposite in2="hardAlpha" operator="out"/>
<feColorMatrix type="matrix" values="0 0 0 0 0 0 0 0 0 0 0 0 0 0 0 0 0 0 0.12 0"/>
<feBlend mode="normal" in2="BackgroundImageFix" result="effect1_dropShadow_633_963"/>
<feBlend mode="normal" in="SourceGraphic" in2="effect1_dropShadow_633_963" result="shape"/>
</filter>
</defs>
</svg>
