<svg width="36" height="48" viewBox="0 0 36 48" fill="none" xmlns="http://www.w3.org/2000/svg">
    <path d="M6 12C5.15625 12 4.5 11.3438 4.5 10.5C4.5 9.75 5.15625 9 6 9H15C15.75 9 16.5 9.75 16.5 10.5C16.5 11.3438 15.75 12 15 12H6ZM21 6C20.1562 6 19.5 5.34375 19.5 4.5C19.5 3.75 20.1562 3 21 3H23.25V2.25C23.25 1.03125 24.1875 0 25.5 0C26.7188 0 27.75 1.03125 27.75 2.25V3H30C30.75 3 31.5 3.75 31.5 4.5C31.5 5.34375 30.75 6 30 6H21ZM21 12C20.1562 12 19.5 11.3438 19.5 10.5C19.5 9.75 20.1562 9 21 9H30C30.75 9 31.5 9.75 31.5 10.5C31.5 11.3438 30.75 12 30 12H21ZM36 18C36 18.8438 35.25 19.5 34.5 19.5V43.5C35.25 43.5 36 44.25 36 45V46.5C36 47.3438 35.25 48 34.5 48H1.5C0.65625 48 0 47.3438 0 46.5V45C0 44.25 0.65625 43.5 1.5 43.5V19.5C0.65625 19.5 0 18.8438 0 18V16.5C0 15.75 0.65625 15 1.5 15H34.5C35.25 15 36 15.75 36 16.5V18ZM30 43.5V19.5H6V43.5H30ZM6 6C5.15625 6 4.5 5.34375 4.5 4.5C4.5 3.75 5.15625 3 6 3H8.25V2.25C8.25 1.03125 9.1875 0 10.5 0C11.7188 0 12.75 1.03125 12.75 2.25V3H15C15.75 3 16.5 3.75 16.5 4.5C16.5 5.34375 15.75 6 15 6H6ZM12.2812 32.625C11.9062 32.625 11.4375 32.3438 11.1562 32.0625C11.0625 31.5938 11.1562 31.125 11.5312 30.75L20.5312 22.875C20.9062 22.5938 21.4688 22.5 21.9375 22.875C22.3125 23.1562 22.5 23.7188 22.3125 24.1875L19.5938 30.4688H23.5312C24 30.4688 24.375 30.75 24.5625 31.2188C24.75 31.6875 24.5625 32.1562 24.1875 32.4375L15.1875 40.3125C15 40.5 14.7188 40.5 14.5312 40.5C14.3438 40.5 14.1562 40.5 13.875 40.3125C13.4062 40.0312 13.2188 39.4688 13.5 39L16.125 32.625H12.2812Z" fill="black"/>
    </svg>
    