<svg width="33" height="33" viewBox="0 0 33 33" fill="none" xmlns="http://www.w3.org/2000/svg">
    <path
        d="M12.8116 30.5368H9.81163V28.5368H12.8116V16.1028L9.29663 13.9938L10.3266 12.2798L13.8406 14.3878C14.1361 14.5663 14.3806 14.8178 14.5506 15.1182C14.7207 15.4185 14.8106 15.7576 14.8116 16.1028V28.5368C14.8111 29.0671 14.6002 29.5755 14.2253 29.9504C13.8503 30.3254 13.3419 30.5363 12.8116 30.5368Z"
        fill="black" />
    <path
        d="M22.8116 30.5369H19.8116C19.2814 30.5363 18.773 30.3255 18.398 29.9505C18.0231 29.5755 17.8122 29.0671 17.8116 28.5369V17.5369H23.8116C24.3704 17.537 24.9229 17.42 25.4337 17.1935C25.9445 16.967 26.4022 16.636 26.7772 16.2219C27.1523 15.8077 27.4364 15.3196 27.6113 14.7889C27.7862 14.2583 27.848 13.6969 27.7926 13.1409C27.6588 12.1293 27.1569 11.2025 26.3828 10.5376C25.6088 9.87278 24.6168 9.51649 23.5966 9.53687H22.0136L21.8366 8.75786C21.2636 6.23286 18.8426 4.53687 15.8116 4.53687C14.6672 4.54061 13.5474 4.87053 12.5838 5.48795C11.6201 6.10537 10.8524 6.9847 10.3706 8.02287L10.0616 8.68987L9.19865 8.57586C9.07072 8.55382 8.9414 8.54078 8.81165 8.53687C7.75078 8.53687 6.73336 8.95829 5.98322 9.70844C5.23307 10.4586 4.81165 11.476 4.81165 12.5369C4.81165 13.5977 5.23307 14.6151 5.98322 15.3653C6.73336 16.1154 7.75078 16.5369 8.81165 16.5369V18.5369C7.22035 18.5369 5.69422 17.9047 4.569 16.7795C3.44379 15.6543 2.81165 14.1282 2.81165 12.5369C2.81165 10.9456 3.44379 9.41944 4.569 8.29422C5.69422 7.16901 7.22035 6.53687 8.81165 6.53687L8.89065 6.53787C9.59414 5.32441 10.6033 4.31648 11.8176 3.61449C13.032 2.9125 14.409 2.54095 15.8116 2.53687C19.4906 2.53687 22.5036 4.51487 23.5636 7.53687H23.5966C25.1134 7.51995 26.5831 8.06286 27.7246 9.06174C28.8661 10.0606 29.5992 11.4453 29.7836 12.9509C29.8653 13.7842 29.7716 14.6255 29.5086 15.4205C29.2457 16.2155 28.8192 16.9466 28.2567 17.5669C27.6943 18.1872 27.0082 18.683 26.2426 19.0222C25.4771 19.3615 24.649 19.5368 23.8116 19.5369H19.8116V28.5369H22.8116V30.5369Z"
        fill="black" />
</svg>
    