<svg width="48" height="48" viewBox="0 0 48 48" fill="none" xmlns="http://www.w3.org/2000/svg">
    <path d="M46.2188 20.25C47.3438 22.0312 48 23.9062 48 25.875C48 28.6875 46.9688 31.125 44.9062 33.0938C42.8438 35.0625 40.4062 36 37.5938 36H26.25V45.75C26.25 47.0625 25.2188 48 24 48C22.6875 48 21.75 47.0625 21.75 45.75V36H10.4062C7.5 36 5.0625 35.0625 3 33.0938C1.03125 31.125 0 28.6875 0 25.875C0 23.9062 0.5625 22.0312 1.6875 20.25C2.4375 19.2188 3.28125 18.375 4.3125 17.7188C4.03125 16.5938 3.9375 15.4688 4.125 14.3438C4.40625 12.4688 5.15625 10.7812 6.46875 9.46875C7.6875 8.15625 9.28125 7.21875 11.0625 6.84375C12.0938 6.5625 13.125 6.5625 14.1562 6.65625C14.7188 5.15625 15.6562 3.84375 16.9688 2.625C18.9375 0.9375 21.2812 0 24 0C26.625 0 28.9688 0.9375 30.9375 2.625C32.25 3.75 33.1875 5.15625 33.75 6.65625C34.7812 6.5625 35.8125 6.5625 36.8438 6.84375C38.625 7.21875 40.2188 8.15625 41.4375 9.46875C42.75 10.7812 43.5 12.4688 43.7812 14.3438C43.9688 15.4688 43.875 16.6875 43.5938 17.8125C44.5312 18.4688 45.5625 19.4062 46.2188 20.25ZM41.7188 29.9062C42.9375 28.7812 43.5 27.4688 43.5 25.875C43.5 24.75 43.125 23.8125 42.4688 22.875C42.0938 22.3125 40.6875 21.2812 39.6562 20.625L37.6875 19.5L38.8125 17.625C39.2812 16.6875 39.4688 15.8438 39.375 15C39.1875 14.0625 38.8125 13.2188 38.25 12.5625C37.5 11.9062 36.75 11.4375 35.8125 11.25C34.875 10.9688 33.9375 11.0625 33 11.5312L30.1875 12.6562L29.9062 9.65625C29.7188 8.25 29.0625 7.03125 27.9375 6C25.6875 4.03125 22.2188 4.03125 19.9688 6C18.8438 7.03125 18.1875 8.25 18 9.65625L17.7188 12.6562L14.9062 11.5312C14.25 11.25 13.6875 11.0625 13.0312 11.0625C12.75 11.0625 12.4688 11.1562 12.0938 11.25C11.1562 11.4375 10.4062 11.9062 9.65625 12.5625C9.09375 13.2188 8.71875 14.0625 8.53125 15C8.4375 15.8438 8.625 16.6875 9.09375 17.5312L10.5 19.7812L8.0625 20.8125C6.9375 21.2812 6.09375 21.9375 5.4375 22.875C4.78125 23.8125 4.5 24.75 4.5 25.875C4.5 27.4688 4.96875 28.7812 6.1875 29.9062C7.3125 31.0312 8.71875 31.5 10.4062 31.5H21.75L21.6562 26.5312L16.3125 21.0938C15.375 20.25 15.375 18.8438 16.3125 17.9062C17.1562 17.0625 18.5625 17.0625 19.5 17.9062L21.75 20.0625V14.25C21.6562 12.9375 22.6875 12 23.9062 12C23.9062 12 24 12 23.9062 12C25.2188 12 26.1562 12.9375 26.25 14.25V24.5625L28.4062 22.5C29.25 21.5625 30.6562 21.5625 31.5938 22.5C32.4375 23.3438 32.4375 24.75 31.5938 25.5938L26.25 30.9375V31.5H37.5938C39.1875 31.5 40.5938 31.0312 41.7188 29.9062Z" fill="black"/>
    </svg>
    