<svg width="104" height="56" viewBox="0 0 104 56" fill="none" xmlns="http://www.w3.org/2000/svg">
    <g clip-path="url(#clip0_159_2777)">
        <path
            d="M24 14.9691C28.9259 5.78209 38.5054 0.0488281 48.9297 0.0488281H55.0703C65.4946 0.0488281 75.0741 5.78208 80 14.9691L80.4393 15.7884C85.0947 24.4709 94.1482 29.8893 104 29.8893V55.9997H0V29.8893C9.85184 29.8893 18.9053 24.4709 23.5607 15.7884L24 14.9691Z"
            fill="#fff" />
        <mask id="mask0_159_2777" style="mask-type:alpha" maskUnits="userSpaceOnUse" x="40" y="16"
            width="24" height="24">
            <path d="M40 39.2148L64 39.2148L64 16.8344L40 16.8344L40 39.2148Z" fill="#D9D9D9" />
        </mask>
        <g mask="url(#mask0_159_2777)">
            <path
                d="M53 35.4849L53 24.1316L58.6 29.3537L60 28.0248L52 20.5647L44 28.0248L45.4 29.3537L51 24.1316L51 35.4849L53 35.4849Z"
                fill="#4A4A4A" />
        </g>
    </g>
    <defs>
        <clipPath id="clip0_159_2777">
            <rect width="104" height="56" fill="white" />
        </clipPath>
    </defs>
</svg>
    