<svg width="90" height="94" viewBox="0 0 90 94" fill="none" xmlns="http://www.w3.org/2000/svg">
<g filter="url(#filter0_d_633_466)">
<path d="M77.9943 30.3997C77.9943 30.2997 77.9429 30.2122 77.8687 30.1685L76.2642 29.3061L73.0154 27.5001C72.6842 27.3127 72.2902 27.3189 71.9591 27.5001L46.0367 42.0042C45.5628 42.2666 45.0033 42.2729 44.5293 42.0042L35.2224 36.7362L48.9202 28.1188C49.1714 27.9688 49.1714 27.5689 48.9202 27.4189L44.0726 24.5818C43.7471 24.3944 43.3588 24.3881 43.0334 24.5818L35.7077 28.7687L28.3593 32.8556L17.9732 26.9752L44.5408 11.3901C44.7577 11.2651 44.7577 10.9214 44.5408 10.7964L40.0072 8.15935C39.6361 7.94688 39.1964 7.94688 38.8253 8.15935L12.2577 23.632C11.9722 23.8132 12.0008 24.1506 12.0008 24.1506V58.0204C11.9951 59.3202 12.6688 60.5076 13.7366 61.0887L45.0032 77.9361C45.0032 77.9361 45.2431 78.0799 45.5114 77.9361C45.7056 77.8299 70.2633 64.4445 75.5962 61.5387C76.2471 61.1825 76.938 60.7575 77.2235 60.3826C77.7202 59.7514 78 59.264 78 57.6143V30.4059L77.9943 30.3997ZM17.465 35.3927C17.465 34.6865 18.1445 34.2241 18.7269 34.5365L44.5408 48.6344C44.9576 48.8593 45.4486 48.8593 45.8597 48.6219L71.3367 34.1804C71.8563 33.8866 72.4729 34.2991 72.4729 34.9365V40.2107C72.4729 40.8043 72.1646 41.348 71.6793 41.6167L45.4086 55.9895C45.2145 56.0395 45.009 56.0145 44.8262 55.9145L17.9504 41.3855C17.6535 41.223 17.465 40.8918 17.465 40.5294V35.3927ZM71.7135 57.6517L45.4772 71.3621C45.2374 71.4871 44.9576 71.4871 44.7178 71.3621L17.8819 57.0018C17.5849 56.8394 17.3908 56.5082 17.3908 56.1457V49.0281C17.3908 48.3219 18.0703 47.8595 18.647 48.172C18.647 48.172 41.2234 60.2701 44.9404 62.2135C45.2716 62.3823 45.8483 62.2573 45.8483 62.2573L71.3881 48.1345C71.8848 47.8595 72.4729 48.2532 72.4729 48.8656V56.3894C72.4672 56.7394 72.3873 57.0393 72.1989 57.3018C72.1018 57.4455 71.7135 57.6517 71.7135 57.6517Z" fill="white"/>
</g>
<defs>
<filter id="filter0_d_633_466" x="0" y="0" width="90" height="94" filterUnits="userSpaceOnUse" color-interpolation-filters="sRGB">
<feFlood flood-opacity="0" result="BackgroundImageFix"/>
<feColorMatrix in="SourceAlpha" type="matrix" values="0 0 0 0 0 0 0 0 0 0 0 0 0 0 0 0 0 0 127 0" result="hardAlpha"/>
<feOffset dy="4"/>
<feGaussianBlur stdDeviation="6"/>
<feComposite in2="hardAlpha" operator="out"/>
<feColorMatrix type="matrix" values="0 0 0 0 0.128657 0 0 0 0 0.58986 0 0 0 0 0.368483 0 0 0 0.2 0"/>
<feBlend mode="normal" in2="BackgroundImageFix" result="effect1_dropShadow_633_466"/>
<feBlend mode="normal" in="SourceGraphic" in2="effect1_dropShadow_633_466" result="shape"/>
</filter>
</defs>
</svg>
