<svg width="33" height="33" viewBox="0 0 33 33" fill="none" xmlns="http://www.w3.org/2000/svg">
    <path
        d="M10.4561 25.1034C10.8276 25.0237 11.1694 24.8415 11.4427 24.5776C11.716 24.3137 11.9101 23.9786 12.0028 23.6101C12.4828 23.4857 12.945 23.3257 13.4161 23.1568V22.0901C13.4198 21.9377 13.4377 21.7859 13.4695 21.6368C12.9407 21.8501 12.4007 22.0341 11.8517 22.1879C11.6599 21.8082 11.3534 21.4985 10.9758 21.3027C10.5982 21.1068 10.1685 21.0348 9.74763 21.0967C9.32677 21.1587 8.93608 21.3515 8.6309 21.6478C8.32571 21.9442 8.12152 22.329 8.04724 22.7479H7.64724C6.09213 20.9426 5.19033 18.6662 5.08724 16.2857C6.28178 14.6114 7.79146 13.1863 9.53168 12.0901C9.79059 12.355 10.1185 12.542 10.4783 12.63C10.8381 12.718 11.2153 12.7034 11.5672 12.5879C12.6102 14.2988 13.9567 15.805 15.5406 17.0323C15.5986 16.9577 15.6609 16.8864 15.7272 16.819L16.5717 16.0101C15.0206 14.8531 13.7076 13.4074 12.705 11.7523C12.9065 11.4329 13.0143 11.0633 13.0161 10.6857V10.4901C16.2661 9.39798 19.7839 9.39798 23.0339 10.4901C22.7942 11.5117 22.4517 12.5064 22.0117 13.459H23.5672C23.8974 12.6746 24.1678 11.8664 24.3761 11.0412C24.7583 11.2101 25.1228 11.4057 25.4961 11.6101C26.0054 12.7597 26.3064 13.9907 26.385 15.2457C26.7202 15.0581 27.0946 14.9516 27.4783 14.9346C27.6828 14.9386 27.8859 14.9685 28.0828 15.0234C27.9259 12.6257 27.0782 10.3247 25.6421 8.3983C24.206 6.47186 22.2429 5.00238 19.9898 4.16731C17.7367 3.33224 15.2901 3.16729 12.9454 3.6924C10.6006 4.2175 8.45802 5.41019 6.77633 7.12644C5.09464 8.84268 3.94577 11.0091 3.46846 13.364C2.99115 15.719 3.20582 18.1617 4.08654 20.3974C4.96725 22.633 6.47636 24.5658 8.4316 25.9624C10.3868 27.3591 12.7046 28.1598 15.105 28.2679C14.8792 27.6968 14.8792 27.0612 15.105 26.4901C13.4691 26.3933 11.8778 25.9187 10.4561 25.1034ZM15.7095 5.15678C17.138 5.15894 18.5515 5.44802 19.8662 6.00688C21.1809 6.56574 22.37 7.38298 23.3628 8.41011C23.3628 8.63234 23.3628 8.86345 23.2917 9.08567C19.7214 7.909 15.8626 7.94337 12.3139 9.18345C12.0122 8.9253 11.6413 8.76149 11.2472 8.71234C11.0093 7.97766 10.828 7.22583 10.705 6.46345C12.2396 5.62117 13.959 5.17224 15.7095 5.15678ZM9.39835 7.25456C9.5133 7.83074 9.65869 8.40042 9.8339 8.96122C9.54312 9.1433 9.30332 9.39621 9.13697 9.69627C8.97062 9.99632 8.88316 10.3337 8.88279 10.6768V10.8101C7.53972 11.6552 6.31937 12.6811 5.25613 13.859C5.75409 11.2137 7.23375 8.85454 9.39835 7.25456Z"
        fill="black" />
    <path
        d="M23.0339 19.5479C22.3593 19.5549 21.7018 19.7617 21.1446 20.1422C20.5875 20.5227 20.1556 21.0598 19.9035 21.6857C19.6514 22.3115 19.5904 22.998 19.7283 23.6585C19.8661 24.319 20.1967 24.9237 20.6781 25.3965C21.1595 25.8692 21.7702 26.1886 22.433 26.3145C23.0959 26.4403 23.7812 26.3668 24.4023 26.1034C25.0235 25.84 25.5526 25.3983 25.9229 24.8343C26.2932 24.2703 26.488 23.6092 26.4828 22.9345C26.4688 22.0299 26.099 21.1672 25.4534 20.5334C24.8079 19.8995 23.9386 19.5454 23.0339 19.5479ZM23.0339 24.9523C22.6429 24.9453 22.2625 24.8232 21.9404 24.6014C21.6182 24.3796 21.3686 24.0678 21.2225 23.7049C21.0765 23.3421 21.0406 22.9442 21.1192 22.5611C21.1979 22.178 21.3877 21.8265 21.6648 21.5505C21.942 21.2745 22.2943 21.0863 22.6778 21.0093C23.0613 20.9324 23.459 20.97 23.8212 21.1177C24.1834 21.2653 24.4941 21.5163 24.7145 21.8394C24.9349 22.1626 25.0553 22.5434 25.0606 22.9345C25.0618 23.2006 25.0101 23.4642 24.9086 23.7102C24.807 23.9561 24.6576 24.1794 24.4691 24.3671C24.2806 24.5548 24.0566 24.7032 23.8102 24.8037C23.5639 24.9041 23.3 24.9547 23.0339 24.9523Z"
        fill="black" />
    <path
        d="M31.185 22.1701C31.1937 21.9631 31.1388 21.7584 31.0275 21.5835C30.9163 21.4087 30.7541 21.2722 30.5628 21.1924L29.1761 20.7835C29.111 20.5939 29.0339 20.4072 28.945 20.2235L29.585 19.0413C29.6856 18.8489 29.7217 18.6294 29.6881 18.4149C29.6545 18.2005 29.5529 18.0025 29.3984 17.8501L28.2073 16.6768C28.0538 16.5237 27.8554 16.4238 27.641 16.3918C27.4266 16.3598 27.2076 16.3974 27.0161 16.499L25.825 17.1301C25.6308 17.0373 25.432 16.9543 25.2295 16.8813L24.8117 15.5657C24.7416 15.3674 24.6115 15.1958 24.4395 15.0748C24.2675 14.9537 24.062 14.8892 23.8517 14.8901H22.145C21.9303 14.8917 21.7216 14.9614 21.5491 15.0892C21.3766 15.217 21.2491 15.3963 21.185 15.6013L20.7939 16.8724C20.5884 16.9452 20.3867 17.0282 20.1895 17.1213L19.0161 16.499C18.8266 16.3984 18.61 16.3605 18.3975 16.3908C18.185 16.4212 17.9877 16.5182 17.8339 16.6679L16.6162 17.8324C16.4596 17.9854 16.3568 18.185 16.3231 18.4013C16.2895 18.6176 16.3268 18.839 16.4295 19.0324L17.0517 20.1701C16.9569 20.3598 16.8739 20.5524 16.8028 20.7479L15.5495 21.1568C15.3407 21.2185 15.1576 21.3463 15.0277 21.521C14.8978 21.6958 14.8283 21.908 14.8295 22.1257V23.7879C14.8396 23.9987 14.9152 24.2011 15.0459 24.3668C15.1766 24.5326 15.3557 24.6534 15.5584 24.7124L16.865 25.1035C16.9361 25.2931 17.0191 25.4827 17.1139 25.6724L16.4739 26.8724C16.3701 27.0648 16.3314 27.2856 16.3634 27.5019C16.3955 27.7182 16.4966 27.9183 16.6517 28.0724L17.8428 29.2457C17.9962 29.3988 18.1947 29.4987 18.4091 29.5307C18.6235 29.5627 18.8425 29.5251 19.0339 29.4235L20.2517 28.7835C20.4354 28.8664 20.6221 28.9435 20.8117 29.0146L21.2028 30.3213C21.2673 30.5277 21.3961 30.708 21.5705 30.836C21.7448 30.9639 21.9555 31.0327 22.1717 31.0324H23.8606C24.0738 31.029 24.2805 30.9584 24.4512 30.8307C24.622 30.7031 24.7481 30.5248 24.8117 30.3213L25.2028 29.0146C25.3895 28.9524 25.5761 28.8724 25.7539 28.7924L26.9806 29.4413C27.171 29.5408 27.3882 29.5772 27.6007 29.5453C27.8132 29.5133 28.0101 29.4146 28.1628 29.2635L29.3539 28.0901C29.5105 27.9371 29.6133 27.7375 29.6469 27.5212C29.6806 27.3049 29.6433 27.0835 29.5406 26.8901L28.8917 25.699C28.9747 25.5213 29.0487 25.3435 29.1139 25.1657L30.4473 24.7746C30.6565 24.717 30.8414 24.5932 30.9744 24.4218C31.1074 24.2503 31.1813 24.0404 31.185 23.8235V22.1701ZM29.7628 23.5035L27.985 24.019L27.8784 24.3924C27.7798 24.7286 27.6457 25.0534 27.4784 25.3613L27.2917 25.699L28.1806 27.2901L27.4162 28.0368L25.7984 27.1479L25.4695 27.3257C25.1529 27.4965 24.8192 27.6335 24.4739 27.7346L24.1006 27.8413L23.5761 29.619H22.4828L21.9584 27.8857L21.585 27.779C21.2373 27.6809 20.9006 27.5469 20.5806 27.379L20.2517 27.2013L18.6428 28.0901L17.8784 27.3346L18.7673 25.7168L18.5717 25.379C18.39 25.0613 18.244 24.7244 18.1361 24.3746L18.0206 24.0101L16.2873 23.4946V22.419L18.0117 21.9035L18.1184 21.539C18.2251 21.186 18.3712 20.8461 18.5539 20.5257L18.7495 20.179L17.8606 18.6413L18.6339 17.8946L20.2073 18.7301L20.545 18.5435C20.8747 18.3607 21.2235 18.2147 21.585 18.1079L21.9495 18.0013L22.4739 16.3035H23.5673L24.0828 17.9924L24.4473 18.099C24.8054 18.2035 25.1511 18.3465 25.4784 18.5257L25.8161 18.7124L27.4162 17.8679L28.1806 18.6235L27.2917 20.1968L27.4784 20.5346C27.6544 20.8529 27.7945 21.1898 27.8961 21.539L28.0028 21.9124L29.7184 22.419L29.7628 23.5035Z"
        fill="black" />
</svg>
    