<svg width="76" height="77" viewBox="0 0 76 77" fill="none" xmlns="http://www.w3.org/2000/svg">
<g filter="url(#filter0_d_633_942)">
<rect x="12" y="11.5" width="52" height="52" rx="26" fill="white" shape-rendering="crispEdges"/>
<rect x="12.5" y="12" width="51" height="51" rx="25.5" stroke="#F5F5F5" shape-rendering="crispEdges"/>
<path d="M50.75 31.875C51.2188 32.3438 51.5 32.9531 51.5 33.6094C51.5 34.2656 51.2188 34.875 50.75 35.3438L43.3438 42.7969C43.25 42.8438 41.0938 45 38 45H36.5C35.7031 45 35.0469 44.5781 34.7188 43.9219C34.4844 43.5 33.9688 43.5 33.7812 43.875L33.4062 44.625C33.125 45.1875 32.2344 45.1406 32 44.4844L31.25 42.1406L30.7344 43.6406C30.4531 44.4844 29.7031 45 28.8125 45H28.25C27.8281 45 27.5 44.6719 27.5 44.25C27.5 43.875 27.8281 43.5 28.25 43.5H28.8125C29.0469 43.5 29.2344 43.3594 29.3281 43.1719L30.1719 40.5938C30.3125 40.125 30.7344 39.8438 31.25 39.8438C31.7188 39.8438 32.1406 40.125 32.2812 40.5938L32.9375 42.5625C33.875 41.8125 35.4688 42.0938 36.0312 43.2188C36.125 43.4062 36.3125 43.5 36.5 43.5C36.5 41.5312 37.2969 39.5625 38.7031 38.1562L46.1562 30.75C47.1406 29.7656 48.6406 29.7656 49.625 30.75L50.75 31.875ZM42.2656 41.7188L47.8438 36.0938L45.3594 33.6094L39.7344 39.2344C38.6094 40.3594 38 41.9062 38 43.5C39.5938 43.5 41.1406 42.8906 42.2656 41.7188ZM49.7188 34.2656C50.0469 33.8906 50.0469 33.3281 49.7188 32.9531L48.5469 31.7812C48.1719 31.4531 47.6094 31.4531 47.2344 31.7812L46.25 32.7656L48.7344 35.25L49.7188 34.2656ZM41.5625 46.5C42.0312 46.5 42.4062 47.0156 42.2656 47.4844C41.8906 48.6562 40.7656 49.5 39.4062 49.5H27.4531C25.8125 49.5 24.5 48.1875 24.5 46.5V28.5C24.5 26.8594 25.8125 25.5 27.4531 25.5H34.4375C35.2344 25.5 35.9844 25.8281 36.5469 26.3906L40.7656 30.6094C41.0469 30.9375 41.0469 31.3594 40.7656 31.6875C40.4844 31.9688 40.0156 31.9688 39.7344 31.6875L35.5156 27.4688C35.3281 27.2812 35.1406 27.1875 34.9531 27.1406V32.25C34.9531 32.6719 35.2812 33 35.7031 33H38.7031C39.0781 33 39.4062 33.3281 39.4062 33.75V33.7969C39.4062 34.1719 39.0781 34.5 38.6562 34.5H35.6562C34.3906 34.5 33.4062 33.5156 33.4062 32.25V27H27.4062C26.6094 27 25.9531 27.7031 25.9531 28.5V46.5C25.9531 47.3438 26.6094 48 27.4062 48H39.4062C40.1094 48 40.625 47.5781 40.8594 47.0156C40.9531 46.6875 41.2344 46.5 41.5625 46.5Z" fill="black"/>
</g>
<defs>
<filter id="filter0_d_633_942" x="0" y="0.5" width="76" height="76" filterUnits="userSpaceOnUse" color-interpolation-filters="sRGB">
<feFlood flood-opacity="0" result="BackgroundImageFix"/>
<feColorMatrix in="SourceAlpha" type="matrix" values="0 0 0 0 0 0 0 0 0 0 0 0 0 0 0 0 0 0 127 0" result="hardAlpha"/>
<feOffset dy="1"/>
<feGaussianBlur stdDeviation="6"/>
<feComposite in2="hardAlpha" operator="out"/>
<feColorMatrix type="matrix" values="0 0 0 0 0 0 0 0 0 0 0 0 0 0 0 0 0 0 0.12 0"/>
<feBlend mode="normal" in2="BackgroundImageFix" result="effect1_dropShadow_633_942"/>
<feBlend mode="normal" in="SourceGraphic" in2="effect1_dropShadow_633_942" result="shape"/>
</filter>
</defs>
</svg>
