<svg width="50" height="50" viewBox="0 0 50 50" fill="none" xmlns="http://www.w3.org/2000/svg">
    <path
        d="M25.1595 6.24707H25.4376C28.0064 6.25645 41.022 6.3502 44.5314 7.29395C45.5923 7.58197 46.559 8.14339 47.335 8.9221C48.111 9.7008 48.669 10.6695 48.9532 11.7314C49.2689 12.9189 49.4907 14.4908 49.6407 16.1127L49.672 16.4377L49.7407 17.2502L49.7657 17.5752C49.9689 20.4314 49.9939 23.1064 49.997 23.6908V23.9252C49.9939 24.5314 49.9657 27.3877 49.7407 30.3627L49.7157 30.6908L49.6876 31.0158C49.5314 32.8033 49.3001 34.5783 48.9532 35.8846C48.6698 36.9469 48.1121 37.9161 47.336 38.6949C46.5599 39.4738 45.5927 40.0349 44.5314 40.3221C40.9064 41.2971 27.1282 41.3658 25.2189 41.3689H24.7751C23.8095 41.3689 19.8157 41.3502 15.6282 41.2064L15.097 41.1877L14.8251 41.1752L14.2907 41.1533L13.7564 41.1314C10.2876 40.9783 6.9845 40.7314 5.46262 40.319C4.40165 40.0321 3.4347 39.4714 2.65864 38.6931C1.88257 37.9149 1.32464 36.9463 1.04075 35.8846C0.693872 34.5814 0.462622 32.8033 0.306372 31.0158L0.281372 30.6877L0.256372 30.3627C0.102146 28.2452 0.0166842 26.1232 0.00012207 24.0002L0.00012207 23.6158C0.00637207 22.9439 0.0313721 20.6221 0.200122 18.0596L0.221997 17.7377L0.231372 17.5752L0.256372 17.2502L0.325122 16.4377L0.356372 16.1127C0.506372 14.4908 0.728247 12.9158 1.04387 11.7314C1.32729 10.6691 1.885 9.69992 2.6611 8.92108C3.4372 8.14224 4.4044 7.58111 5.46575 7.29395C6.98762 6.8877 10.2907 6.6377 13.7595 6.48145L14.2907 6.45957L14.8282 6.44082L15.097 6.43145L15.6314 6.40957C18.6055 6.31387 21.5808 6.26074 24.5564 6.2502H25.1595V6.24707ZM20.0001 16.2783V31.3346L32.9907 23.8096L20.0001 16.2783Z"
        fill="white" />
</svg>
    